<?xml version="1.0" encoding="utf-8"?>
<!-- Generator: Adobe Illustrator 21.1.0, SVG Export Plug-In . SVG Version: 6.00 Build 0)  -->
<svg version="1.1" id="レイヤー_2" xmlns="http://www.w3.org/2000/svg" xmlns:xlink="http://www.w3.org/1999/xlink" x="0px"
	 y="0px" viewBox="0 0 79.8 70" style="enable-background:new 0 0 79.8 70;" xml:space="preserve">
<style type="text/css">
	.st0{fill:#FFFFFF;}
</style>
<g>
	<g>
		<path class="st0" d="M37.2,9.8l2.7-4.6l2.7,4.6h5l-4.7-8.1c-0.6-1.1-1.7-1.7-3-1.7c-1.2,0-2.4,0.7-3,1.7l-4.7,8.1H37.2z"/>
		<path class="st0" d="M79.3,64.9L54.8,22.3v8.6l20.1,34.8H4.9L25,30.9v-8.6L0.5,64.9c-0.6,1.1-0.6,2.4,0,3.4c0.6,1.1,1.7,1.7,3,1.7
			h72.9c1.2,0,2.4-0.7,3-1.7C79.9,67.2,79.9,65.9,79.3,64.9z"/>
	</g>
	<path class="st0" d="M53.8,14.5v-1.9H41.9v-1.3h-4.1v1.3H25.9v1.9h11.8v1.1H27.2v8.3H31l-5,6h4.9l5-6h1.9v6h4.1v-6h1.9l5,6h4.9
		l-5-6h3.8v-8.3H41.9v-1.1H53.8z M31.3,17.9h6.4v0.9h-6.4V17.9z M31.3,21.7v-0.9h6.4v0.9H31.3z M41.9,20.8h6.4v0.9h-6.4V20.8z
		 M48.4,17.9v0.9h-6.4v-0.9H48.4z"/>
	<g>
		<path class="st0" d="M54.4,44.5h-1.9v-9.3h-5.3v-2.1h-4.4v2.1h-5.3v9.3h-1.9v2.1h5.4L36.4,52h4.9l3.7-4.4l3.7,4.4h4.9L49,46.6h5.4
			V44.5z M48.5,37.4v7.1h-1.4v-7.1H48.5z M41.4,37.4h1.4v7.1h-1.4V37.4z"/>
		<path class="st0" d="M26.1,50.5h9V34.7h-9V50.5z M29.7,48.5v-5.9h1.9v5.9H29.7z M31.5,36.7v3.9h-1.9v-3.9H31.5z"/>
	</g>
</g>
</svg>
