<?xml version="1.0" encoding="utf-8"?>
<!-- Generator: Adobe Illustrator 21.1.0, SVG Export Plug-In . SVG Version: 6.00 Build 0)  -->
<svg version="1.1" id="レイヤー_2" xmlns="http://www.w3.org/2000/svg" xmlns:xlink="http://www.w3.org/1999/xlink" x="0px"
	 y="0px" viewBox="0 0 25.5 25.5" style="enable-background:new 0 0 25.5 25.5;" xml:space="preserve">
<style type="text/css">
	.st0{fill:none;stroke:#0082D1;stroke-width:1.5;stroke-linecap:round;stroke-miterlimit:10;}
</style>
<g>
	<line class="st0" x1="20.9" y1="19.2" x2="4.6" y2="19.2"/>
	<line class="st0" x1="20.9" y1="6.2" x2="4.6" y2="6.2"/>
	<line class="st0" x1="24.8" y1="0.8" x2="0.8" y2="0.8"/>
	<line class="st0" x1="24.8" y1="24.8" x2="0.8" y2="24.8"/>
	<line class="st0" x1="4.6" y1="0.8" x2="4.6" y2="24.8"/>
	<line class="st0" x1="0.8" y1="0.8" x2="0.8" y2="24.8"/>
	<g>
		<line class="st0" x1="4.6" y1="8.2" x2="0.8" y2="8.2"/>
		<line class="st0" x1="4.6" y1="3.7" x2="0.8" y2="3.7"/>
		<line class="st0" x1="4.6" y1="12.7" x2="0.8" y2="12.7"/>
	</g>
	<line class="st0" x1="4.6" y1="21.8" x2="0.8" y2="21.8"/>
	<line class="st0" x1="4.6" y1="17.2" x2="0.8" y2="17.2"/>
	<line class="st0" x1="24.8" y1="0.8" x2="24.8" y2="24.8"/>
	<line class="st0" x1="20.9" y1="0.8" x2="20.9" y2="24.8"/>
	<g>
		<line class="st0" x1="24.8" y1="8.2" x2="20.9" y2="8.2"/>
		<line class="st0" x1="24.8" y1="3.7" x2="20.9" y2="3.7"/>
		<line class="st0" x1="24.8" y1="12.7" x2="20.9" y2="12.7"/>
	</g>
	<line class="st0" x1="24.8" y1="21.8" x2="20.9" y2="21.8"/>
	<line class="st0" x1="24.8" y1="17.2" x2="20.9" y2="17.2"/>
</g>
</svg>
