<?xml version="1.0" encoding="utf-8"?>
<!-- Generator: Adobe Illustrator 21.1.0, SVG Export Plug-In . SVG Version: 6.00 Build 0)  -->
<svg version="1.1" id="レイヤー_2" xmlns="http://www.w3.org/2000/svg" xmlns:xlink="http://www.w3.org/1999/xlink" x="0px"
	 y="0px" viewBox="0 0 25.5 25.5" style="enable-background:new 0 0 25.5 25.5;" xml:space="preserve">
<style type="text/css">
	.st0{fill:#0082D1;}
	.st1{fill:none;stroke:#0082D1;stroke-linecap:round;stroke-miterlimit:10;}
</style>
<g>
	<path class="st0" d="M20.2,23v1h-1.7v-0.8c-0.5,0-1-0.1-1.5-0.2V24H4.7v-2.8v-1.5V19H13c-0.2-0.5-0.2-1-0.3-1.5h-8v-0.3v-1.5v-2.5
		v-1.5V9.5V8.1H17v1.4v2c0.5-0.1,1-0.2,1.5-0.2V9.5h1.7v1.9c0.5,0.1,1,0.3,1.5,0.6v-0.2V9.5V8V5.7V4.2V1.5V0h-1.5h-1.7H17H4.7H3.2
		H1.5H0h0v1.5h0v2.7v1.5V8v1.5v2.3v1.5v2.5v1.5v2.5v1.5V24h0v1.5h0h1.5h1.7h1.5H17h1.5h1.7h1.5V24v-1.6C21.2,22.7,20.7,22.9,20.2,23
		z M18.5,1.5h1.7v2.7h-1.7V1.5z M18.5,6.6V5.7h1.7V8h-1.7V6.6z M4.7,5.7V4.2V1.5H17v2.7v1.5v0.9H4.7V5.7z M3.2,24H1.5v-2.8h1.7V24z
		 M3.2,17.5V19v0.7H1.5v-2.5h1.7V17.5z M3.2,15.7H1.5v-2.5h1.7V15.7z M3.2,11.8H1.5V9.5h1.7V11.8z M3.2,6.6V8H1.5V5.7h1.7V6.6z
		 M3.2,4.2H1.5V1.5h1.7V4.2z"/>
	<g>
		<ellipse class="st1" cx="18.7" cy="17.2" rx="6" ry="6"/>
		<polyline class="st1" points="18.7,14 18.7,17.2 21.3,17.2 		"/>
	</g>
</g>
</svg>
