<?xml version="1.0" encoding="utf-8"?>
<!-- Generator: Adobe Illustrator 21.1.0, SVG Export Plug-In . SVG Version: 6.00 Build 0)  -->
<svg version="1.1" id="レイヤー_2" xmlns="http://www.w3.org/2000/svg" xmlns:xlink="http://www.w3.org/1999/xlink" x="0px"
	 y="0px" viewBox="0 0 25.5 25.5" style="enable-background:new 0 0 25.5 25.5;" xml:space="preserve">
<style type="text/css">
	.st0{fill:#A49F8D;}
	.st1{fill:none;stroke:#A49F8D;stroke-width:1.5;stroke-miterlimit:10;}
</style>
<g>
	<g>
		<path class="st0" d="M11.7,16.8c0.1-0.5,0.1-0.7,0.1-1.3c0-0.9,0.2-1.6,0.7-2.3c0.4-0.5,0.6-0.7,1.7-1.5c0.7-0.5,1.1-0.8,1.4-1.1
			c0.5-0.5,0.7-1.1,0.7-1.7c0-1.6-1.4-2.7-3.3-2.7c-1.3,0-2.4,0.5-3.1,1.3C9.6,7.9,9.4,8.3,9.2,9.2L7.8,9c0.4-1.4,0.8-2.1,1.6-2.7
			c0.9-0.7,2.1-1.1,3.5-1.1c2.8,0,4.7,1.5,4.7,3.7c0,0.8-0.3,1.6-0.8,2.2c-0.3,0.4-0.6,0.7-1.5,1.3c-1.1,0.8-1.5,1.1-1.8,1.5
			c-0.4,0.5-0.5,1.1-0.5,1.8c0,0.4,0,0.7,0.1,1.2H11.7z M13.3,18.8v1.6h-1.7v-1.6H13.3z"/>
	</g>
	<circle class="st1" cx="12.8" cy="12.8" r="12"/>
</g>
</svg>
