<?xml version="1.0" encoding="utf-8"?>
<!-- Generator: Adobe Illustrator 21.1.0, SVG Export Plug-In . SVG Version: 6.00 Build 0)  -->
<svg version="1.1" id="レイヤー_2" xmlns="http://www.w3.org/2000/svg" xmlns:xlink="http://www.w3.org/1999/xlink" x="0px"
	 y="0px" viewBox="0 0 25.5 25.5" style="enable-background:new 0 0 25.5 25.5;" xml:space="preserve">
<style type="text/css">
	.st0{fill:none;stroke:#EE7700;stroke-width:1.5;stroke-linecap:round;stroke-miterlimit:10;}
</style>
<g>
	<polyline class="st0" points="10,24.8 0.8,24.8 0.8,0.8 24.8,0.8 24.8,24.8 15.5,24.8 	"/>
	<g>
		<g>
			<path class="st0" d="M3.8,11.8l-0.6,0.4c0,0,0,0,0,0c9.2-5.3,9.6-11.4,9.6-11.4"/>
			<path class="st0" d="M1.8,12C5.9,7.7,6.6,0.8,6.6,0.8"/>
			<rect x="0.8" y="12.2" class="st0" width="4.1" height="3.7"/>
			<path class="st0" d="M10,24.7c0,0-0.3-4.7-6.6-8.9"/>
			<path class="st0" d="M5.5,24.7c0,0-0.3-4.2-4-9.1"/>
		</g>
		<g>
			<path class="st0" d="M21.7,11.8l0.6,0.4l0,0c-9.2-5.3-9.6-11.4-9.6-11.4"/>
			<path class="st0" d="M23.7,12c-4.1-4.3-4.8-11.3-4.8-11.3"/>
			
				<rect x="20.6" y="12.2" transform="matrix(-1 -4.506452e-11 4.506452e-11 -1 45.3829 28.0298)" class="st0" width="4.1" height="3.7"/>
			<path class="st0" d="M15.5,24.7c0,0,0.3-4.7,6.6-8.9"/>
			<path class="st0" d="M20,24.7c0,0,0.3-4.2,4-9.1"/>
		</g>
	</g>
</g>
</svg>
