<?xml version="1.0" encoding="utf-8"?>
<!-- Generator: Adobe Illustrator 21.1.0, SVG Export Plug-In . SVG Version: 6.00 Build 0)  -->
<svg version="1.1" id="書き出し" xmlns="http://www.w3.org/2000/svg" xmlns:xlink="http://www.w3.org/1999/xlink" x="0px"
	 y="0px" viewBox="0 0 383.3 456.6" style="enable-background:new 0 0 383.3 456.6;" xml:space="preserve">
<style type="text/css">
	.st0{fill:#EEEEEF;}
	.st1{fill:#9E9E9F;}
	.st2{fill:#9A9A9B;}
</style>
<g>
	<g>
		<rect class="st0" width="383.3" height="456.6"/>
	</g>
	
		<rect x="22.5" y="443.9" transform="matrix(-1.836970e-16 1 -1 -1.836970e-16 479.0599 431.8233)" class="st1" width="2.3" height="23"/>
	
		<rect x="138.5" y="443.9" transform="matrix(-1.836970e-16 1 -1 -1.836970e-16 595.0878 315.7955)" class="st1" width="2.3" height="23"/>
	
		<rect x="255.8" y="443.9" transform="matrix(-1.836970e-16 1 -1 -1.836970e-16 712.424 198.4593)" class="st1" width="2.3" height="23"/>
	
		<rect x="357.2" y="443.9" transform="matrix(-1.836970e-16 1 -1 -1.836970e-16 813.8214 97.0619)" class="st1" width="2.3" height="23"/>
	<g>
		<g>
			<path d="M15.1,111.4c0.2,0,0.4,0,0.7,0h0.5c0.3,0,0.4,0,0.7,0c0,0.5-0.1,0.9-0.1,1.3v3.8c0,0.4,0,0.6,0.1,0.9h-0.8
				c0-0.3,0.1-0.5,0.1-0.9V112h-0.4c-0.3,0-0.5,0-0.7,0V111.4z"/>
		</g>
	</g>
	<g>
		<g>
			<path d="M29.7,117.5c-0.5,0-0.6,0-0.9,0c0.1-0.6,0.1-0.7,0.2-1c0.2-0.5,0.5-0.9,1-1.4c0.3-0.2,0.3-0.2,1.2-0.9
				c0.8-0.5,1-0.9,1-1.4c0-0.6-0.5-1-1.3-1c-0.5,0-0.9,0.2-1.1,0.5c-0.2,0.2-0.2,0.4-0.3,0.8l-0.7-0.1c0.1-0.6,0.2-0.8,0.5-1.1
				c0.4-0.4,0.9-0.6,1.6-0.6c1.2,0,2,0.6,2,1.5c0,0.4-0.2,0.8-0.5,1.1c-0.2,0.3-0.4,0.4-1.3,1c-0.6,0.4-0.9,0.6-1.1,1
				c-0.2,0.3-0.4,0.5-0.5,0.9h2.5c0.4,0,0.7,0,1-0.1v0.7c-0.3,0-0.6,0-1,0H29.7z"/>
		</g>
	</g>
	<g>
		<g>
			<path d="M43.9,116c0.1,0.4,0.2,0.6,0.5,0.8c0.3,0.2,0.6,0.3,1,0.3c0.9,0,1.5-0.5,1.5-1.2c0-0.8-0.6-1.2-1.6-1.2
				c-0.2,0-0.4,0-0.6,0V114c0.2,0,0.4,0,0.6,0c0.5,0,0.9-0.1,1.2-0.4c0.2-0.2,0.3-0.5,0.3-0.8c0-0.7-0.5-1.1-1.3-1.1
				c-0.5,0-0.8,0.1-1.1,0.4c-0.1,0.1-0.2,0.3-0.3,0.6l-0.7-0.1c0.1-0.4,0.2-0.6,0.4-0.8c0.3-0.4,0.9-0.6,1.6-0.6
				c1.1,0,1.9,0.6,1.9,1.5c0,0.5-0.2,0.9-0.6,1.2c-0.2,0.2-0.4,0.2-0.7,0.3c0.5,0,0.7,0.1,1,0.3c0.3,0.3,0.5,0.7,0.5,1.2
				c0,1.1-0.8,1.7-2.1,1.7c-0.8,0-1.4-0.2-1.8-0.6c-0.2-0.2-0.3-0.4-0.4-0.8L43.9,116z"/>
		</g>
	</g>
	<g>
		<g>
			<path d="M57.7,115.4c0.2-0.2,0.3-0.4,0.5-0.6l2-2.5c0.3-0.3,0.4-0.5,0.6-0.8h0.6c0,0.5,0,0.7,0,1.3v2.6h0.3c0.3,0,0.5,0,0.8-0.1
				v0.7c-0.3,0-0.5-0.1-0.8-0.1h-0.3v0.7c0,0.4,0,0.6,0.1,0.9h-0.7c0-0.3,0.1-0.5,0.1-0.9v-0.7h-2.1c-0.4,0-0.7,0-0.9,0V115.4z
				 M60.8,113.4c0-0.4,0-0.7,0-1.1c-0.2,0.2-0.4,0.5-0.6,0.8l-1.8,2.3h2.4V113.4z"/>
		</g>
	</g>
	<g>
		<g>
			<path d="M73.4,113.8c0,0.1,0,0.1-0.1,0.4c0.4-0.4,0.8-0.5,1.4-0.5c0.6,0,1.1,0.2,1.4,0.5c0.4,0.3,0.5,0.8,0.5,1.4
				c0,1.3-0.8,2.1-2.1,2.1c-0.6,0-1.1-0.2-1.5-0.5c-0.2-0.2-0.3-0.4-0.5-0.7l0.6-0.2c0.1,0.2,0.1,0.3,0.3,0.5
				c0.3,0.3,0.7,0.5,1.1,0.5c0.9,0,1.5-0.6,1.5-1.5c0-0.9-0.5-1.4-1.4-1.4c-0.4,0-0.8,0.1-1,0.3c-0.2,0.2-0.3,0.3-0.4,0.5l-0.6-0.1
				c0.1-0.3,0.1-0.5,0.1-0.8l0.2-1.8c0-0.2,0-0.3,0-0.5c0-0.1,0-0.1,0-0.3c0.2,0,0.4,0,0.8,0h1.6c0.4,0,0.6,0,0.9-0.1v0.7
				c-0.3,0-0.6-0.1-0.9-0.1h-1.9L73.4,113.8z"/>
		</g>
	</g>
	<g>
		<g>
			<path d="M90.6,112.8c-0.1-0.3-0.2-0.4-0.3-0.5c-0.2-0.3-0.5-0.4-0.9-0.4c-0.6,0-1.1,0.3-1.4,1c-0.2,0.5-0.3,0.8-0.3,1.7
				c0.1-0.2,0.2-0.4,0.4-0.5c0.4-0.3,0.8-0.5,1.3-0.5c1.2,0,2,0.8,2,2c0,1.2-0.8,2-2.1,2c-0.6,0-1.1-0.2-1.4-0.5
				c-0.5-0.5-0.8-1.4-0.8-2.5c0-1,0.2-1.9,0.6-2.4c0.4-0.6,1-0.9,1.7-0.9c0.5,0,0.9,0.1,1.2,0.3c0.3,0.2,0.4,0.4,0.7,0.9L90.6,112.8
				z M89.3,114.1c-0.4,0-0.8,0.2-1.1,0.5c-0.3,0.3-0.4,0.6-0.4,1c0,0.9,0.6,1.5,1.5,1.5c0.5,0,1-0.2,1.2-0.6
				c0.1-0.2,0.2-0.5,0.2-0.8C90.8,114.6,90.2,114.1,89.3,114.1z"/>
		</g>
	</g>
	<g>
		<g>
			<path d="M105.9,112c-0.1,0.1-0.3,0.3-0.6,0.8c-0.7,1.1-1,1.8-1.4,2.7c-0.2,0.7-0.3,1.1-0.4,2h-0.8c0.3-1.4,0.5-2.1,1-3.2
				c0.4-0.8,0.7-1.3,1.4-2.3h-2.6c-0.4,0-0.6,0-0.9,0.1v-0.7c0.3,0,0.5,0.1,0.9,0.1h2.4c0.5,0,0.6,0,0.9,0V112z"/>
		</g>
	</g>
	<g>
		<g>
			<path d="M134.5,114.7c0.4,0.3,0.6,0.7,0.6,1.2c0,1.1-0.8,1.7-2.2,1.7c-1.4,0-2.2-0.6-2.2-1.7c0-0.6,0.2-1,0.7-1.3
				c0.2-0.2,0.4-0.2,0.7-0.3c-0.7-0.1-1.1-0.7-1.1-1.4c0-1,0.8-1.6,1.9-1.6c1.2,0,2,0.6,2,1.6c0,0.7-0.4,1.3-1.1,1.4
				C134,114.4,134.2,114.5,134.5,114.7z M131.3,115.9c0,0.8,0.6,1.2,1.6,1.2c0.6,0,1-0.1,1.3-0.4c0.2-0.2,0.3-0.5,0.3-0.8
				c0-0.8-0.6-1.2-1.6-1.2C131.9,114.6,131.3,115.1,131.3,115.9z M131.5,113c0,0.7,0.5,1.1,1.3,1.1c0.8,0,1.3-0.4,1.3-1.1
				c0-0.7-0.5-1.1-1.3-1.1C132,111.9,131.5,112.3,131.5,113z"/>
		</g>
	</g>
	<g>
		<g>
			<path d="M146,116.2c0.1,0.3,0.2,0.4,0.3,0.5c0.2,0.2,0.6,0.4,1,0.4c0.6,0,1-0.2,1.3-0.7c0.2-0.3,0.3-0.6,0.3-1
				c0-0.2,0.1-0.5,0.1-0.9c-0.1,0.2-0.2,0.3-0.3,0.4c-0.4,0.4-0.8,0.6-1.4,0.6c-0.6,0-1.1-0.2-1.4-0.5c-0.3-0.3-0.5-0.9-0.5-1.4
				c0-1.3,0.8-2.1,2.1-2.1c0.9,0,1.6,0.5,1.9,1.3c0.2,0.4,0.2,1,0.2,1.6c0,1.1-0.2,2-0.7,2.5c-0.4,0.5-0.9,0.7-1.6,0.7
				c-0.5,0-1-0.1-1.3-0.4c-0.2-0.2-0.3-0.4-0.6-0.8L146,116.2z M148.8,113.4c0-0.9-0.6-1.5-1.5-1.5c-0.5,0-1,0.3-1.3,0.7
				c-0.1,0.2-0.2,0.5-0.2,0.8c0,0.9,0.5,1.5,1.4,1.5C148.1,114.8,148.8,114.2,148.8,113.4z"/>
		</g>
	</g>
	<g>
		<g>
			<path d="M158.1,111.4c0.2,0,0.4,0,0.7,0h0.5c0.3,0,0.4,0,0.7,0c0,0.5-0.1,0.9-0.1,1.3v3.8c0,0.4,0,0.6,0.1,0.9h-0.8
				c0-0.3,0.1-0.5,0.1-0.9V112h-0.4c-0.3,0-0.5,0-0.7,0V111.4z"/>
			<path d="M163.1,117c-0.2-0.2-0.4-0.5-0.5-0.7c-0.2-0.6-0.3-1.2-0.3-1.8c0-0.8,0.2-1.7,0.5-2.2c0.4-0.6,1-1,1.8-1
				c0.6,0,1.1,0.2,1.4,0.6c0.2,0.2,0.4,0.5,0.5,0.7c0.2,0.5,0.3,1.2,0.3,1.8c0,1-0.2,1.8-0.6,2.3c-0.4,0.6-0.9,0.8-1.7,0.8
				C164,117.6,163.5,117.4,163.1,117z M163.6,112.3c-0.2,0.2-0.3,0.4-0.4,0.6c-0.2,0.5-0.2,1-0.2,1.6c0,0.7,0.2,1.5,0.4,1.9
				c0.3,0.5,0.7,0.7,1.2,0.7c0.4,0,0.7-0.1,1-0.4c0.2-0.2,0.3-0.4,0.4-0.6c0.2-0.5,0.2-1,0.2-1.6c0-0.7-0.1-1.5-0.4-1.8
				c-0.3-0.5-0.7-0.7-1.2-0.7C164.2,111.9,163.8,112,163.6,112.3z"/>
		</g>
	</g>
	<g>
		<g>
			<path d="M172.6,111.4c0.2,0,0.4,0,0.7,0h0.5c0.3,0,0.4,0,0.7,0c0,0.5-0.1,0.9-0.1,1.3v3.8c0,0.4,0,0.6,0.1,0.9h-0.8
				c0-0.3,0.1-0.5,0.1-0.9V112h-0.4c-0.3,0-0.5,0-0.7,0V111.4z"/>
			<path d="M177.8,111.4c0.2,0,0.4,0,0.7,0h0.5c0.3,0,0.4,0,0.7,0c0,0.5-0.1,0.9-0.1,1.3v3.8c0,0.4,0,0.6,0.1,0.9h-0.8
				c0-0.3,0.1-0.5,0.1-0.9V112h-0.4c-0.3,0-0.5,0-0.7,0V111.4z"/>
		</g>
	</g>
	<g>
		<g>
			<path d="M187.6,111.4c0.2,0,0.4,0,0.7,0h0.5c0.3,0,0.4,0,0.7,0c0,0.5-0.1,0.9-0.1,1.3v3.8c0,0.4,0,0.6,0.1,0.9h-0.8
				c0-0.3,0.1-0.5,0.1-0.9V112h-0.4c-0.3,0-0.5,0-0.7,0V111.4z"/>
			<path d="M192.9,117.5c-0.5,0-0.6,0-0.9,0c0.1-0.6,0.1-0.7,0.2-1c0.2-0.5,0.5-0.9,1-1.4c0.3-0.2,0.3-0.2,1.2-0.9
				c0.8-0.5,1-0.9,1-1.4c0-0.6-0.5-1-1.3-1c-0.5,0-0.9,0.2-1.1,0.5c-0.2,0.2-0.2,0.4-0.3,0.8l-0.7-0.1c0.1-0.6,0.2-0.8,0.5-1.1
				c0.4-0.4,0.9-0.6,1.6-0.6c1.2,0,2,0.6,2,1.5c0,0.4-0.2,0.8-0.5,1.1c-0.2,0.3-0.4,0.4-1.3,1c-0.6,0.4-0.9,0.6-1.1,1
				c-0.2,0.3-0.4,0.5-0.5,0.9h2.5c0.4,0,0.7,0,1-0.1v0.7c-0.3,0-0.6,0-1,0H192.9z"/>
		</g>
	</g>
	<g>
		<g>
			<path d="M201.1,111.4c0.2,0,0.4,0,0.7,0h0.5c0.3,0,0.4,0,0.7,0c0,0.5-0.1,0.9-0.1,1.3v3.8c0,0.4,0,0.6,0.1,0.9h-0.8
				c0-0.3,0.1-0.5,0.1-0.9V112h-0.4c-0.3,0-0.5,0-0.7,0V111.4z"/>
			<path d="M206.1,116c0.1,0.4,0.2,0.6,0.5,0.8c0.3,0.2,0.6,0.3,1,0.3c0.9,0,1.5-0.5,1.5-1.2c0-0.8-0.6-1.2-1.6-1.2
				c-0.2,0-0.4,0-0.6,0V114c0.2,0,0.4,0,0.6,0c0.5,0,0.9-0.1,1.2-0.4c0.2-0.2,0.3-0.5,0.3-0.8c0-0.7-0.5-1.1-1.3-1.1
				c-0.5,0-0.8,0.1-1.1,0.4c-0.1,0.1-0.2,0.3-0.3,0.6l-0.7-0.1c0.1-0.4,0.2-0.6,0.4-0.8c0.3-0.4,0.9-0.6,1.6-0.6
				c1.1,0,1.9,0.6,1.9,1.5c0,0.5-0.2,0.9-0.6,1.2c-0.2,0.2-0.4,0.2-0.7,0.3c0.5,0,0.7,0.1,1,0.3c0.3,0.3,0.5,0.7,0.5,1.2
				c0,1.1-0.8,1.7-2.1,1.7c-0.8,0-1.4-0.2-1.8-0.6c-0.2-0.2-0.3-0.4-0.4-0.8L206.1,116z"/>
		</g>
	</g>
	<g>
		<g>
			<path d="M215.6,111.4c0.2,0,0.4,0,0.7,0h0.5c0.3,0,0.4,0,0.7,0c0,0.5-0.1,0.9-0.1,1.3v3.8c0,0.4,0,0.6,0.1,0.9h-0.8
				c0-0.3,0.1-0.5,0.1-0.9V112h-0.4c-0.3,0-0.5,0-0.7,0V111.4z"/>
			<path d="M219.8,115.4c0.2-0.2,0.3-0.4,0.5-0.6l2-2.5c0.3-0.3,0.4-0.5,0.6-0.8h0.6c0,0.5,0,0.7,0,1.3v2.6h0.3c0.3,0,0.5,0,0.8-0.1
				v0.7c-0.3,0-0.5-0.1-0.8-0.1h-0.3v0.7c0,0.4,0,0.6,0.1,0.9h-0.7c0-0.3,0.1-0.5,0.1-0.9v-0.7h-2.1c-0.4,0-0.7,0-0.9,0V115.4z
				 M222.8,113.4c0-0.4,0-0.7,0-1.1c-0.2,0.2-0.4,0.5-0.6,0.8l-1.8,2.3h2.4V113.4z"/>
		</g>
	</g>
	<g>
		<g>
			<path d="M230.1,111.4c0.2,0,0.4,0,0.7,0h0.5c0.3,0,0.4,0,0.7,0c0,0.5-0.1,0.9-0.1,1.3v3.8c0,0.4,0,0.6,0.1,0.9h-0.8
				c0-0.3,0.1-0.5,0.1-0.9V112h-0.4c-0.3,0-0.5,0-0.7,0V111.4z"/>
			<path d="M235.4,113.8c0,0.1,0,0.1-0.1,0.4c0.4-0.4,0.8-0.5,1.4-0.5c0.6,0,1.1,0.2,1.4,0.5c0.4,0.3,0.5,0.8,0.5,1.4
				c0,1.3-0.8,2.1-2.1,2.1c-0.6,0-1.1-0.2-1.5-0.5c-0.2-0.2-0.3-0.4-0.5-0.7l0.6-0.2c0.1,0.2,0.1,0.3,0.3,0.5
				c0.3,0.3,0.7,0.5,1.1,0.5c0.9,0,1.5-0.6,1.5-1.5c0-0.9-0.5-1.4-1.4-1.4c-0.4,0-0.8,0.1-1,0.3c-0.2,0.2-0.3,0.3-0.4,0.5l-0.6-0.1
				c0.1-0.3,0.1-0.5,0.1-0.8l0.2-1.8c0-0.2,0-0.3,0-0.5c0-0.1,0-0.1,0-0.3c0.2,0,0.4,0,0.8,0h1.6c0.4,0,0.6,0,0.9-0.1v0.7
				c-0.3,0-0.6-0.1-0.9-0.1h-1.9L235.4,113.8z"/>
		</g>
	</g>
	<g>
		<g>
			<path d="M244.6,111.4c0.2,0,0.4,0,0.7,0h0.5c0.3,0,0.4,0,0.7,0c0,0.5-0.1,0.9-0.1,1.3v3.8c0,0.4,0,0.6,0.1,0.9h-0.8
				c0-0.3,0.1-0.5,0.1-0.9V112h-0.4c-0.3,0-0.5,0-0.7,0V111.4z"/>
			<path d="M252.5,112.8c-0.1-0.3-0.2-0.4-0.3-0.5c-0.2-0.3-0.5-0.4-0.9-0.4c-0.6,0-1.1,0.3-1.4,1c-0.2,0.5-0.3,0.8-0.3,1.7
				c0.1-0.2,0.2-0.4,0.4-0.5c0.4-0.3,0.8-0.5,1.3-0.5c1.2,0,2,0.8,2,2c0,1.2-0.8,2-2.1,2c-0.6,0-1.1-0.2-1.4-0.5
				c-0.5-0.5-0.8-1.4-0.8-2.5c0-1,0.2-1.9,0.6-2.4c0.4-0.6,1-0.9,1.7-0.9c0.5,0,0.9,0.1,1.2,0.3c0.3,0.2,0.4,0.4,0.7,0.9
				L252.5,112.8z M251.2,114.1c-0.4,0-0.8,0.2-1.1,0.5c-0.3,0.3-0.4,0.6-0.4,1c0,0.9,0.6,1.5,1.5,1.5c0.5,0,1-0.2,1.2-0.6
				c0.1-0.2,0.2-0.5,0.2-0.8C252.7,114.6,252.2,114.1,251.2,114.1z"/>
		</g>
	</g>
	<g>
		<g>
			<path d="M259.1,111.4c0.2,0,0.4,0,0.7,0h0.5c0.3,0,0.4,0,0.7,0c0,0.5-0.1,0.9-0.1,1.3v3.8c0,0.4,0,0.6,0.1,0.9h-0.8
				c0-0.3,0.1-0.5,0.1-0.9V112h-0.4c-0.3,0-0.5,0-0.7,0V111.4z"/>
			<path d="M267.7,112c-0.1,0.1-0.3,0.3-0.6,0.8c-0.7,1.1-1,1.8-1.4,2.7c-0.2,0.7-0.3,1.1-0.4,2h-0.8c0.3-1.4,0.5-2.1,1-3.2
				c0.4-0.8,0.7-1.3,1.4-2.3h-2.6c-0.4,0-0.6,0-0.9,0.1v-0.7c0.3,0,0.5,0.1,0.9,0.1h2.4c0.5,0,0.6,0,0.9,0V112z"/>
		</g>
	</g>
	<g>
		<g>
			<path d="M288.1,111.4c0.2,0,0.4,0,0.7,0h0.5c0.3,0,0.4,0,0.7,0c0,0.5-0.1,0.9-0.1,1.3v3.8c0,0.4,0,0.6,0.1,0.9h-0.8
				c0-0.3,0.1-0.5,0.1-0.9V112h-0.4c-0.3,0-0.5,0-0.7,0V111.4z"/>
			<path d="M296.2,114.7c0.4,0.3,0.6,0.7,0.6,1.2c0,1.1-0.8,1.7-2.2,1.7c-1.4,0-2.2-0.6-2.2-1.7c0-0.6,0.2-1,0.7-1.3
				c0.2-0.2,0.4-0.2,0.7-0.3c-0.7-0.1-1.1-0.7-1.1-1.4c0-1,0.8-1.6,1.9-1.6c1.2,0,2,0.6,2,1.6c0,0.7-0.4,1.3-1.1,1.4
				C295.8,114.4,296,114.5,296.2,114.7z M293.1,115.9c0,0.8,0.6,1.2,1.6,1.2c0.6,0,1-0.1,1.3-0.4c0.2-0.2,0.3-0.5,0.3-0.8
				c0-0.8-0.6-1.2-1.6-1.2C293.7,114.6,293.1,115.1,293.1,115.9z M293.3,113c0,0.7,0.5,1.1,1.3,1.1c0.8,0,1.3-0.4,1.3-1.1
				c0-0.7-0.5-1.1-1.3-1.1C293.8,111.9,293.3,112.3,293.3,113z"/>
		</g>
	</g>
	<g>
		<g>
			<path d="M302.6,111.4c0.2,0,0.4,0,0.7,0h0.5c0.3,0,0.4,0,0.7,0c0,0.5-0.1,0.9-0.1,1.3v3.8c0,0.4,0,0.6,0.1,0.9h-0.8
				c0-0.3,0.1-0.5,0.1-0.9V112h-0.4c-0.3,0-0.5,0-0.7,0V111.4z"/>
			<path d="M307.7,116.2c0.1,0.3,0.2,0.4,0.3,0.5c0.2,0.2,0.6,0.4,1,0.4c0.6,0,1-0.2,1.3-0.7c0.2-0.3,0.3-0.6,0.3-1
				c0-0.2,0.1-0.5,0.1-0.9c-0.1,0.2-0.2,0.3-0.3,0.4c-0.4,0.4-0.8,0.6-1.4,0.6c-0.6,0-1.1-0.2-1.4-0.5c-0.3-0.3-0.5-0.9-0.5-1.4
				c0-1.3,0.8-2.1,2.1-2.1c0.9,0,1.6,0.5,1.9,1.3c0.2,0.4,0.2,1,0.2,1.6c0,1.1-0.2,2-0.7,2.5c-0.4,0.5-0.9,0.7-1.6,0.7
				c-0.5,0-1-0.1-1.3-0.4c-0.2-0.2-0.3-0.4-0.6-0.8L307.7,116.2z M310.5,113.4c0-0.9-0.6-1.5-1.5-1.5c-0.5,0-1,0.3-1.3,0.7
				c-0.1,0.2-0.2,0.5-0.2,0.8c0,0.9,0.5,1.5,1.4,1.5C309.8,114.8,310.5,114.2,310.5,113.4z"/>
		</g>
	</g>
	<g>
		<g>
			<path d="M317.2,117.5c-0.5,0-0.6,0-0.9,0c0.1-0.6,0.1-0.7,0.2-1c0.2-0.5,0.5-0.9,1-1.4c0.3-0.2,0.3-0.2,1.2-0.9
				c0.8-0.5,1-0.9,1-1.4c0-0.6-0.5-1-1.3-1c-0.5,0-0.9,0.2-1.1,0.5c-0.2,0.2-0.2,0.4-0.3,0.8l-0.7-0.1c0.1-0.6,0.2-0.8,0.5-1.1
				c0.4-0.4,0.9-0.6,1.6-0.6c1.2,0,2,0.6,2,1.5c0,0.4-0.2,0.8-0.5,1.1c-0.2,0.3-0.4,0.4-1.3,1c-0.6,0.4-0.9,0.6-1.1,1
				c-0.2,0.3-0.4,0.5-0.5,0.9h2.5c0.4,0,0.7,0,1-0.1v0.7c-0.3,0-0.6,0-1,0H317.2z"/>
			<path d="M322.2,117c-0.2-0.2-0.4-0.5-0.5-0.7c-0.2-0.6-0.3-1.2-0.3-1.8c0-0.8,0.2-1.7,0.5-2.2c0.4-0.6,1-1,1.8-1
				c0.6,0,1.1,0.2,1.4,0.6c0.2,0.2,0.4,0.5,0.5,0.7c0.2,0.5,0.3,1.2,0.3,1.8c0,1-0.2,1.8-0.6,2.3c-0.4,0.6-0.9,0.8-1.7,0.8
				C323,117.6,322.5,117.4,322.2,117z M322.6,112.3c-0.2,0.2-0.3,0.4-0.4,0.6c-0.2,0.5-0.2,1-0.2,1.6c0,0.7,0.2,1.5,0.4,1.9
				c0.3,0.5,0.7,0.7,1.2,0.7c0.4,0,0.7-0.1,1-0.4c0.2-0.2,0.3-0.4,0.4-0.6c0.2-0.5,0.2-1,0.2-1.6c0-0.7-0.1-1.5-0.4-1.8
				c-0.3-0.5-0.7-0.7-1.2-0.7C323.2,111.9,322.9,112,322.6,112.3z"/>
		</g>
	</g>
	<g>
		<g>
			<path d="M331.7,117.5c-0.5,0-0.6,0-0.9,0c0.1-0.6,0.1-0.7,0.2-1c0.2-0.5,0.5-0.9,1-1.4c0.3-0.2,0.3-0.2,1.2-0.9
				c0.8-0.5,1-0.9,1-1.4c0-0.6-0.5-1-1.3-1c-0.5,0-0.9,0.2-1.1,0.5c-0.2,0.2-0.2,0.4-0.3,0.8l-0.7-0.1c0.1-0.6,0.2-0.8,0.5-1.1
				c0.4-0.4,0.9-0.6,1.6-0.6c1.2,0,2,0.6,2,1.5c0,0.4-0.2,0.8-0.5,1.1c-0.2,0.3-0.4,0.4-1.3,1c-0.6,0.4-0.9,0.6-1.1,1
				c-0.2,0.3-0.4,0.5-0.5,0.9h2.5c0.4,0,0.7,0,1-0.1v0.7c-0.3,0-0.6,0-1,0H331.7z"/>
			<path d="M336.8,111.4c0.2,0,0.4,0,0.7,0h0.5c0.3,0,0.4,0,0.7,0c0,0.5-0.1,0.9-0.1,1.3v3.8c0,0.4,0,0.6,0.1,0.9h-0.8
				c0-0.3,0.1-0.5,0.1-0.9V112h-0.4c-0.3,0-0.5,0-0.7,0V111.4z"/>
		</g>
	</g>
	<g>
		<g>
			<path d="M346.2,117.5c-0.5,0-0.6,0-0.9,0c0.1-0.6,0.1-0.7,0.2-1c0.2-0.5,0.5-0.9,1-1.4c0.3-0.2,0.3-0.2,1.2-0.9
				c0.8-0.5,1-0.9,1-1.4c0-0.6-0.5-1-1.3-1c-0.5,0-0.9,0.2-1.1,0.5c-0.2,0.2-0.2,0.4-0.3,0.8l-0.7-0.1c0.1-0.6,0.2-0.8,0.5-1.1
				c0.4-0.4,0.9-0.6,1.6-0.6c1.2,0,2,0.6,2,1.5c0,0.4-0.2,0.8-0.5,1.1c-0.2,0.3-0.4,0.4-1.3,1c-0.6,0.4-0.9,0.6-1.1,1
				c-0.2,0.3-0.4,0.5-0.5,0.9h2.5c0.4,0,0.7,0,1-0.1v0.7c-0.3,0-0.6,0-1,0H346.2z"/>
			<path d="M351.4,117.5c-0.5,0-0.6,0-0.9,0c0.1-0.6,0.1-0.7,0.2-1c0.2-0.5,0.5-0.9,1-1.4c0.3-0.2,0.3-0.2,1.2-0.9
				c0.8-0.5,1-0.9,1-1.4c0-0.6-0.5-1-1.3-1c-0.5,0-0.9,0.2-1.1,0.5c-0.2,0.2-0.2,0.4-0.3,0.8l-0.7-0.1c0.1-0.6,0.2-0.8,0.5-1.1
				c0.4-0.4,0.9-0.6,1.6-0.6c1.2,0,2,0.6,2,1.5c0,0.4-0.2,0.8-0.5,1.1c-0.2,0.3-0.4,0.4-1.3,1c-0.6,0.4-0.9,0.6-1.1,1
				c-0.2,0.3-0.4,0.5-0.5,0.9h2.5c0.4,0,0.7,0,1-0.1v0.7c-0.3,0-0.6,0-1,0H351.4z"/>
		</g>
	</g>
	<g>
		<g>
			<path d="M360.7,117.5c-0.5,0-0.6,0-0.9,0c0.1-0.6,0.1-0.7,0.2-1c0.2-0.5,0.5-0.9,1-1.4c0.3-0.2,0.3-0.2,1.2-0.9
				c0.8-0.5,1-0.9,1-1.4c0-0.6-0.5-1-1.3-1c-0.5,0-0.9,0.2-1.1,0.5c-0.2,0.2-0.2,0.4-0.3,0.8l-0.7-0.1c0.1-0.6,0.2-0.8,0.5-1.1
				c0.4-0.4,0.9-0.6,1.6-0.6c1.2,0,2,0.6,2,1.5c0,0.4-0.2,0.8-0.5,1.1c-0.2,0.3-0.4,0.4-1.3,1c-0.6,0.4-0.9,0.6-1.1,1
				c-0.2,0.3-0.4,0.5-0.5,0.9h2.5c0.4,0,0.7,0,1-0.1v0.7c-0.3,0-0.6,0-1,0H360.7z"/>
			<path d="M365.6,116c0.1,0.4,0.2,0.6,0.5,0.8c0.3,0.2,0.6,0.3,1,0.3c0.9,0,1.5-0.5,1.5-1.2c0-0.8-0.6-1.2-1.6-1.2
				c-0.2,0-0.4,0-0.6,0V114c0.2,0,0.4,0,0.6,0c0.5,0,0.9-0.1,1.2-0.4c0.2-0.2,0.3-0.5,0.3-0.8c0-0.7-0.5-1.1-1.3-1.1
				c-0.5,0-0.8,0.1-1.1,0.4c-0.1,0.1-0.2,0.3-0.3,0.6l-0.7-0.1c0.1-0.4,0.2-0.6,0.4-0.8c0.3-0.4,0.9-0.6,1.6-0.6
				c1.1,0,1.9,0.6,1.9,1.5c0,0.5-0.2,0.9-0.6,1.2c-0.2,0.2-0.4,0.2-0.7,0.3c0.5,0,0.7,0.1,1,0.3c0.3,0.3,0.5,0.7,0.5,1.2
				c0,1.1-0.8,1.7-2.1,1.7c-0.8,0-1.4-0.2-1.8-0.6c-0.2-0.2-0.3-0.4-0.4-0.8L365.6,116z"/>
		</g>
	</g>
	<g>
		<g>
			<path d="M120.6,134.9c-0.1-0.3-0.2-0.6-0.2-0.8l-0.4-1h-2.8l-0.4,1c-0.1,0.3-0.2,0.5-0.2,0.8h-0.8c0.2-0.3,0.2-0.4,0.4-0.9
				l1.8-4.4c0.1-0.4,0.2-0.6,0.3-0.7h0.8c0,0.2,0.1,0.3,0.3,0.7l1.8,4.4c0.2,0.5,0.3,0.7,0.4,0.9H120.6z M118.7,129.9
				c0-0.1,0-0.1-0.2-0.5c0,0.1-0.1,0.2-0.1,0.3c0,0.1-0.1,0.2-0.1,0.2l-1,2.6h2.4L118.7,129.9z"/>
		</g>
	</g>
	<g>
		<g>
			<path d="M117.2,156c-0.3,0-0.6,0-0.9,0c0.1-0.3,0.1-0.5,0.1-1v-4.2c0-0.3,0-0.6-0.1-0.8c0.2,0,0.4,0,0.9,0h1.7
				c1.1,0,1.8,0.5,1.8,1.5c0,0.5-0.1,0.8-0.4,1.1c-0.2,0.1-0.3,0.2-0.6,0.3c0.4,0.1,0.6,0.2,0.8,0.3c0.3,0.3,0.5,0.7,0.5,1.2
				c0,1.1-0.7,1.7-1.9,1.7H117.2z M118.9,152.6c0.7,0,1.2-0.4,1.2-1.1c0-0.7-0.4-1-1.2-1H117v2H118.9z M117,155.5h1.9
				c0.9,0,1.3-0.4,1.3-1.2c0-0.8-0.5-1.2-1.3-1.2H117V155.5z"/>
		</g>
	</g>
	<g>
		<g>
			<path d="M120.4,172.8c-0.1-0.3-0.2-0.5-0.4-0.7c-0.3-0.4-0.8-0.6-1.4-0.6c-1.3,0-2.1,1-2.1,2.6c0,1.6,0.8,2.6,2.1,2.6
				c0.6,0,1.2-0.2,1.5-0.7c0.2-0.2,0.2-0.4,0.3-0.8l0.7,0.2c-0.1,0.5-0.2,0.7-0.4,0.9c-0.4,0.6-1.2,0.9-2,0.9
				c-0.8,0-1.4-0.2-1.8-0.7c-0.6-0.6-0.9-1.4-0.9-2.4c0-1,0.3-1.9,0.9-2.5c0.5-0.4,1.1-0.7,1.8-0.7c0.7,0,1.3,0.2,1.8,0.6
				c0.3,0.3,0.4,0.5,0.6,1L120.4,172.8z"/>
		</g>
	</g>
	<g>
		<g>
			<path d="M116.2,193c0-0.3,0-0.6-0.1-0.9c0.3,0,0.5,0,0.9,0h1.3c1.8,0,2.8,1.1,2.8,3c0,1-0.3,1.8-0.8,2.3
				c-0.5,0.5-1.1,0.7-1.9,0.7H117c-0.4,0-0.6,0-0.9,0c0-0.3,0.1-0.5,0.1-0.9V193z M118.4,197.6c0.6,0,1.1-0.2,1.5-0.6
				c0.4-0.4,0.7-1.1,0.7-1.9c0-0.8-0.2-1.5-0.6-1.9c-0.3-0.4-0.8-0.5-1.5-0.5h-1.5v4.9H118.4z"/>
		</g>
	</g>
	<g>
		<g>
			<path d="M120.7,219.3c-0.3,0-0.5-0.1-0.9-0.1h-2.3c-0.4,0-0.6,0-0.9,0c0-0.3,0.1-0.5,0.1-0.9v-4.2c0-0.3,0-0.6-0.1-0.9
				c0.3,0,0.5,0,0.9,0h2.3c0.3,0,0.6,0,0.9-0.1v0.7c-0.3,0-0.5-0.1-0.9-0.1h-2.4v2h2.1c0.3,0,0.6,0,0.9-0.1v0.7
				c-0.3,0-0.5-0.1-0.9-0.1h-2.1v2.3h2.5c0.4,0,0.6,0,0.9-0.1V219.3z"/>
		</g>
	</g>
	<g>
		<g>
			<path d="M117.5,239.4c0,0.4,0,0.6,0.1,0.9h-0.8c0-0.3,0.1-0.5,0.1-0.9v-4.2c0-0.3,0-0.6-0.1-0.9c0.3,0,0.5,0,0.9,0h2.1
				c0.4,0,0.6,0,0.9-0.1v0.7c-0.3,0-0.5-0.1-0.9-0.1h-2.3v2h1.8c0.4,0,0.6,0,0.9-0.1v0.7c-0.3,0-0.5-0.1-0.9-0.1h-1.8V239.4z"/>
		</g>
	</g>
	<g>
		<g>
			<path d="M119.9,258.9c-0.4,0-0.6,0-0.8,0v-0.6c0.2,0,0.4,0,0.9,0h0.2c0.4,0,0.6,0,0.8,0c0,0.3-0.1,0.5-0.1,0.9v0.7
				c0,0.4,0,0.6,0.1,0.9c-0.5,0.3-0.7,0.4-1.1,0.5c-0.3,0.1-0.8,0.1-1.2,0.1c-0.8,0-1.3-0.2-1.8-0.6c-0.6-0.5-1-1.5-1-2.5
				c0-1.9,1.1-3.1,2.8-3.1c0.7,0,1.3,0.2,1.7,0.6c0.3,0.2,0.4,0.5,0.6,0.9l-0.6,0.2c-0.3-0.8-0.8-1.1-1.7-1.1c-1.3,0-2.1,1-2.1,2.6
				c0,0.8,0.2,1.5,0.7,2c0.4,0.4,0.8,0.6,1.5,0.6s1.1-0.1,1.6-0.4v-1.6H119.9z"/>
		</g>
	</g>
	<g>
		<g>
			<path d="M121,276.5c0,0.3-0.1,0.5-0.1,0.9v4.3c0,0.4,0,0.6,0.1,0.9h-0.7c0-0.3,0.1-0.5,0.1-0.9v-2h-3.6v2c0,0.4,0,0.6,0.1,0.9
				h-0.7c0-0.3,0.1-0.5,0.1-0.9v-4.2c0-0.4,0-0.6-0.1-0.9h0.7c0,0.3-0.1,0.5-0.1,0.9v1.7h3.6v-1.7c0-0.4,0-0.6-0.1-0.9H121z"/>
		</g>
	</g>
	<g>
		<g>
			<path d="M118.9,297.5c0,0.3-0.1,0.6-0.1,0.9v4.2c0,0.3,0,0.6,0.1,0.9h-0.8c0-0.3,0.1-0.5,0.1-0.9v-4.2c0-0.4,0-0.6-0.1-0.9H118.9
				z"/>
		</g>
	</g>
	<g>
		<g>
			<path d="M119.9,318.6c0,0.3-0.1,0.5-0.1,0.9v3.5c0,0.5-0.1,0.9-0.3,1.2c-0.3,0.3-0.7,0.5-1.3,0.5c-0.6,0-1-0.2-1.3-0.5
				c-0.1-0.2-0.2-0.3-0.4-0.6l0.6-0.3c0.1,0.2,0.2,0.4,0.3,0.5c0.2,0.2,0.5,0.3,0.8,0.3c0.7,0,1-0.3,1-1.1v-3.5c0-0.4,0-0.6-0.1-0.9
				H119.9z"/>
		</g>
	</g>
	<g>
		<g>
			<path d="M120.5,344.9c0.5,0.6,0.5,0.7,0.7,0.9h-0.9c-0.1-0.2-0.2-0.4-0.5-0.7l-1.9-2.4l-0.9,0.9v1.3c0,0.4,0,0.6,0.1,0.9h-0.7
				c0-0.3,0.1-0.5,0.1-0.9v-4.2c0-0.4,0-0.6-0.1-0.9h0.7c0,0.3-0.1,0.5-0.1,0.9v2.2l2.4-2.4c0.3-0.3,0.4-0.5,0.5-0.7h0.9
				c-0.1,0.1-0.1,0.1-0.2,0.2c-0.1,0.1-0.2,0.2-0.3,0.3c-0.1,0.1-0.2,0.2-0.3,0.3l-1.7,1.7L120.5,344.9z"/>
		</g>
	</g>
	<g>
		<g>
			<path d="M116.4,383.5c-0.1-0.3-0.2-0.5-0.4-1c0,0.3,0.1,0.8,0.1,1v3.4c0,0.4,0,0.7,0.1,0.9h-0.7c0-0.3,0.1-0.5,0.1-0.9v-4.1
				c0-0.4,0-0.6-0.1-0.9h0.9c0,0.2,0.1,0.5,0.3,0.8l2,4.4l1.9-4.4c0.1-0.3,0.2-0.6,0.3-0.8h0.9c0,0.3-0.1,0.5-0.1,0.9v4.1
				c0,0.4,0,0.6,0.1,0.9H121c0-0.3,0.1-0.6,0.1-0.9v-3.4c0-0.2,0-0.6,0.1-1c-0.1,0.3-0.2,0.6-0.3,1l-1.6,3.5
				c-0.2,0.4-0.2,0.6-0.3,0.8h-0.6c0-0.2-0.1-0.5-0.3-0.8L116.4,383.5z"/>
		</g>
	</g>
	<g>
		<g>
			<path d="M121.3,406c0,1.9-1.1,3.1-2.7,3.1c-1.7,0-2.7-1.2-2.7-3.1c0-1.9,1.1-3.1,2.7-3.1C120.2,402.9,121.3,404.1,121.3,406z
				 M119.9,408c0.5-0.4,0.7-1.2,0.7-2c0-0.9-0.2-1.6-0.7-2c-0.4-0.4-0.8-0.5-1.4-0.5c-1.3,0-2.1,1-2.1,2.6c0,1.5,0.8,2.6,2.1,2.6
				C119.1,408.5,119.6,408.4,119.9,408z"/>
		</g>
	</g>
	<g>
		<g>
			<path d="M116.5,430.1c0-0.3,0.1-0.5,0.1-0.9v-4.2c0-0.3,0-0.6-0.1-0.9c0.3,0,0.5,0,0.9,0h1.6c1.2,0,1.9,0.6,1.9,1.7
				c0,1.2-0.7,1.8-1.9,1.8h-1.8v1.6c0,0.4,0,0.6,0.1,0.9H116.5z M119,427.1c0.8,0,1.3-0.5,1.3-1.3c0-0.8-0.5-1.2-1.3-1.2h-1.8v2.5
				H119z"/>
		</g>
	</g>
	<g>
		<g>
			<path d="M117.6,366.8c-0.4,0-0.6,0-0.9,0c0-0.3,0.1-0.6,0.1-0.9v-4.2c0-0.4,0-0.7-0.1-0.9h0.7c0,0.3-0.1,0.5-0.1,0.9v4.5h2.5
				c0.4,0,0.6,0,0.9-0.1v0.7c-0.3,0-0.5-0.1-0.9-0.1H117.6z"/>
		</g>
	</g>
	<g>
		<g>
			<path d="M280.9,134.9c-0.1-0.3-0.2-0.6-0.2-0.8l-0.4-1h-2.8l-0.4,1c-0.1,0.3-0.2,0.5-0.2,0.8h-0.8c0.2-0.3,0.2-0.4,0.4-0.9
				l1.8-4.4c0.1-0.4,0.2-0.6,0.3-0.7h0.8c0,0.2,0.1,0.3,0.3,0.7l1.8,4.4c0.2,0.5,0.3,0.7,0.4,0.9H280.9z M279.1,129.9
				c0-0.1,0-0.1-0.2-0.5c0,0.1-0.1,0.2-0.1,0.3c0,0.1-0.1,0.2-0.1,0.2l-1,2.6h2.4L279.1,129.9z"/>
		</g>
	</g>
	<g>
		<g>
			<path d="M277.6,156c-0.3,0-0.6,0-0.9,0c0.1-0.3,0.1-0.5,0.1-1v-4.2c0-0.3,0-0.6-0.1-0.8c0.2,0,0.4,0,0.9,0h1.7
				c1.1,0,1.8,0.5,1.8,1.5c0,0.5-0.1,0.8-0.4,1.1c-0.2,0.1-0.3,0.2-0.6,0.3c0.4,0.1,0.6,0.2,0.8,0.3c0.3,0.3,0.5,0.7,0.5,1.2
				c0,1.1-0.7,1.7-1.9,1.7H277.6z M279.2,152.6c0.7,0,1.2-0.4,1.2-1.1c0-0.7-0.4-1-1.2-1h-1.9v2H279.2z M277.4,155.5h1.9
				c0.9,0,1.3-0.4,1.3-1.2c0-0.8-0.5-1.2-1.3-1.2h-1.9V155.5z"/>
		</g>
	</g>
	<g>
		<g>
			<path d="M280.8,172.8c-0.1-0.3-0.2-0.5-0.4-0.7c-0.3-0.4-0.8-0.6-1.4-0.6c-1.3,0-2.1,1-2.1,2.6c0,1.6,0.8,2.6,2.1,2.6
				c0.6,0,1.2-0.2,1.5-0.7c0.2-0.2,0.2-0.4,0.3-0.8l0.7,0.2c-0.1,0.5-0.2,0.7-0.4,0.9c-0.4,0.6-1.2,0.9-2,0.9
				c-0.8,0-1.4-0.2-1.8-0.7c-0.6-0.6-0.9-1.4-0.9-2.4c0-1,0.3-1.9,0.9-2.5c0.5-0.4,1.1-0.7,1.8-0.7c0.7,0,1.3,0.2,1.8,0.6
				c0.3,0.3,0.4,0.5,0.6,1L280.8,172.8z"/>
		</g>
	</g>
	<g>
		<g>
			<path d="M276.6,193c0-0.3,0-0.6-0.1-0.9c0.3,0,0.5,0,0.9,0h1.3c1.8,0,2.8,1.1,2.8,3c0,1-0.3,1.8-0.8,2.3
				c-0.5,0.5-1.1,0.7-1.9,0.7h-1.3c-0.4,0-0.6,0-0.9,0c0-0.3,0.1-0.5,0.1-0.9V193z M278.7,197.6c0.6,0,1.1-0.2,1.5-0.6
				c0.4-0.4,0.7-1.1,0.7-1.9c0-0.8-0.2-1.5-0.6-1.9c-0.3-0.4-0.8-0.5-1.5-0.5h-1.5v4.9H278.7z"/>
		</g>
	</g>
	<g>
		<g>
			<path d="M281,219.3c-0.3,0-0.5-0.1-0.9-0.1h-2.3c-0.4,0-0.6,0-0.9,0c0-0.3,0.1-0.5,0.1-0.9v-4.2c0-0.3,0-0.6-0.1-0.9
				c0.3,0,0.5,0,0.9,0h2.3c0.3,0,0.6,0,0.9-0.1v0.7c-0.3,0-0.5-0.1-0.9-0.1h-2.4v2h2.1c0.3,0,0.6,0,0.9-0.1v0.7
				c-0.3,0-0.5-0.1-0.9-0.1h-2.1v2.3h2.5c0.4,0,0.6,0,0.9-0.1V219.3z"/>
		</g>
	</g>
	<g>
		<g>
			<path d="M277.8,239.4c0,0.4,0,0.6,0.1,0.9h-0.8c0-0.3,0.1-0.5,0.1-0.9v-4.2c0-0.3,0-0.6-0.1-0.9c0.3,0,0.5,0,0.9,0h2.1
				c0.4,0,0.6,0,0.9-0.1v0.7c-0.3,0-0.5-0.1-0.9-0.1h-2.3v2h1.8c0.4,0,0.6,0,0.9-0.1v0.7c-0.3,0-0.5-0.1-0.9-0.1h-1.8V239.4z"/>
		</g>
	</g>
	<g>
		<g>
			<path d="M280.3,258.9c-0.4,0-0.6,0-0.8,0v-0.6c0.2,0,0.4,0,0.9,0h0.2c0.4,0,0.6,0,0.8,0c0,0.3-0.1,0.5-0.1,0.9v0.7
				c0,0.4,0,0.6,0.1,0.9c-0.5,0.3-0.7,0.4-1.1,0.5c-0.3,0.1-0.8,0.1-1.2,0.1c-0.8,0-1.3-0.2-1.8-0.6c-0.6-0.5-1-1.5-1-2.5
				c0-1.9,1.1-3.1,2.8-3.1c0.7,0,1.3,0.2,1.7,0.6c0.3,0.2,0.4,0.5,0.6,0.9l-0.6,0.2c-0.3-0.8-0.8-1.1-1.7-1.1c-1.3,0-2.1,1-2.1,2.6
				c0,0.8,0.2,1.5,0.7,2c0.4,0.4,0.8,0.6,1.5,0.6s1.1-0.1,1.6-0.4v-1.6H280.3z"/>
		</g>
	</g>
	<g>
		<g>
			<path d="M281.4,276.5c0,0.3-0.1,0.5-0.1,0.9v4.3c0,0.4,0,0.6,0.1,0.9h-0.7c0-0.3,0.1-0.5,0.1-0.9v-2h-3.6v2c0,0.4,0,0.6,0.1,0.9
				h-0.7c0-0.3,0.1-0.5,0.1-0.9v-4.2c0-0.4,0-0.6-0.1-0.9h0.7c0,0.3-0.1,0.5-0.1,0.9v1.7h3.6v-1.7c0-0.4,0-0.6-0.1-0.9H281.4z"/>
		</g>
	</g>
	<g>
		<g>
			<path d="M279.3,297.5c0,0.3-0.1,0.6-0.1,0.9v4.2c0,0.3,0,0.6,0.1,0.9h-0.8c0-0.3,0.1-0.5,0.1-0.9v-4.2c0-0.4,0-0.6-0.1-0.9H279.3
				z"/>
		</g>
	</g>
	<g>
		<g>
			<path d="M280.3,318.6c0,0.3-0.1,0.5-0.1,0.9v3.5c0,0.5-0.1,0.9-0.3,1.2c-0.3,0.3-0.7,0.5-1.3,0.5c-0.6,0-1-0.2-1.3-0.5
				c-0.1-0.2-0.2-0.3-0.4-0.6l0.6-0.3c0.1,0.2,0.2,0.4,0.3,0.5c0.2,0.2,0.5,0.3,0.8,0.3c0.7,0,1-0.3,1-1.1v-3.5c0-0.4,0-0.6-0.1-0.9
				H280.3z"/>
		</g>
	</g>
	<g>
		<g>
			<path d="M280.8,344.9c0.5,0.6,0.5,0.7,0.7,0.9h-0.9c-0.1-0.2-0.2-0.4-0.5-0.7l-1.9-2.4l-0.9,0.9v1.3c0,0.4,0,0.6,0.1,0.9h-0.7
				c0-0.3,0.1-0.5,0.1-0.9v-4.2c0-0.4,0-0.6-0.1-0.9h0.7c0,0.3-0.1,0.5-0.1,0.9v2.2l2.4-2.4c0.3-0.3,0.4-0.5,0.5-0.7h0.9
				c-0.1,0.1-0.1,0.1-0.2,0.2c-0.1,0.1-0.2,0.2-0.3,0.3c-0.1,0.1-0.2,0.2-0.3,0.3l-1.7,1.7L280.8,344.9z"/>
		</g>
	</g>
	<g>
		<g>
			<path d="M276.7,383.5c-0.1-0.3-0.2-0.5-0.4-1c0,0.3,0.1,0.8,0.1,1v3.4c0,0.4,0,0.7,0.1,0.9h-0.7c0-0.3,0.1-0.5,0.1-0.9v-4.1
				c0-0.4,0-0.6-0.1-0.9h0.9c0,0.2,0.1,0.5,0.3,0.8l2,4.4l1.9-4.4c0.1-0.3,0.2-0.6,0.3-0.8h0.9c0,0.3-0.1,0.5-0.1,0.9v4.1
				c0,0.4,0,0.6,0.1,0.9h-0.7c0-0.3,0.1-0.6,0.1-0.9v-3.4c0-0.2,0-0.6,0.1-1c-0.1,0.3-0.2,0.6-0.3,1l-1.6,3.5
				c-0.2,0.4-0.2,0.6-0.3,0.8h-0.6c0-0.2-0.1-0.5-0.3-0.8L276.7,383.5z"/>
		</g>
	</g>
	<g>
		<g>
			<path d="M281.6,406c0,1.9-1.1,3.1-2.7,3.1c-1.7,0-2.7-1.2-2.7-3.1c0-1.9,1.1-3.1,2.7-3.1C280.6,402.9,281.6,404.1,281.6,406z
				 M280.3,408c0.5-0.4,0.7-1.2,0.7-2c0-0.9-0.2-1.6-0.7-2c-0.4-0.4-0.8-0.5-1.4-0.5c-1.3,0-2.1,1-2.1,2.6c0,1.5,0.8,2.6,2.1,2.6
				C279.5,408.5,279.9,408.4,280.3,408z"/>
		</g>
	</g>
	<g>
		<g>
			<path d="M276.9,430.1c0-0.3,0.1-0.5,0.1-0.9v-4.2c0-0.3,0-0.6-0.1-0.9c0.3,0,0.5,0,0.9,0h1.6c1.2,0,1.9,0.6,1.9,1.7
				c0,1.2-0.7,1.8-1.9,1.8h-1.8v1.6c0,0.4,0,0.6,0.1,0.9H276.9z M279.3,427.1c0.8,0,1.3-0.5,1.3-1.3c0-0.8-0.5-1.2-1.3-1.2h-1.8v2.5
				H279.3z"/>
		</g>
	</g>
	<g>
		<g>
			<path d="M278,366.8c-0.4,0-0.6,0-0.9,0c0-0.3,0.1-0.6,0.1-0.9v-4.2c0-0.4,0-0.7-0.1-0.9h0.7c0,0.3-0.1,0.5-0.1,0.9v4.5h2.5
				c0.4,0,0.6,0,0.9-0.1v0.7c-0.3,0-0.5-0.1-0.9-0.1H278z"/>
		</g>
	</g>
	<path class="st1" d="M208.8,138.7h-6.5c-1.1,0-2-0.9-2-2v-9.2c0-1.1,0.9-2,2-2h6.5c1.1,0,2,0.9,2,2v9.2
		C210.8,137.8,209.9,138.7,208.8,138.7z"/>
	<path class="st1" d="M223.3,138.7h-6.5c-1.1,0-2-0.9-2-2v-9.2c0-1.1,0.9-2,2-2h6.5c1.1,0,2,0.9,2,2v9.2
		C225.3,137.8,224.4,138.7,223.3,138.7z"/>
	<path class="st1" d="M237.8,138.7h-6.5c-1.1,0-2-0.9-2-2v-9.2c0-1.1,0.9-2,2-2h6.5c1.1,0,2,0.9,2,2v9.2
		C239.8,137.8,238.9,138.7,237.8,138.7z"/>
	<path class="st1" d="M252.3,138.7h-6.5c-1.1,0-2-0.9-2-2v-9.2c0-1.1,0.9-2,2-2h6.5c1.1,0,2,0.9,2,2v9.2
		C254.3,137.8,253.4,138.7,252.3,138.7z"/>
	<path class="st1" d="M266.8,138.7h-6.5c-1.1,0-2-0.9-2-2v-9.2c0-1.1,0.9-2,2-2h6.5c1.1,0,2,0.9,2,2v9.2
		C268.8,137.8,268,138.7,266.8,138.7z"/>
	<path class="st1" d="M295.9,138.7h-6.5c-1.1,0-2-0.9-2-2v-9.2c0-1.1,0.9-2,2-2h6.5c1.1,0,2,0.9,2,2v9.2
		C297.9,137.8,297,138.7,295.9,138.7z"/>
	<path class="st1" d="M310.4,138.7h-6.5c-1.1,0-2-0.9-2-2v-9.2c0-1.1,0.9-2,2-2h6.5c1.1,0,2,0.9,2,2v9.2
		C312.4,137.8,311.5,138.7,310.4,138.7z"/>
	<path class="st1" d="M324.9,138.7h-6.5c-1.1,0-2-0.9-2-2v-9.2c0-1.1,0.9-2,2-2h6.5c1.1,0,2,0.9,2,2v9.2
		C326.9,137.8,326,138.7,324.9,138.7z"/>
	<path class="st1" d="M339.4,138.7h-6.5c-1.1,0-2-0.9-2-2v-9.2c0-1.1,0.9-2,2-2h6.5c1.1,0,2,0.9,2,2v9.2
		C341.4,137.8,340.5,138.7,339.4,138.7z"/>
	<path class="st1" d="M353.9,138.7h-6.5c-1.1,0-2-0.9-2-2v-9.2c0-1.1,0.9-2,2-2h6.5c1.1,0,2,0.9,2,2v9.2
		C355.9,137.8,355,138.7,353.9,138.7z"/>
	<path class="st1" d="M208.8,159.8h-6.5c-1.1,0-2-0.9-2-2v-9.2c0-1.1,0.9-2,2-2h6.5c1.1,0,2,0.9,2,2v9.2
		C210.8,158.9,209.9,159.8,208.8,159.8z"/>
	<path class="st1" d="M223.3,159.8h-6.5c-1.1,0-2-0.9-2-2v-9.2c0-1.1,0.9-2,2-2h6.5c1.1,0,2,0.9,2,2v9.2
		C225.3,158.9,224.4,159.8,223.3,159.8z"/>
	<path class="st1" d="M237.8,159.8h-6.5c-1.1,0-2-0.9-2-2v-9.2c0-1.1,0.9-2,2-2h6.5c1.1,0,2,0.9,2,2v9.2
		C239.8,158.9,238.9,159.8,237.8,159.8z"/>
	<path class="st1" d="M252.3,159.8h-6.5c-1.1,0-2-0.9-2-2v-9.2c0-1.1,0.9-2,2-2h6.5c1.1,0,2,0.9,2,2v9.2
		C254.3,158.9,253.4,159.8,252.3,159.8z"/>
	<path class="st1" d="M266.8,159.8h-6.5c-1.1,0-2-0.9-2-2v-9.2c0-1.1,0.9-2,2-2h6.5c1.1,0,2,0.9,2,2v9.2
		C268.8,158.9,268,159.8,266.8,159.8z"/>
	<path class="st1" d="M295.9,159.8h-6.5c-1.1,0-2-0.9-2-2v-9.2c0-1.1,0.9-2,2-2h6.5c1.1,0,2,0.9,2,2v9.2
		C297.9,158.9,297,159.8,295.9,159.8z"/>
	<path class="st1" d="M310.4,159.8h-6.5c-1.1,0-2-0.9-2-2v-9.2c0-1.1,0.9-2,2-2h6.5c1.1,0,2,0.9,2,2v9.2
		C312.4,158.9,311.5,159.8,310.4,159.8z"/>
	<path class="st1" d="M324.9,159.8h-6.5c-1.1,0-2-0.9-2-2v-9.2c0-1.1,0.9-2,2-2h6.5c1.1,0,2,0.9,2,2v9.2
		C326.9,158.9,326,159.8,324.9,159.8z"/>
	<path class="st1" d="M339.4,159.8h-6.5c-1.1,0-2-0.9-2-2v-9.2c0-1.1,0.9-2,2-2h6.5c1.1,0,2,0.9,2,2v9.2
		C341.4,158.9,340.5,159.8,339.4,159.8z"/>
	<path class="st1" d="M353.9,159.8h-6.5c-1.1,0-2-0.9-2-2v-9.2c0-1.1,0.9-2,2-2h6.5c1.1,0,2,0.9,2,2v9.2
		C355.9,158.9,355,159.8,353.9,159.8z"/>
	<path class="st1" d="M368.4,159.8h-6.5c-1.1,0-2-0.9-2-2v-9.2c0-1.1,0.9-2,2-2h6.5c1.1,0,2,0.9,2,2v9.2
		C370.4,158.9,369.5,159.8,368.4,159.8z"/>
	<path class="st1" d="M208.8,180.9h-6.5c-1.1,0-2-0.9-2-2v-9.2c0-1.1,0.9-2,2-2h6.5c1.1,0,2,0.9,2,2v9.2
		C210.8,180,209.9,180.9,208.8,180.9z"/>
	<path class="st1" d="M223.3,180.9h-6.5c-1.1,0-2-0.9-2-2v-9.2c0-1.1,0.9-2,2-2h6.5c1.1,0,2,0.9,2,2v9.2
		C225.3,180,224.4,180.9,223.3,180.9z"/>
	<path class="st1" d="M237.8,180.9h-6.5c-1.1,0-2-0.9-2-2v-9.2c0-1.1,0.9-2,2-2h6.5c1.1,0,2,0.9,2,2v9.2
		C239.8,180,238.9,180.9,237.8,180.9z"/>
	<path class="st1" d="M252.3,180.9h-6.5c-1.1,0-2-0.9-2-2v-9.2c0-1.1,0.9-2,2-2h6.5c1.1,0,2,0.9,2,2v9.2
		C254.3,180,253.4,180.9,252.3,180.9z"/>
	<path class="st1" d="M266.8,180.9h-6.5c-1.1,0-2-0.9-2-2v-9.2c0-1.1,0.9-2,2-2h6.5c1.1,0,2,0.9,2,2v9.2
		C268.8,180,268,180.9,266.8,180.9z"/>
	<path class="st1" d="M295.9,180.9h-6.5c-1.1,0-2-0.9-2-2v-9.2c0-1.1,0.9-2,2-2h6.5c1.1,0,2,0.9,2,2v9.2
		C297.9,180,297,180.9,295.9,180.9z"/>
	<path class="st1" d="M310.4,180.9h-6.5c-1.1,0-2-0.9-2-2v-9.2c0-1.1,0.9-2,2-2h6.5c1.1,0,2,0.9,2,2v9.2
		C312.4,180,311.5,180.9,310.4,180.9z"/>
	<path class="st1" d="M324.9,180.9h-6.5c-1.1,0-2-0.9-2-2v-9.2c0-1.1,0.9-2,2-2h6.5c1.1,0,2,0.9,2,2v9.2
		C326.9,180,326,180.9,324.9,180.9z"/>
	<path class="st1" d="M339.4,180.9h-6.5c-1.1,0-2-0.9-2-2v-9.2c0-1.1,0.9-2,2-2h6.5c1.1,0,2,0.9,2,2v9.2
		C341.4,180,340.5,180.9,339.4,180.9z"/>
	<path class="st1" d="M353.9,180.9h-6.5c-1.1,0-2-0.9-2-2v-9.2c0-1.1,0.9-2,2-2h6.5c1.1,0,2,0.9,2,2v9.2
		C355.9,180,355,180.9,353.9,180.9z"/>
	<path class="st1" d="M208.8,202h-6.5c-1.1,0-2-0.9-2-2v-9.2c0-1.1,0.9-2,2-2h6.5c1.1,0,2,0.9,2,2v9.2
		C210.8,201.1,209.9,202,208.8,202z"/>
	<path class="st1" d="M223.3,202h-6.5c-1.1,0-2-0.9-2-2v-9.2c0-1.1,0.9-2,2-2h6.5c1.1,0,2,0.9,2,2v9.2
		C225.3,201.1,224.4,202,223.3,202z"/>
	<path class="st1" d="M237.8,202h-6.5c-1.1,0-2-0.9-2-2v-9.2c0-1.1,0.9-2,2-2h6.5c1.1,0,2,0.9,2,2v9.2
		C239.8,201.1,238.9,202,237.8,202z"/>
	<path class="st1" d="M252.3,202h-6.5c-1.1,0-2-0.9-2-2v-9.2c0-1.1,0.9-2,2-2h6.5c1.1,0,2,0.9,2,2v9.2
		C254.3,201.1,253.4,202,252.3,202z"/>
	<path class="st1" d="M266.8,202h-6.5c-1.1,0-2-0.9-2-2v-9.2c0-1.1,0.9-2,2-2h6.5c1.1,0,2,0.9,2,2v9.2
		C268.8,201.1,268,202,266.8,202z"/>
	<path class="st1" d="M295.9,202h-6.5c-1.1,0-2-0.9-2-2v-9.2c0-1.1,0.9-2,2-2h6.5c1.1,0,2,0.9,2,2v9.2
		C297.9,201.1,297,202,295.9,202z"/>
	<path class="st1" d="M310.4,202h-6.5c-1.1,0-2-0.9-2-2v-9.2c0-1.1,0.9-2,2-2h6.5c1.1,0,2,0.9,2,2v9.2
		C312.4,201.1,311.5,202,310.4,202z"/>
	<path class="st1" d="M324.9,202h-6.5c-1.1,0-2-0.9-2-2v-9.2c0-1.1,0.9-2,2-2h6.5c1.1,0,2,0.9,2,2v9.2
		C326.9,201.1,326,202,324.9,202z"/>
	<path class="st1" d="M339.4,202h-6.5c-1.1,0-2-0.9-2-2v-9.2c0-1.1,0.9-2,2-2h6.5c1.1,0,2,0.9,2,2v9.2
		C341.4,201.1,340.5,202,339.4,202z"/>
	<path class="st1" d="M353.9,202h-6.5c-1.1,0-2-0.9-2-2v-9.2c0-1.1,0.9-2,2-2h6.5c1.1,0,2,0.9,2,2v9.2
		C355.9,201.1,355,202,353.9,202z"/>
	<path class="st1" d="M208.8,223.1h-6.5c-1.1,0-2-0.9-2-2v-9.2c0-1.1,0.9-2,2-2h6.5c1.1,0,2,0.9,2,2v9.2
		C210.8,222.2,209.9,223.1,208.8,223.1z"/>
	<path class="st1" d="M223.3,223.1h-6.5c-1.1,0-2-0.9-2-2v-9.2c0-1.1,0.9-2,2-2h6.5c1.1,0,2,0.9,2,2v9.2
		C225.3,222.2,224.4,223.1,223.3,223.1z"/>
	<path class="st1" d="M237.8,223.1h-6.5c-1.1,0-2-0.9-2-2v-9.2c0-1.1,0.9-2,2-2h6.5c1.1,0,2,0.9,2,2v9.2
		C239.8,222.2,238.9,223.1,237.8,223.1z"/>
	<path class="st1" d="M252.3,223.1h-6.5c-1.1,0-2-0.9-2-2v-9.2c0-1.1,0.9-2,2-2h6.5c1.1,0,2,0.9,2,2v9.2
		C254.3,222.2,253.4,223.1,252.3,223.1z"/>
	<path class="st1" d="M266.8,223.1h-6.5c-1.1,0-2-0.9-2-2v-9.2c0-1.1,0.9-2,2-2h6.5c1.1,0,2,0.9,2,2v9.2
		C268.8,222.2,268,223.1,266.8,223.1z"/>
	<path class="st1" d="M295.9,223.1h-6.5c-1.1,0-2-0.9-2-2v-9.2c0-1.1,0.9-2,2-2h6.5c1.1,0,2,0.9,2,2v9.2
		C297.9,222.2,297,223.1,295.9,223.1z"/>
	<path class="st1" d="M310.4,223.1h-6.5c-1.1,0-2-0.9-2-2v-9.2c0-1.1,0.9-2,2-2h6.5c1.1,0,2,0.9,2,2v9.2
		C312.4,222.2,311.5,223.1,310.4,223.1z"/>
	<path class="st1" d="M324.9,223.1h-6.5c-1.1,0-2-0.9-2-2v-9.2c0-1.1,0.9-2,2-2h6.5c1.1,0,2,0.9,2,2v9.2
		C326.9,222.2,326,223.1,324.9,223.1z"/>
	<path class="st1" d="M339.4,223.1h-6.5c-1.1,0-2-0.9-2-2v-9.2c0-1.1,0.9-2,2-2h6.5c1.1,0,2,0.9,2,2v9.2
		C341.4,222.2,340.5,223.1,339.4,223.1z"/>
	<path class="st1" d="M353.9,223.1h-6.5c-1.1,0-2-0.9-2-2v-9.2c0-1.1,0.9-2,2-2h6.5c1.1,0,2,0.9,2,2v9.2
		C355.9,222.2,355,223.1,353.9,223.1z"/>
	<path class="st1" d="M208.8,244.2h-6.5c-1.1,0-2-0.9-2-2V233c0-1.1,0.9-2,2-2h6.5c1.1,0,2,0.9,2,2v9.2
		C210.8,243.3,209.9,244.2,208.8,244.2z"/>
	<path class="st1" d="M223.3,244.2h-6.5c-1.1,0-2-0.9-2-2V233c0-1.1,0.9-2,2-2h6.5c1.1,0,2,0.9,2,2v9.2
		C225.3,243.3,224.4,244.2,223.3,244.2z"/>
	<path class="st1" d="M237.8,244.2h-6.5c-1.1,0-2-0.9-2-2V233c0-1.1,0.9-2,2-2h6.5c1.1,0,2,0.9,2,2v9.2
		C239.8,243.3,238.9,244.2,237.8,244.2z"/>
	<path class="st1" d="M252.3,244.2h-6.5c-1.1,0-2-0.9-2-2V233c0-1.1,0.9-2,2-2h6.5c1.1,0,2,0.9,2,2v9.2
		C254.3,243.3,253.4,244.2,252.3,244.2z"/>
	<path class="st1" d="M266.8,244.2h-6.5c-1.1,0-2-0.9-2-2V233c0-1.1,0.9-2,2-2h6.5c1.1,0,2,0.9,2,2v9.2
		C268.8,243.3,268,244.2,266.8,244.2z"/>
	<path class="st1" d="M295.9,244.2h-6.5c-1.1,0-2-0.9-2-2V233c0-1.1,0.9-2,2-2h6.5c1.1,0,2,0.9,2,2v9.2
		C297.9,243.3,297,244.2,295.9,244.2z"/>
	<path class="st1" d="M310.4,244.2h-6.5c-1.1,0-2-0.9-2-2V233c0-1.1,0.9-2,2-2h6.5c1.1,0,2,0.9,2,2v9.2
		C312.4,243.3,311.5,244.2,310.4,244.2z"/>
	<path class="st1" d="M324.9,244.2h-6.5c-1.1,0-2-0.9-2-2V233c0-1.1,0.9-2,2-2h6.5c1.1,0,2,0.9,2,2v9.2
		C326.9,243.3,326,244.2,324.9,244.2z"/>
	<path class="st1" d="M339.4,244.2h-6.5c-1.1,0-2-0.9-2-2V233c0-1.1,0.9-2,2-2h6.5c1.1,0,2,0.9,2,2v9.2
		C341.4,243.3,340.5,244.2,339.4,244.2z"/>
	<path class="st1" d="M353.9,244.2h-6.5c-1.1,0-2-0.9-2-2V233c0-1.1,0.9-2,2-2h6.5c1.1,0,2,0.9,2,2v9.2
		C355.9,243.3,355,244.2,353.9,244.2z"/>
	<path class="st1" d="M208.8,265.3h-6.5c-1.1,0-2-0.9-2-2v-9.2c0-1.1,0.9-2,2-2h6.5c1.1,0,2,0.9,2,2v9.2
		C210.8,264.4,209.9,265.3,208.8,265.3z"/>
	<path class="st1" d="M223.3,265.3h-6.5c-1.1,0-2-0.9-2-2v-9.2c0-1.1,0.9-2,2-2h6.5c1.1,0,2,0.9,2,2v9.2
		C225.3,264.4,224.4,265.3,223.3,265.3z"/>
	<path class="st1" d="M237.8,265.3h-6.5c-1.1,0-2-0.9-2-2v-9.2c0-1.1,0.9-2,2-2h6.5c1.1,0,2,0.9,2,2v9.2
		C239.8,264.4,238.9,265.3,237.8,265.3z"/>
	<path class="st1" d="M252.3,265.3h-6.5c-1.1,0-2-0.9-2-2v-9.2c0-1.1,0.9-2,2-2h6.5c1.1,0,2,0.9,2,2v9.2
		C254.3,264.4,253.4,265.3,252.3,265.3z"/>
	<path class="st1" d="M266.8,265.3h-6.5c-1.1,0-2-0.9-2-2v-9.2c0-1.1,0.9-2,2-2h6.5c1.1,0,2,0.9,2,2v9.2
		C268.8,264.4,268,265.3,266.8,265.3z"/>
	<path class="st1" d="M295.9,265.3h-6.5c-1.1,0-2-0.9-2-2v-9.2c0-1.1,0.9-2,2-2h6.5c1.1,0,2,0.9,2,2v9.2
		C297.9,264.4,297,265.3,295.9,265.3z"/>
	<path class="st1" d="M310.4,265.3h-6.5c-1.1,0-2-0.9-2-2v-9.2c0-1.1,0.9-2,2-2h6.5c1.1,0,2,0.9,2,2v9.2
		C312.4,264.4,311.5,265.3,310.4,265.3z"/>
	<path class="st1" d="M324.9,265.3h-6.5c-1.1,0-2-0.9-2-2v-9.2c0-1.1,0.9-2,2-2h6.5c1.1,0,2,0.9,2,2v9.2
		C326.9,264.4,326,265.3,324.9,265.3z"/>
	<path class="st1" d="M339.4,265.3h-6.5c-1.1,0-2-0.9-2-2v-9.2c0-1.1,0.9-2,2-2h6.5c1.1,0,2,0.9,2,2v9.2
		C341.4,264.4,340.5,265.3,339.4,265.3z"/>
	<path class="st1" d="M353.9,265.3h-6.5c-1.1,0-2-0.9-2-2v-9.2c0-1.1,0.9-2,2-2h6.5c1.1,0,2,0.9,2,2v9.2
		C355.9,264.4,355,265.3,353.9,265.3z"/>
	<path class="st1" d="M208.8,286.4h-6.5c-1.1,0-2-0.9-2-2v-9.2c0-1.1,0.9-2,2-2h6.5c1.1,0,2,0.9,2,2v9.2
		C210.8,285.5,209.9,286.4,208.8,286.4z"/>
	<path class="st1" d="M223.3,286.4h-6.5c-1.1,0-2-0.9-2-2v-9.2c0-1.1,0.9-2,2-2h6.5c1.1,0,2,0.9,2,2v9.2
		C225.3,285.5,224.4,286.4,223.3,286.4z"/>
	<path class="st1" d="M237.8,286.4h-6.5c-1.1,0-2-0.9-2-2v-9.2c0-1.1,0.9-2,2-2h6.5c1.1,0,2,0.9,2,2v9.2
		C239.8,285.5,238.9,286.4,237.8,286.4z"/>
	<path class="st1" d="M252.3,286.4h-6.5c-1.1,0-2-0.9-2-2v-9.2c0-1.1,0.9-2,2-2h6.5c1.1,0,2,0.9,2,2v9.2
		C254.3,285.5,253.4,286.4,252.3,286.4z"/>
	<path class="st1" d="M266.8,286.4h-6.5c-1.1,0-2-0.9-2-2v-9.2c0-1.1,0.9-2,2-2h6.5c1.1,0,2,0.9,2,2v9.2
		C268.8,285.5,268,286.4,266.8,286.4z"/>
	<path class="st1" d="M295.9,286.4h-6.5c-1.1,0-2-0.9-2-2v-9.2c0-1.1,0.9-2,2-2h6.5c1.1,0,2,0.9,2,2v9.2
		C297.9,285.5,297,286.4,295.9,286.4z"/>
	<path class="st1" d="M310.4,286.4h-6.5c-1.1,0-2-0.9-2-2v-9.2c0-1.1,0.9-2,2-2h6.5c1.1,0,2,0.9,2,2v9.2
		C312.4,285.5,311.5,286.4,310.4,286.4z"/>
	<path class="st1" d="M324.9,286.4h-6.5c-1.1,0-2-0.9-2-2v-9.2c0-1.1,0.9-2,2-2h6.5c1.1,0,2,0.9,2,2v9.2
		C326.9,285.5,326,286.4,324.9,286.4z"/>
	<path class="st1" d="M339.4,286.4h-6.5c-1.1,0-2-0.9-2-2v-9.2c0-1.1,0.9-2,2-2h6.5c1.1,0,2,0.9,2,2v9.2
		C341.4,285.5,340.5,286.4,339.4,286.4z"/>
	<path class="st1" d="M353.9,286.4h-6.5c-1.1,0-2-0.9-2-2v-9.2c0-1.1,0.9-2,2-2h6.5c1.1,0,2,0.9,2,2v9.2
		C355.9,285.5,355,286.4,353.9,286.4z"/>
	<path class="st1" d="M208.8,307.5h-6.5c-1.1,0-2-0.9-2-2v-9.2c0-1.1,0.9-2,2-2h6.5c1.1,0,2,0.9,2,2v9.2
		C210.8,306.6,209.9,307.5,208.8,307.5z"/>
	<path class="st1" d="M223.3,307.5h-6.5c-1.1,0-2-0.9-2-2v-9.2c0-1.1,0.9-2,2-2h6.5c1.1,0,2,0.9,2,2v9.2
		C225.3,306.6,224.4,307.5,223.3,307.5z"/>
	<path class="st1" d="M237.8,307.5h-6.5c-1.1,0-2-0.9-2-2v-9.2c0-1.1,0.9-2,2-2h6.5c1.1,0,2,0.9,2,2v9.2
		C239.8,306.6,238.9,307.5,237.8,307.5z"/>
	<path class="st1" d="M252.3,307.5h-6.5c-1.1,0-2-0.9-2-2v-9.2c0-1.1,0.9-2,2-2h6.5c1.1,0,2,0.9,2,2v9.2
		C254.3,306.6,253.4,307.5,252.3,307.5z"/>
	<path class="st1" d="M266.8,307.5h-6.5c-1.1,0-2-0.9-2-2v-9.2c0-1.1,0.9-2,2-2h6.5c1.1,0,2,0.9,2,2v9.2
		C268.8,306.6,268,307.5,266.8,307.5z"/>
	<path class="st1" d="M295.9,307.5h-6.5c-1.1,0-2-0.9-2-2v-9.2c0-1.1,0.9-2,2-2h6.5c1.1,0,2,0.9,2,2v9.2
		C297.9,306.6,297,307.5,295.9,307.5z"/>
	<path class="st1" d="M310.4,307.5h-6.5c-1.1,0-2-0.9-2-2v-9.2c0-1.1,0.9-2,2-2h6.5c1.1,0,2,0.9,2,2v9.2
		C312.4,306.6,311.5,307.5,310.4,307.5z"/>
	<path class="st1" d="M324.9,307.5h-6.5c-1.1,0-2-0.9-2-2v-9.2c0-1.1,0.9-2,2-2h6.5c1.1,0,2,0.9,2,2v9.2
		C326.9,306.6,326,307.5,324.9,307.5z"/>
	<path class="st1" d="M339.4,307.5h-6.5c-1.1,0-2-0.9-2-2v-9.2c0-1.1,0.9-2,2-2h6.5c1.1,0,2,0.9,2,2v9.2
		C341.4,306.6,340.5,307.5,339.4,307.5z"/>
	<path class="st1" d="M353.9,307.5h-6.5c-1.1,0-2-0.9-2-2v-9.2c0-1.1,0.9-2,2-2h6.5c1.1,0,2,0.9,2,2v9.2
		C355.9,306.6,355,307.5,353.9,307.5z"/>
	<path class="st1" d="M208.8,328.6h-6.5c-1.1,0-2-0.9-2-2v-9.2c0-1.1,0.9-2,2-2h6.5c1.1,0,2,0.9,2,2v9.2
		C210.8,327.7,209.9,328.6,208.8,328.6z"/>
	<path class="st1" d="M223.3,328.6h-6.5c-1.1,0-2-0.9-2-2v-9.2c0-1.1,0.9-2,2-2h6.5c1.1,0,2,0.9,2,2v9.2
		C225.3,327.7,224.4,328.6,223.3,328.6z"/>
	<path class="st1" d="M237.8,328.6h-6.5c-1.1,0-2-0.9-2-2v-9.2c0-1.1,0.9-2,2-2h6.5c1.1,0,2,0.9,2,2v9.2
		C239.8,327.7,238.9,328.6,237.8,328.6z"/>
	<path class="st1" d="M252.3,328.6h-6.5c-1.1,0-2-0.9-2-2v-9.2c0-1.1,0.9-2,2-2h6.5c1.1,0,2,0.9,2,2v9.2
		C254.3,327.7,253.4,328.6,252.3,328.6z"/>
	<path class="st1" d="M266.8,328.6h-6.5c-1.1,0-2-0.9-2-2v-9.2c0-1.1,0.9-2,2-2h6.5c1.1,0,2,0.9,2,2v9.2
		C268.8,327.7,268,328.6,266.8,328.6z"/>
	<path class="st1" d="M295.9,328.6h-6.5c-1.1,0-2-0.9-2-2v-9.2c0-1.1,0.9-2,2-2h6.5c1.1,0,2,0.9,2,2v9.2
		C297.9,327.7,297,328.6,295.9,328.6z"/>
	<path class="st1" d="M310.4,328.6h-6.5c-1.1,0-2-0.9-2-2v-9.2c0-1.1,0.9-2,2-2h6.5c1.1,0,2,0.9,2,2v9.2
		C312.4,327.7,311.5,328.6,310.4,328.6z"/>
	<path class="st1" d="M324.9,328.6h-6.5c-1.1,0-2-0.9-2-2v-9.2c0-1.1,0.9-2,2-2h6.5c1.1,0,2,0.9,2,2v9.2
		C326.9,327.7,326,328.6,324.9,328.6z"/>
	<path class="st1" d="M339.4,328.6h-6.5c-1.1,0-2-0.9-2-2v-9.2c0-1.1,0.9-2,2-2h6.5c1.1,0,2,0.9,2,2v9.2
		C341.4,327.7,340.5,328.6,339.4,328.6z"/>
	<path class="st1" d="M353.9,328.6h-6.5c-1.1,0-2-0.9-2-2v-9.2c0-1.1,0.9-2,2-2h6.5c1.1,0,2,0.9,2,2v9.2
		C355.9,327.7,355,328.6,353.9,328.6z"/>
	<path class="st1" d="M208.8,349.7h-6.5c-1.1,0-2-0.9-2-2v-9.2c0-1.1,0.9-2,2-2h6.5c1.1,0,2,0.9,2,2v9.2
		C210.8,348.8,209.9,349.7,208.8,349.7z"/>
	<path class="st1" d="M223.3,349.7h-6.5c-1.1,0-2-0.9-2-2v-9.2c0-1.1,0.9-2,2-2h6.5c1.1,0,2,0.9,2,2v9.2
		C225.3,348.8,224.4,349.7,223.3,349.7z"/>
	<path class="st1" d="M237.8,349.7h-6.5c-1.1,0-2-0.9-2-2v-9.2c0-1.1,0.9-2,2-2h6.5c1.1,0,2,0.9,2,2v9.2
		C239.8,348.8,238.9,349.7,237.8,349.7z"/>
	<path class="st1" d="M252.3,349.7h-6.5c-1.1,0-2-0.9-2-2v-9.2c0-1.1,0.9-2,2-2h6.5c1.1,0,2,0.9,2,2v9.2
		C254.3,348.8,253.4,349.7,252.3,349.7z"/>
	<path class="st1" d="M266.8,349.7h-6.5c-1.1,0-2-0.9-2-2v-9.2c0-1.1,0.9-2,2-2h6.5c1.1,0,2,0.9,2,2v9.2
		C268.8,348.8,268,349.7,266.8,349.7z"/>
	<path class="st1" d="M295.9,349.7h-6.5c-1.1,0-2-0.9-2-2v-9.2c0-1.1,0.9-2,2-2h6.5c1.1,0,2,0.9,2,2v9.2
		C297.9,348.8,297,349.7,295.9,349.7z"/>
	<path class="st1" d="M310.4,349.7h-6.5c-1.1,0-2-0.9-2-2v-9.2c0-1.1,0.9-2,2-2h6.5c1.1,0,2,0.9,2,2v9.2
		C312.4,348.8,311.5,349.7,310.4,349.7z"/>
	<path class="st1" d="M324.9,349.7h-6.5c-1.1,0-2-0.9-2-2v-9.2c0-1.1,0.9-2,2-2h6.5c1.1,0,2,0.9,2,2v9.2
		C326.9,348.8,326,349.7,324.9,349.7z"/>
	<path class="st1" d="M339.4,349.7h-6.5c-1.1,0-2-0.9-2-2v-9.2c0-1.1,0.9-2,2-2h6.5c1.1,0,2,0.9,2,2v9.2
		C341.4,348.8,340.5,349.7,339.4,349.7z"/>
	<path class="st1" d="M353.9,349.7h-6.5c-1.1,0-2-0.9-2-2v-9.2c0-1.1,0.9-2,2-2h6.5c1.1,0,2,0.9,2,2v9.2
		C355.9,348.8,355,349.7,353.9,349.7z"/>
	<path class="st1" d="M208.8,370.8h-6.5c-1.1,0-2-0.9-2-2v-9.2c0-1.1,0.9-2,2-2h6.5c1.1,0,2,0.9,2,2v9.2
		C210.8,369.9,209.9,370.8,208.8,370.8z"/>
	<path class="st1" d="M223.3,370.8h-6.5c-1.1,0-2-0.9-2-2v-9.2c0-1.1,0.9-2,2-2h6.5c1.1,0,2,0.9,2,2v9.2
		C225.3,369.9,224.4,370.8,223.3,370.8z"/>
	<path class="st1" d="M237.8,370.8h-6.5c-1.1,0-2-0.9-2-2v-9.2c0-1.1,0.9-2,2-2h6.5c1.1,0,2,0.9,2,2v9.2
		C239.8,369.9,238.9,370.8,237.8,370.8z"/>
	<path class="st1" d="M252.3,370.8h-6.5c-1.1,0-2-0.9-2-2v-9.2c0-1.1,0.9-2,2-2h6.5c1.1,0,2,0.9,2,2v9.2
		C254.3,369.9,253.4,370.8,252.3,370.8z"/>
	<path class="st1" d="M266.8,370.8h-6.5c-1.1,0-2-0.9-2-2v-9.2c0-1.1,0.9-2,2-2h6.5c1.1,0,2,0.9,2,2v9.2
		C268.8,369.9,268,370.8,266.8,370.8z"/>
	<path class="st1" d="M295.9,370.8h-6.5c-1.1,0-2-0.9-2-2v-9.2c0-1.1,0.9-2,2-2h6.5c1.1,0,2,0.9,2,2v9.2
		C297.9,369.9,297,370.8,295.9,370.8z"/>
	<path class="st1" d="M310.4,370.8h-6.5c-1.1,0-2-0.9-2-2v-9.2c0-1.1,0.9-2,2-2h6.5c1.1,0,2,0.9,2,2v9.2
		C312.4,369.9,311.5,370.8,310.4,370.8z"/>
	<path class="st1" d="M324.9,370.8h-6.5c-1.1,0-2-0.9-2-2v-9.2c0-1.1,0.9-2,2-2h6.5c1.1,0,2,0.9,2,2v9.2
		C326.9,369.9,326,370.8,324.9,370.8z"/>
	<path class="st1" d="M339.4,370.8h-6.5c-1.1,0-2-0.9-2-2v-9.2c0-1.1,0.9-2,2-2h6.5c1.1,0,2,0.9,2,2v9.2
		C341.4,369.9,340.5,370.8,339.4,370.8z"/>
	<path class="st1" d="M353.9,370.8h-6.5c-1.1,0-2-0.9-2-2v-9.2c0-1.1,0.9-2,2-2h6.5c1.1,0,2,0.9,2,2v9.2
		C355.9,369.9,355,370.8,353.9,370.8z"/>
	<path class="st1" d="M208.8,434.1h-6.5c-1.1,0-2-0.9-2-2v-9.2c0-1.1,0.9-2,2-2h6.5c1.1,0,2,0.9,2,2v9.2
		C210.8,433.2,209.9,434.1,208.8,434.1z"/>
	<path class="st1" d="M223.3,434.1h-6.5c-1.1,0-2-0.9-2-2v-9.2c0-1.1,0.9-2,2-2h6.5c1.1,0,2,0.9,2,2v9.2
		C225.3,433.2,224.4,434.1,223.3,434.1z"/>
	<path class="st1" d="M295.9,434.1h-6.5c-1.1,0-2-0.9-2-2v-9.2c0-1.1,0.9-2,2-2h6.5c1.1,0,2,0.9,2,2v9.2
		C297.9,433.2,297,434.1,295.9,434.1z"/>
	<path class="st1" d="M310.4,434.1h-6.5c-1.1,0-2-0.9-2-2v-9.2c0-1.1,0.9-2,2-2h6.5c1.1,0,2,0.9,2,2v9.2
		C312.4,433.2,311.5,434.1,310.4,434.1z"/>
	<path class="st1" d="M368.4,180.9h-6.5c-1.1,0-2-0.9-2-2v-9.2c0-1.1,0.9-2,2-2h6.5c1.1,0,2,0.9,2,2v9.2
		C370.4,180,369.5,180.9,368.4,180.9z"/>
	<path class="st1" d="M368.4,202h-6.5c-1.1,0-2-0.9-2-2v-9.2c0-1.1,0.9-2,2-2h6.5c1.1,0,2,0.9,2,2v9.2
		C370.4,201.1,369.5,202,368.4,202z"/>
	<path class="st1" d="M368.4,223.1h-6.5c-1.1,0-2-0.9-2-2v-9.2c0-1.1,0.9-2,2-2h6.5c1.1,0,2,0.9,2,2v9.2
		C370.4,222.2,369.5,223.1,368.4,223.1z"/>
	<path class="st1" d="M368.4,244.2h-6.5c-1.1,0-2-0.9-2-2V233c0-1.1,0.9-2,2-2h6.5c1.1,0,2,0.9,2,2v9.2
		C370.4,243.3,369.5,244.2,368.4,244.2z"/>
	<path class="st1" d="M368.4,265.3h-6.5c-1.1,0-2-0.9-2-2v-9.2c0-1.1,0.9-2,2-2h6.5c1.1,0,2,0.9,2,2v9.2
		C370.4,264.4,369.5,265.3,368.4,265.3z"/>
	<path class="st1" d="M368.4,286.4h-6.5c-1.1,0-2-0.9-2-2v-9.2c0-1.1,0.9-2,2-2h6.5c1.1,0,2,0.9,2,2v9.2
		C370.4,285.5,369.5,286.4,368.4,286.4z"/>
	<path class="st1" d="M368.4,307.5h-6.5c-1.1,0-2-0.9-2-2v-9.2c0-1.1,0.9-2,2-2h6.5c1.1,0,2,0.9,2,2v9.2
		C370.4,306.6,369.5,307.5,368.4,307.5z"/>
	<path class="st1" d="M368.4,328.6h-6.5c-1.1,0-2-0.9-2-2v-9.2c0-1.1,0.9-2,2-2h6.5c1.1,0,2,0.9,2,2v9.2
		C370.4,327.7,369.5,328.6,368.4,328.6z"/>
	<path class="st1" d="M368.4,349.7h-6.5c-1.1,0-2-0.9-2-2v-9.2c0-1.1,0.9-2,2-2h6.5c1.1,0,2,0.9,2,2v9.2
		C370.4,348.8,369.5,349.7,368.4,349.7z"/>
	<path class="st1" d="M368.4,370.8h-6.5c-1.1,0-2-0.9-2-2v-9.2c0-1.1,0.9-2,2-2h6.5c1.1,0,2,0.9,2,2v9.2
		C370.4,369.9,369.5,370.8,368.4,370.8z"/>
	<path class="st1" d="M63.8,138.7h-6.5c-1.1,0-2-0.9-2-2v-9.2c0-1.1,0.9-2,2-2h6.5c1.1,0,2,0.9,2,2v9.2
		C65.8,137.8,64.9,138.7,63.8,138.7z"/>
	<path class="st1" d="M78.3,138.7h-6.5c-1.1,0-2-0.9-2-2v-9.2c0-1.1,0.9-2,2-2h6.5c1.1,0,2,0.9,2,2v9.2
		C80.3,137.8,79.4,138.7,78.3,138.7z"/>
	<path class="st1" d="M92.8,138.7h-6.5c-1.1,0-2-0.9-2-2v-9.2c0-1.1,0.9-2,2-2h6.5c1.1,0,2,0.9,2,2v9.2
		C94.8,137.8,93.9,138.7,92.8,138.7z"/>
	<path class="st1" d="M107.3,138.7h-6.5c-1.1,0-2-0.9-2-2v-9.2c0-1.1,0.9-2,2-2h6.5c1.1,0,2,0.9,2,2v9.2
		C109.3,137.8,108.4,138.7,107.3,138.7z"/>
	<path class="st1" d="M136.3,138.7h-6.5c-1.1,0-2-0.9-2-2v-9.2c0-1.1,0.9-2,2-2h6.5c1.1,0,2,0.9,2,2v9.2
		C138.3,137.8,137.4,138.7,136.3,138.7z"/>
	<path class="st1" d="M150.8,138.7h-6.5c-1.1,0-2-0.9-2-2v-9.2c0-1.1,0.9-2,2-2h6.5c1.1,0,2,0.9,2,2v9.2
		C152.8,137.8,151.9,138.7,150.8,138.7z"/>
	<path class="st1" d="M165.3,138.7h-6.5c-1.1,0-2-0.9-2-2v-9.2c0-1.1,0.9-2,2-2h6.5c1.1,0,2,0.9,2,2v9.2
		C167.3,137.8,166.4,138.7,165.3,138.7z"/>
	<path class="st1" d="M179.8,138.7h-6.5c-1.1,0-2-0.9-2-2v-9.2c0-1.1,0.9-2,2-2h6.5c1.1,0,2,0.9,2,2v9.2
		C181.8,137.8,180.9,138.7,179.8,138.7z"/>
	<path class="st1" d="M194.3,138.7h-6.5c-1.1,0-2-0.9-2-2v-9.2c0-1.1,0.9-2,2-2h6.5c1.1,0,2,0.9,2,2v9.2
		C196.3,137.8,195.4,138.7,194.3,138.7z"/>
	<path class="st1" d="M63.8,159.8h-6.5c-1.1,0-2-0.9-2-2v-9.2c0-1.1,0.9-2,2-2h6.5c1.1,0,2,0.9,2,2v9.2
		C65.8,158.9,64.9,159.8,63.8,159.8z"/>
	<path class="st1" d="M78.3,159.8h-6.5c-1.1,0-2-0.9-2-2v-9.2c0-1.1,0.9-2,2-2h6.5c1.1,0,2,0.9,2,2v9.2
		C80.3,158.9,79.4,159.8,78.3,159.8z"/>
	<path class="st1" d="M92.8,159.8h-6.5c-1.1,0-2-0.9-2-2v-9.2c0-1.1,0.9-2,2-2h6.5c1.1,0,2,0.9,2,2v9.2
		C94.8,158.9,93.9,159.8,92.8,159.8z"/>
	<path class="st1" d="M107.3,159.8h-6.5c-1.1,0-2-0.9-2-2v-9.2c0-1.1,0.9-2,2-2h6.5c1.1,0,2,0.9,2,2v9.2
		C109.3,158.9,108.4,159.8,107.3,159.8z"/>
	<path class="st1" d="M136.3,159.8h-6.5c-1.1,0-2-0.9-2-2v-9.2c0-1.1,0.9-2,2-2h6.5c1.1,0,2,0.9,2,2v9.2
		C138.3,158.9,137.4,159.8,136.3,159.8z"/>
	<path class="st1" d="M150.8,159.8h-6.5c-1.1,0-2-0.9-2-2v-9.2c0-1.1,0.9-2,2-2h6.5c1.1,0,2,0.9,2,2v9.2
		C152.8,158.9,151.9,159.8,150.8,159.8z"/>
	<path class="st1" d="M165.3,159.8h-6.5c-1.1,0-2-0.9-2-2v-9.2c0-1.1,0.9-2,2-2h6.5c1.1,0,2,0.9,2,2v9.2
		C167.3,158.9,166.4,159.8,165.3,159.8z"/>
	<path class="st1" d="M179.8,159.8h-6.5c-1.1,0-2-0.9-2-2v-9.2c0-1.1,0.9-2,2-2h6.5c1.1,0,2,0.9,2,2v9.2
		C181.8,158.9,180.9,159.8,179.8,159.8z"/>
	<path class="st1" d="M194.3,159.8h-6.5c-1.1,0-2-0.9-2-2v-9.2c0-1.1,0.9-2,2-2h6.5c1.1,0,2,0.9,2,2v9.2
		C196.3,158.9,195.4,159.8,194.3,159.8z"/>
	<path class="st1" d="M49.3,180.9h-6.5c-1.1,0-2-0.9-2-2v-9.2c0-1.1,0.9-2,2-2h6.5c1.1,0,2,0.9,2,2v9.2
		C51.3,180,50.4,180.9,49.3,180.9z"/>
	<path class="st1" d="M63.8,180.9h-6.5c-1.1,0-2-0.9-2-2v-9.2c0-1.1,0.9-2,2-2h6.5c1.1,0,2,0.9,2,2v9.2
		C65.8,180,64.9,180.9,63.8,180.9z"/>
	<path class="st1" d="M78.3,180.9h-6.5c-1.1,0-2-0.9-2-2v-9.2c0-1.1,0.9-2,2-2h6.5c1.1,0,2,0.9,2,2v9.2
		C80.3,180,79.4,180.9,78.3,180.9z"/>
	<path class="st1" d="M92.8,180.9h-6.5c-1.1,0-2-0.9-2-2v-9.2c0-1.1,0.9-2,2-2h6.5c1.1,0,2,0.9,2,2v9.2
		C94.8,180,93.9,180.9,92.8,180.9z"/>
	<path class="st1" d="M107.3,180.9h-6.5c-1.1,0-2-0.9-2-2v-9.2c0-1.1,0.9-2,2-2h6.5c1.1,0,2,0.9,2,2v9.2
		C109.3,180,108.4,180.9,107.3,180.9z"/>
	<path class="st1" d="M136.3,180.9h-6.5c-1.1,0-2-0.9-2-2v-9.2c0-1.1,0.9-2,2-2h6.5c1.1,0,2,0.9,2,2v9.2
		C138.3,180,137.4,180.9,136.3,180.9z"/>
	<path class="st1" d="M150.8,180.9h-6.5c-1.1,0-2-0.9-2-2v-9.2c0-1.1,0.9-2,2-2h6.5c1.1,0,2,0.9,2,2v9.2
		C152.8,180,151.9,180.9,150.8,180.9z"/>
	<path class="st1" d="M165.3,180.9h-6.5c-1.1,0-2-0.9-2-2v-9.2c0-1.1,0.9-2,2-2h6.5c1.1,0,2,0.9,2,2v9.2
		C167.3,180,166.4,180.9,165.3,180.9z"/>
	<path class="st1" d="M179.8,180.9h-6.5c-1.1,0-2-0.9-2-2v-9.2c0-1.1,0.9-2,2-2h6.5c1.1,0,2,0.9,2,2v9.2
		C181.8,180,180.9,180.9,179.8,180.9z"/>
	<path class="st1" d="M194.3,180.9h-6.5c-1.1,0-2-0.9-2-2v-9.2c0-1.1,0.9-2,2-2h6.5c1.1,0,2,0.9,2,2v9.2
		C196.3,180,195.4,180.9,194.3,180.9z"/>
	<path class="st1" d="M49.3,202h-6.5c-1.1,0-2-0.9-2-2v-9.2c0-1.1,0.9-2,2-2h6.5c1.1,0,2,0.9,2,2v9.2C51.3,201.1,50.4,202,49.3,202z
		"/>
	<path class="st1" d="M63.8,202h-6.5c-1.1,0-2-0.9-2-2v-9.2c0-1.1,0.9-2,2-2h6.5c1.1,0,2,0.9,2,2v9.2C65.8,201.1,64.9,202,63.8,202z
		"/>
	<path class="st1" d="M78.3,202h-6.5c-1.1,0-2-0.9-2-2v-9.2c0-1.1,0.9-2,2-2h6.5c1.1,0,2,0.9,2,2v9.2C80.3,201.1,79.4,202,78.3,202z
		"/>
	<path class="st1" d="M92.8,202h-6.5c-1.1,0-2-0.9-2-2v-9.2c0-1.1,0.9-2,2-2h6.5c1.1,0,2,0.9,2,2v9.2C94.8,201.1,93.9,202,92.8,202z
		"/>
	<path class="st1" d="M107.3,202h-6.5c-1.1,0-2-0.9-2-2v-9.2c0-1.1,0.9-2,2-2h6.5c1.1,0,2,0.9,2,2v9.2
		C109.3,201.1,108.4,202,107.3,202z"/>
	<path class="st1" d="M136.3,202h-6.5c-1.1,0-2-0.9-2-2v-9.2c0-1.1,0.9-2,2-2h6.5c1.1,0,2,0.9,2,2v9.2
		C138.3,201.1,137.4,202,136.3,202z"/>
	<path class="st1" d="M150.8,202h-6.5c-1.1,0-2-0.9-2-2v-9.2c0-1.1,0.9-2,2-2h6.5c1.1,0,2,0.9,2,2v9.2
		C152.8,201.1,151.9,202,150.8,202z"/>
	<path class="st1" d="M165.3,202h-6.5c-1.1,0-2-0.9-2-2v-9.2c0-1.1,0.9-2,2-2h6.5c1.1,0,2,0.9,2,2v9.2
		C167.3,201.1,166.4,202,165.3,202z"/>
	<path class="st1" d="M179.8,202h-6.5c-1.1,0-2-0.9-2-2v-9.2c0-1.1,0.9-2,2-2h6.5c1.1,0,2,0.9,2,2v9.2
		C181.8,201.1,180.9,202,179.8,202z"/>
	<path class="st1" d="M194.3,202h-6.5c-1.1,0-2-0.9-2-2v-9.2c0-1.1,0.9-2,2-2h6.5c1.1,0,2,0.9,2,2v9.2
		C196.3,201.1,195.4,202,194.3,202z"/>
	<path class="st1" d="M49.3,223.1h-6.5c-1.1,0-2-0.9-2-2v-9.2c0-1.1,0.9-2,2-2h6.5c1.1,0,2,0.9,2,2v9.2
		C51.3,222.2,50.4,223.1,49.3,223.1z"/>
	<path class="st1" d="M34.8,223.1h-6.5c-1.1,0-2-0.9-2-2v-9.2c0-1.1,0.9-2,2-2h6.5c1.1,0,2,0.9,2,2v9.2
		C36.8,222.2,35.9,223.1,34.8,223.1z"/>
	<path class="st1" d="M63.8,223.1h-6.5c-1.1,0-2-0.9-2-2v-9.2c0-1.1,0.9-2,2-2h6.5c1.1,0,2,0.9,2,2v9.2
		C65.8,222.2,64.9,223.1,63.8,223.1z"/>
	<path class="st1" d="M78.3,223.1h-6.5c-1.1,0-2-0.9-2-2v-9.2c0-1.1,0.9-2,2-2h6.5c1.1,0,2,0.9,2,2v9.2
		C80.3,222.2,79.4,223.1,78.3,223.1z"/>
	<path class="st1" d="M92.8,223.1h-6.5c-1.1,0-2-0.9-2-2v-9.2c0-1.1,0.9-2,2-2h6.5c1.1,0,2,0.9,2,2v9.2
		C94.8,222.2,93.9,223.1,92.8,223.1z"/>
	<path class="st1" d="M107.3,223.1h-6.5c-1.1,0-2-0.9-2-2v-9.2c0-1.1,0.9-2,2-2h6.5c1.1,0,2,0.9,2,2v9.2
		C109.3,222.2,108.4,223.1,107.3,223.1z"/>
	<path class="st1" d="M136.3,223.1h-6.5c-1.1,0-2-0.9-2-2v-9.2c0-1.1,0.9-2,2-2h6.5c1.1,0,2,0.9,2,2v9.2
		C138.3,222.2,137.4,223.1,136.3,223.1z"/>
	<path class="st1" d="M150.8,223.1h-6.5c-1.1,0-2-0.9-2-2v-9.2c0-1.1,0.9-2,2-2h6.5c1.1,0,2,0.9,2,2v9.2
		C152.8,222.2,151.9,223.1,150.8,223.1z"/>
	<path class="st1" d="M165.3,223.1h-6.5c-1.1,0-2-0.9-2-2v-9.2c0-1.1,0.9-2,2-2h6.5c1.1,0,2,0.9,2,2v9.2
		C167.3,222.2,166.4,223.1,165.3,223.1z"/>
	<path class="st1" d="M179.8,223.1h-6.5c-1.1,0-2-0.9-2-2v-9.2c0-1.1,0.9-2,2-2h6.5c1.1,0,2,0.9,2,2v9.2
		C181.8,222.2,180.9,223.1,179.8,223.1z"/>
	<path class="st1" d="M194.3,223.1h-6.5c-1.1,0-2-0.9-2-2v-9.2c0-1.1,0.9-2,2-2h6.5c1.1,0,2,0.9,2,2v9.2
		C196.3,222.2,195.4,223.1,194.3,223.1z"/>
	<path class="st1" d="M49.3,244.2h-6.5c-1.1,0-2-0.9-2-2V233c0-1.1,0.9-2,2-2h6.5c1.1,0,2,0.9,2,2v9.2
		C51.3,243.3,50.4,244.2,49.3,244.2z"/>
	<path class="st1" d="M63.8,244.2h-6.5c-1.1,0-2-0.9-2-2V233c0-1.1,0.9-2,2-2h6.5c1.1,0,2,0.9,2,2v9.2
		C65.8,243.3,64.9,244.2,63.8,244.2z"/>
	<path class="st1" d="M78.3,244.2h-6.5c-1.1,0-2-0.9-2-2V233c0-1.1,0.9-2,2-2h6.5c1.1,0,2,0.9,2,2v9.2
		C80.3,243.3,79.4,244.2,78.3,244.2z"/>
	<path class="st1" d="M92.8,244.2h-6.5c-1.1,0-2-0.9-2-2V233c0-1.1,0.9-2,2-2h6.5c1.1,0,2,0.9,2,2v9.2
		C94.8,243.3,93.9,244.2,92.8,244.2z"/>
	<path class="st1" d="M107.3,244.2h-6.5c-1.1,0-2-0.9-2-2V233c0-1.1,0.9-2,2-2h6.5c1.1,0,2,0.9,2,2v9.2
		C109.3,243.3,108.4,244.2,107.3,244.2z"/>
	<path class="st1" d="M136.3,244.2h-6.5c-1.1,0-2-0.9-2-2V233c0-1.1,0.9-2,2-2h6.5c1.1,0,2,0.9,2,2v9.2
		C138.3,243.3,137.4,244.2,136.3,244.2z"/>
	<path class="st1" d="M150.8,244.2h-6.5c-1.1,0-2-0.9-2-2V233c0-1.1,0.9-2,2-2h6.5c1.1,0,2,0.9,2,2v9.2
		C152.8,243.3,151.9,244.2,150.8,244.2z"/>
	<path class="st1" d="M165.3,244.2h-6.5c-1.1,0-2-0.9-2-2V233c0-1.1,0.9-2,2-2h6.5c1.1,0,2,0.9,2,2v9.2
		C167.3,243.3,166.4,244.2,165.3,244.2z"/>
	<path class="st1" d="M179.8,244.2h-6.5c-1.1,0-2-0.9-2-2V233c0-1.1,0.9-2,2-2h6.5c1.1,0,2,0.9,2,2v9.2
		C181.8,243.3,180.9,244.2,179.8,244.2z"/>
	<path class="st1" d="M194.3,244.2h-6.5c-1.1,0-2-0.9-2-2V233c0-1.1,0.9-2,2-2h6.5c1.1,0,2,0.9,2,2v9.2
		C196.3,243.3,195.4,244.2,194.3,244.2z"/>
	<path class="st1" d="M49.3,265.3h-6.5c-1.1,0-2-0.9-2-2v-9.2c0-1.1,0.9-2,2-2h6.5c1.1,0,2,0.9,2,2v9.2
		C51.3,264.4,50.4,265.3,49.3,265.3z"/>
	<path class="st1" d="M63.8,265.3h-6.5c-1.1,0-2-0.9-2-2v-9.2c0-1.1,0.9-2,2-2h6.5c1.1,0,2,0.9,2,2v9.2
		C65.8,264.4,64.9,265.3,63.8,265.3z"/>
	<path class="st1" d="M78.3,265.3h-6.5c-1.1,0-2-0.9-2-2v-9.2c0-1.1,0.9-2,2-2h6.5c1.1,0,2,0.9,2,2v9.2
		C80.3,264.4,79.4,265.3,78.3,265.3z"/>
	<path class="st1" d="M92.8,265.3h-6.5c-1.1,0-2-0.9-2-2v-9.2c0-1.1,0.9-2,2-2h6.5c1.1,0,2,0.9,2,2v9.2
		C94.8,264.4,93.9,265.3,92.8,265.3z"/>
	<path class="st1" d="M107.3,265.3h-6.5c-1.1,0-2-0.9-2-2v-9.2c0-1.1,0.9-2,2-2h6.5c1.1,0,2,0.9,2,2v9.2
		C109.3,264.4,108.4,265.3,107.3,265.3z"/>
	<path class="st1" d="M136.3,265.3h-6.5c-1.1,0-2-0.9-2-2v-9.2c0-1.1,0.9-2,2-2h6.5c1.1,0,2,0.9,2,2v9.2
		C138.3,264.4,137.4,265.3,136.3,265.3z"/>
	<path class="st1" d="M150.8,265.3h-6.5c-1.1,0-2-0.9-2-2v-9.2c0-1.1,0.9-2,2-2h6.5c1.1,0,2,0.9,2,2v9.2
		C152.8,264.4,151.9,265.3,150.8,265.3z"/>
	<path class="st1" d="M165.3,265.3h-6.5c-1.1,0-2-0.9-2-2v-9.2c0-1.1,0.9-2,2-2h6.5c1.1,0,2,0.9,2,2v9.2
		C167.3,264.4,166.4,265.3,165.3,265.3z"/>
	<path class="st1" d="M179.8,265.3h-6.5c-1.1,0-2-0.9-2-2v-9.2c0-1.1,0.9-2,2-2h6.5c1.1,0,2,0.9,2,2v9.2
		C181.8,264.4,180.9,265.3,179.8,265.3z"/>
	<path class="st1" d="M194.3,265.3h-6.5c-1.1,0-2-0.9-2-2v-9.2c0-1.1,0.9-2,2-2h6.5c1.1,0,2,0.9,2,2v9.2
		C196.3,264.4,195.4,265.3,194.3,265.3z"/>
	<path class="st1" d="M49.3,286.4h-6.5c-1.1,0-2-0.9-2-2v-9.2c0-1.1,0.9-2,2-2h6.5c1.1,0,2,0.9,2,2v9.2
		C51.3,285.5,50.4,286.4,49.3,286.4z"/>
	<path class="st1" d="M63.8,286.4h-6.5c-1.1,0-2-0.9-2-2v-9.2c0-1.1,0.9-2,2-2h6.5c1.1,0,2,0.9,2,2v9.2
		C65.8,285.5,64.9,286.4,63.8,286.4z"/>
	<path class="st1" d="M78.3,286.4h-6.5c-1.1,0-2-0.9-2-2v-9.2c0-1.1,0.9-2,2-2h6.5c1.1,0,2,0.9,2,2v9.2
		C80.3,285.5,79.4,286.4,78.3,286.4z"/>
	<path class="st1" d="M92.8,286.4h-6.5c-1.1,0-2-0.9-2-2v-9.2c0-1.1,0.9-2,2-2h6.5c1.1,0,2,0.9,2,2v9.2
		C94.8,285.5,93.9,286.4,92.8,286.4z"/>
	<path class="st1" d="M107.3,286.4h-6.5c-1.1,0-2-0.9-2-2v-9.2c0-1.1,0.9-2,2-2h6.5c1.1,0,2,0.9,2,2v9.2
		C109.3,285.5,108.4,286.4,107.3,286.4z"/>
	<path class="st1" d="M136.3,286.4h-6.5c-1.1,0-2-0.9-2-2v-9.2c0-1.1,0.9-2,2-2h6.5c1.1,0,2,0.9,2,2v9.2
		C138.3,285.5,137.4,286.4,136.3,286.4z"/>
	<path class="st1" d="M150.8,286.4h-6.5c-1.1,0-2-0.9-2-2v-9.2c0-1.1,0.9-2,2-2h6.5c1.1,0,2,0.9,2,2v9.2
		C152.8,285.5,151.9,286.4,150.8,286.4z"/>
	<path class="st1" d="M165.3,286.4h-6.5c-1.1,0-2-0.9-2-2v-9.2c0-1.1,0.9-2,2-2h6.5c1.1,0,2,0.9,2,2v9.2
		C167.3,285.5,166.4,286.4,165.3,286.4z"/>
	<path class="st1" d="M179.8,286.4h-6.5c-1.1,0-2-0.9-2-2v-9.2c0-1.1,0.9-2,2-2h6.5c1.1,0,2,0.9,2,2v9.2
		C181.8,285.5,180.9,286.4,179.8,286.4z"/>
	<path class="st1" d="M194.3,286.4h-6.5c-1.1,0-2-0.9-2-2v-9.2c0-1.1,0.9-2,2-2h6.5c1.1,0,2,0.9,2,2v9.2
		C196.3,285.5,195.4,286.4,194.3,286.4z"/>
	<path class="st1" d="M49.3,307.5h-6.5c-1.1,0-2-0.9-2-2v-9.2c0-1.1,0.9-2,2-2h6.5c1.1,0,2,0.9,2,2v9.2
		C51.3,306.6,50.4,307.5,49.3,307.5z"/>
	<path class="st1" d="M63.8,307.5h-6.5c-1.1,0-2-0.9-2-2v-9.2c0-1.1,0.9-2,2-2h6.5c1.1,0,2,0.9,2,2v9.2
		C65.8,306.6,64.9,307.5,63.8,307.5z"/>
	<path class="st1" d="M78.3,307.5h-6.5c-1.1,0-2-0.9-2-2v-9.2c0-1.1,0.9-2,2-2h6.5c1.1,0,2,0.9,2,2v9.2
		C80.3,306.6,79.4,307.5,78.3,307.5z"/>
	<path class="st1" d="M92.8,307.5h-6.5c-1.1,0-2-0.9-2-2v-9.2c0-1.1,0.9-2,2-2h6.5c1.1,0,2,0.9,2,2v9.2
		C94.8,306.6,93.9,307.5,92.8,307.5z"/>
	<path class="st1" d="M107.3,307.5h-6.5c-1.1,0-2-0.9-2-2v-9.2c0-1.1,0.9-2,2-2h6.5c1.1,0,2,0.9,2,2v9.2
		C109.3,306.6,108.4,307.5,107.3,307.5z"/>
	<path class="st1" d="M136.3,307.5h-6.5c-1.1,0-2-0.9-2-2v-9.2c0-1.1,0.9-2,2-2h6.5c1.1,0,2,0.9,2,2v9.2
		C138.3,306.6,137.4,307.5,136.3,307.5z"/>
	<path class="st1" d="M150.8,307.5h-6.5c-1.1,0-2-0.9-2-2v-9.2c0-1.1,0.9-2,2-2h6.5c1.1,0,2,0.9,2,2v9.2
		C152.8,306.6,151.9,307.5,150.8,307.5z"/>
	<path class="st1" d="M165.3,307.5h-6.5c-1.1,0-2-0.9-2-2v-9.2c0-1.1,0.9-2,2-2h6.5c1.1,0,2,0.9,2,2v9.2
		C167.3,306.6,166.4,307.5,165.3,307.5z"/>
	<path class="st1" d="M179.8,307.5h-6.5c-1.1,0-2-0.9-2-2v-9.2c0-1.1,0.9-2,2-2h6.5c1.1,0,2,0.9,2,2v9.2
		C181.8,306.6,180.9,307.5,179.8,307.5z"/>
	<path class="st1" d="M194.3,307.5h-6.5c-1.1,0-2-0.9-2-2v-9.2c0-1.1,0.9-2,2-2h6.5c1.1,0,2,0.9,2,2v9.2
		C196.3,306.6,195.4,307.5,194.3,307.5z"/>
	<path class="st1" d="M49.3,328.6h-6.5c-1.1,0-2-0.9-2-2v-9.2c0-1.1,0.9-2,2-2h6.5c1.1,0,2,0.9,2,2v9.2
		C51.3,327.7,50.4,328.6,49.3,328.6z"/>
	<path class="st1" d="M63.8,328.6h-6.5c-1.1,0-2-0.9-2-2v-9.2c0-1.1,0.9-2,2-2h6.5c1.1,0,2,0.9,2,2v9.2
		C65.8,327.7,64.9,328.6,63.8,328.6z"/>
	<path class="st1" d="M78.3,328.6h-6.5c-1.1,0-2-0.9-2-2v-9.2c0-1.1,0.9-2,2-2h6.5c1.1,0,2,0.9,2,2v9.2
		C80.3,327.7,79.4,328.6,78.3,328.6z"/>
	<path class="st1" d="M92.8,328.6h-6.5c-1.1,0-2-0.9-2-2v-9.2c0-1.1,0.9-2,2-2h6.5c1.1,0,2,0.9,2,2v9.2
		C94.8,327.7,93.9,328.6,92.8,328.6z"/>
	<path class="st1" d="M107.3,328.6h-6.5c-1.1,0-2-0.9-2-2v-9.2c0-1.1,0.9-2,2-2h6.5c1.1,0,2,0.9,2,2v9.2
		C109.3,327.7,108.4,328.6,107.3,328.6z"/>
	<path class="st1" d="M136.3,328.6h-6.5c-1.1,0-2-0.9-2-2v-9.2c0-1.1,0.9-2,2-2h6.5c1.1,0,2,0.9,2,2v9.2
		C138.3,327.7,137.4,328.6,136.3,328.6z"/>
	<path class="st1" d="M150.8,328.6h-6.5c-1.1,0-2-0.9-2-2v-9.2c0-1.1,0.9-2,2-2h6.5c1.1,0,2,0.9,2,2v9.2
		C152.8,327.7,151.9,328.6,150.8,328.6z"/>
	<path class="st1" d="M165.3,328.6h-6.5c-1.1,0-2-0.9-2-2v-9.2c0-1.1,0.9-2,2-2h6.5c1.1,0,2,0.9,2,2v9.2
		C167.3,327.7,166.4,328.6,165.3,328.6z"/>
	<path class="st1" d="M179.8,328.6h-6.5c-1.1,0-2-0.9-2-2v-9.2c0-1.1,0.9-2,2-2h6.5c1.1,0,2,0.9,2,2v9.2
		C181.8,327.7,180.9,328.6,179.8,328.6z"/>
	<path class="st1" d="M194.3,328.6h-6.5c-1.1,0-2-0.9-2-2v-9.2c0-1.1,0.9-2,2-2h6.5c1.1,0,2,0.9,2,2v9.2
		C196.3,327.7,195.4,328.6,194.3,328.6z"/>
	<path class="st1" d="M49.3,349.7h-6.5c-1.1,0-2-0.9-2-2v-9.2c0-1.1,0.9-2,2-2h6.5c1.1,0,2,0.9,2,2v9.2
		C51.3,348.8,50.4,349.7,49.3,349.7z"/>
	<path class="st1" d="M63.8,349.7h-6.5c-1.1,0-2-0.9-2-2v-9.2c0-1.1,0.9-2,2-2h6.5c1.1,0,2,0.9,2,2v9.2
		C65.8,348.8,64.9,349.7,63.8,349.7z"/>
	<path class="st1" d="M78.3,349.7h-6.5c-1.1,0-2-0.9-2-2v-9.2c0-1.1,0.9-2,2-2h6.5c1.1,0,2,0.9,2,2v9.2
		C80.3,348.8,79.4,349.7,78.3,349.7z"/>
	<path class="st1" d="M92.8,349.7h-6.5c-1.1,0-2-0.9-2-2v-9.2c0-1.1,0.9-2,2-2h6.5c1.1,0,2,0.9,2,2v9.2
		C94.8,348.8,93.9,349.7,92.8,349.7z"/>
	<path class="st1" d="M107.3,349.7h-6.5c-1.1,0-2-0.9-2-2v-9.2c0-1.1,0.9-2,2-2h6.5c1.1,0,2,0.9,2,2v9.2
		C109.3,348.8,108.4,349.7,107.3,349.7z"/>
	<path class="st1" d="M136.3,349.7h-6.5c-1.1,0-2-0.9-2-2v-9.2c0-1.1,0.9-2,2-2h6.5c1.1,0,2,0.9,2,2v9.2
		C138.3,348.8,137.4,349.7,136.3,349.7z"/>
	<path class="st1" d="M150.8,349.7h-6.5c-1.1,0-2-0.9-2-2v-9.2c0-1.1,0.9-2,2-2h6.5c1.1,0,2,0.9,2,2v9.2
		C152.8,348.8,151.9,349.7,150.8,349.7z"/>
	<path class="st1" d="M165.3,349.7h-6.5c-1.1,0-2-0.9-2-2v-9.2c0-1.1,0.9-2,2-2h6.5c1.1,0,2,0.9,2,2v9.2
		C167.3,348.8,166.4,349.7,165.3,349.7z"/>
	<path class="st1" d="M179.8,349.7h-6.5c-1.1,0-2-0.9-2-2v-9.2c0-1.1,0.9-2,2-2h6.5c1.1,0,2,0.9,2,2v9.2
		C181.8,348.8,180.9,349.7,179.8,349.7z"/>
	<path class="st1" d="M194.3,349.7h-6.5c-1.1,0-2-0.9-2-2v-9.2c0-1.1,0.9-2,2-2h6.5c1.1,0,2,0.9,2,2v9.2
		C196.3,348.8,195.4,349.7,194.3,349.7z"/>
	<path class="st1" d="M49.3,370.8h-6.5c-1.1,0-2-0.9-2-2v-9.2c0-1.1,0.9-2,2-2h6.5c1.1,0,2,0.9,2,2v9.2
		C51.3,369.9,50.4,370.8,49.3,370.8z"/>
	<path class="st1" d="M63.8,370.8h-6.5c-1.1,0-2-0.9-2-2v-9.2c0-1.1,0.9-2,2-2h6.5c1.1,0,2,0.9,2,2v9.2
		C65.8,369.9,64.9,370.8,63.8,370.8z"/>
	<path class="st1" d="M78.3,370.8h-6.5c-1.1,0-2-0.9-2-2v-9.2c0-1.1,0.9-2,2-2h6.5c1.1,0,2,0.9,2,2v9.2
		C80.3,369.9,79.4,370.8,78.3,370.8z"/>
	<path class="st1" d="M92.8,370.8h-6.5c-1.1,0-2-0.9-2-2v-9.2c0-1.1,0.9-2,2-2h6.5c1.1,0,2,0.9,2,2v9.2
		C94.8,369.9,93.9,370.8,92.8,370.8z"/>
	<path class="st1" d="M107.3,370.8h-6.5c-1.1,0-2-0.9-2-2v-9.2c0-1.1,0.9-2,2-2h6.5c1.1,0,2,0.9,2,2v9.2
		C109.3,369.9,108.4,370.8,107.3,370.8z"/>
	<path class="st1" d="M136.3,370.8h-6.5c-1.1,0-2-0.9-2-2v-9.2c0-1.1,0.9-2,2-2h6.5c1.1,0,2,0.9,2,2v9.2
		C138.3,369.9,137.4,370.8,136.3,370.8z"/>
	<path class="st1" d="M150.8,370.8h-6.5c-1.1,0-2-0.9-2-2v-9.2c0-1.1,0.9-2,2-2h6.5c1.1,0,2,0.9,2,2v9.2
		C152.8,369.9,151.9,370.8,150.8,370.8z"/>
	<path class="st1" d="M165.3,370.8h-6.5c-1.1,0-2-0.9-2-2v-9.2c0-1.1,0.9-2,2-2h6.5c1.1,0,2,0.9,2,2v9.2
		C167.3,369.9,166.4,370.8,165.3,370.8z"/>
	<path class="st1" d="M179.8,370.8h-6.5c-1.1,0-2-0.9-2-2v-9.2c0-1.1,0.9-2,2-2h6.5c1.1,0,2,0.9,2,2v9.2
		C181.8,369.9,180.9,370.8,179.8,370.8z"/>
	<path class="st1" d="M194.3,370.8h-6.5c-1.1,0-2-0.9-2-2v-9.2c0-1.1,0.9-2,2-2h6.5c1.1,0,2,0.9,2,2v9.2
		C196.3,369.9,195.4,370.8,194.3,370.8z"/>
	<path class="st1" d="M49.3,434.1h-6.5c-1.1,0-2-0.9-2-2v-9.2c0-1.1,0.9-2,2-2h6.5c1.1,0,2,0.9,2,2v9.2
		C51.3,433.2,50.4,434.1,49.3,434.1z"/>
	<path class="st1" d="M34.8,244.2h-6.5c-1.1,0-2-0.9-2-2V233c0-1.1,0.9-2,2-2h6.5c1.1,0,2,0.9,2,2v9.2
		C36.8,243.3,35.9,244.2,34.8,244.2z"/>
	<path class="st1" d="M34.8,265.3h-6.5c-1.1,0-2-0.9-2-2v-9.2c0-1.1,0.9-2,2-2h6.5c1.1,0,2,0.9,2,2v9.2
		C36.8,264.4,35.9,265.3,34.8,265.3z"/>
	<path class="st1" d="M20.3,244.2h-6.5c-1.1,0-2-0.9-2-2V233c0-1.1,0.9-2,2-2h6.5c1.1,0,2,0.9,2,2v9.2
		C22.3,243.3,21.4,244.2,20.3,244.2z"/>
	<path class="st1" d="M20.3,265.3h-6.5c-1.1,0-2-0.9-2-2v-9.2c0-1.1,0.9-2,2-2h6.5c1.1,0,2,0.9,2,2v9.2
		C22.3,264.4,21.4,265.3,20.3,265.3z"/>
	<path class="st1" d="M34.8,286.4h-6.5c-1.1,0-2-0.9-2-2v-9.2c0-1.1,0.9-2,2-2h6.5c1.1,0,2,0.9,2,2v9.2
		C36.8,285.5,35.9,286.4,34.8,286.4z"/>
	<path class="st1" d="M34.8,307.5h-6.5c-1.1,0-2-0.9-2-2v-9.2c0-1.1,0.9-2,2-2h6.5c1.1,0,2,0.9,2,2v9.2
		C36.8,306.6,35.9,307.5,34.8,307.5z"/>
	<path class="st1" d="M34.8,328.6h-6.5c-1.1,0-2-0.9-2-2v-9.2c0-1.1,0.9-2,2-2h6.5c1.1,0,2,0.9,2,2v9.2
		C36.8,327.7,35.9,328.6,34.8,328.6z"/>
	<path class="st1" d="M34.8,349.7h-6.5c-1.1,0-2-0.9-2-2v-9.2c0-1.1,0.9-2,2-2h6.5c1.1,0,2,0.9,2,2v9.2
		C36.8,348.8,35.9,349.7,34.8,349.7z"/>
	<path class="st1" d="M34.8,370.8h-6.5c-1.1,0-2-0.9-2-2v-9.2c0-1.1,0.9-2,2-2h6.5c1.1,0,2,0.9,2,2v9.2
		C36.8,369.9,35.9,370.8,34.8,370.8z"/>
	<path class="st1" d="M20.3,286.4h-6.5c-1.1,0-2-0.9-2-2v-9.2c0-1.1,0.9-2,2-2h6.5c1.1,0,2,0.9,2,2v9.2
		C22.3,285.5,21.4,286.4,20.3,286.4z"/>
	<path class="st1" d="M20.3,307.5h-6.5c-1.1,0-2-0.9-2-2v-9.2c0-1.1,0.9-2,2-2h6.5c1.1,0,2,0.9,2,2v9.2
		C22.3,306.6,21.4,307.5,20.3,307.5z"/>
	<path class="st1" d="M20.3,328.6h-6.5c-1.1,0-2-0.9-2-2v-9.2c0-1.1,0.9-2,2-2h6.5c1.1,0,2,0.9,2,2v9.2
		C22.3,327.7,21.4,328.6,20.3,328.6z"/>
	<path class="st1" d="M20.3,349.7h-6.5c-1.1,0-2-0.9-2-2v-9.2c0-1.1,0.9-2,2-2h6.5c1.1,0,2,0.9,2,2v9.2
		C22.3,348.8,21.4,349.7,20.3,349.7z"/>
	<path class="st1" d="M20.3,370.8h-6.5c-1.1,0-2-0.9-2-2v-9.2c0-1.1,0.9-2,2-2h6.5c1.1,0,2,0.9,2,2v9.2
		C22.3,369.9,21.4,370.8,20.3,370.8z"/>
	<path class="st1" d="M208.8,391.9h-6.5c-1.1,0-2-0.9-2-2v-9.2c0-1.1,0.9-2,2-2h6.5c1.1,0,2,0.9,2,2v9.2
		C210.8,391,209.9,391.9,208.8,391.9z"/>
	<path class="st1" d="M223.3,391.9h-6.5c-1.1,0-2-0.9-2-2v-9.2c0-1.1,0.9-2,2-2h6.5c1.1,0,2,0.9,2,2v9.2
		C225.3,391,224.4,391.9,223.3,391.9z"/>
	<path class="st1" d="M237.8,391.9h-6.5c-1.1,0-2-0.9-2-2v-9.2c0-1.1,0.9-2,2-2h6.5c1.1,0,2,0.9,2,2v9.2
		C239.8,391,238.9,391.9,237.8,391.9z"/>
	<path class="st1" d="M252.3,391.9h-6.5c-1.1,0-2-0.9-2-2v-9.2c0-1.1,0.9-2,2-2h6.5c1.1,0,2,0.9,2,2v9.2
		C254.3,391,253.4,391.9,252.3,391.9z"/>
	<path class="st1" d="M266.8,391.9h-6.5c-1.1,0-2-0.9-2-2v-9.2c0-1.1,0.9-2,2-2h6.5c1.1,0,2,0.9,2,2v9.2
		C268.8,391,268,391.9,266.8,391.9z"/>
	<path class="st1" d="M295.9,391.9h-6.5c-1.1,0-2-0.9-2-2v-9.2c0-1.1,0.9-2,2-2h6.5c1.1,0,2,0.9,2,2v9.2
		C297.9,391,297,391.9,295.9,391.9z"/>
	<path class="st1" d="M310.4,391.9h-6.5c-1.1,0-2-0.9-2-2v-9.2c0-1.1,0.9-2,2-2h6.5c1.1,0,2,0.9,2,2v9.2
		C312.4,391,311.5,391.9,310.4,391.9z"/>
	<path class="st1" d="M324.9,391.9h-6.5c-1.1,0-2-0.9-2-2v-9.2c0-1.1,0.9-2,2-2h6.5c1.1,0,2,0.9,2,2v9.2
		C326.9,391,326,391.9,324.9,391.9z"/>
	<path class="st1" d="M339.4,391.9h-6.5c-1.1,0-2-0.9-2-2v-9.2c0-1.1,0.9-2,2-2h6.5c1.1,0,2,0.9,2,2v9.2
		C341.4,391,340.5,391.9,339.4,391.9z"/>
	<path class="st1" d="M353.9,391.9h-6.5c-1.1,0-2-0.9-2-2v-9.2c0-1.1,0.9-2,2-2h6.5c1.1,0,2,0.9,2,2v9.2
		C355.9,391,355,391.9,353.9,391.9z"/>
	<path class="st1" d="M368.4,391.9h-6.5c-1.1,0-2-0.9-2-2v-9.2c0-1.1,0.9-2,2-2h6.5c1.1,0,2,0.9,2,2v9.2
		C370.4,391,369.5,391.9,368.4,391.9z"/>
	<path class="st1" d="M49.3,391.9h-6.5c-1.1,0-2-0.9-2-2v-9.2c0-1.1,0.9-2,2-2h6.5c1.1,0,2,0.9,2,2v9.2
		C51.3,391,50.4,391.9,49.3,391.9z"/>
	<path class="st1" d="M63.8,391.9h-6.5c-1.1,0-2-0.9-2-2v-9.2c0-1.1,0.9-2,2-2h6.5c1.1,0,2,0.9,2,2v9.2
		C65.8,391,64.9,391.9,63.8,391.9z"/>
	<path class="st1" d="M78.3,391.9h-6.5c-1.1,0-2-0.9-2-2v-9.2c0-1.1,0.9-2,2-2h6.5c1.1,0,2,0.9,2,2v9.2
		C80.3,391,79.4,391.9,78.3,391.9z"/>
	<path class="st1" d="M92.8,391.9h-6.5c-1.1,0-2-0.9-2-2v-9.2c0-1.1,0.9-2,2-2h6.5c1.1,0,2,0.9,2,2v9.2
		C94.8,391,93.9,391.9,92.8,391.9z"/>
	<path class="st1" d="M107.3,391.9h-6.5c-1.1,0-2-0.9-2-2v-9.2c0-1.1,0.9-2,2-2h6.5c1.1,0,2,0.9,2,2v9.2
		C109.3,391,108.4,391.9,107.3,391.9z"/>
	<path class="st1" d="M136.3,391.9h-6.5c-1.1,0-2-0.9-2-2v-9.2c0-1.1,0.9-2,2-2h6.5c1.1,0,2,0.9,2,2v9.2
		C138.3,391,137.4,391.9,136.3,391.9z"/>
	<path class="st1" d="M150.8,391.9h-6.5c-1.1,0-2-0.9-2-2v-9.2c0-1.1,0.9-2,2-2h6.5c1.1,0,2,0.9,2,2v9.2
		C152.8,391,151.9,391.9,150.8,391.9z"/>
	<path class="st1" d="M165.3,391.9h-6.5c-1.1,0-2-0.9-2-2v-9.2c0-1.1,0.9-2,2-2h6.5c1.1,0,2,0.9,2,2v9.2
		C167.3,391,166.4,391.9,165.3,391.9z"/>
	<path class="st1" d="M179.8,391.9h-6.5c-1.1,0-2-0.9-2-2v-9.2c0-1.1,0.9-2,2-2h6.5c1.1,0,2,0.9,2,2v9.2
		C181.8,391,180.9,391.9,179.8,391.9z"/>
	<path class="st1" d="M194.3,391.9h-6.5c-1.1,0-2-0.9-2-2v-9.2c0-1.1,0.9-2,2-2h6.5c1.1,0,2,0.9,2,2v9.2
		C196.3,391,195.4,391.9,194.3,391.9z"/>
	<path class="st1" d="M34.8,391.9h-6.5c-1.1,0-2-0.9-2-2v-9.2c0-1.1,0.9-2,2-2h6.5c1.1,0,2,0.9,2,2v9.2
		C36.8,391,35.9,391.9,34.8,391.9z"/>
	<path class="st1" d="M20.3,391.9h-6.5c-1.1,0-2-0.9-2-2v-9.2c0-1.1,0.9-2,2-2h6.5c1.1,0,2,0.9,2,2v9.2
		C22.3,391,21.4,391.9,20.3,391.9z"/>
	<path class="st1" d="M208.8,413h-6.5c-1.1,0-2-0.9-2-2v-9.2c0-1.1,0.9-2,2-2h6.5c1.1,0,2,0.9,2,2v9.2
		C210.8,412.1,209.9,413,208.8,413z"/>
	<path class="st1" d="M223.3,413h-6.5c-1.1,0-2-0.9-2-2v-9.2c0-1.1,0.9-2,2-2h6.5c1.1,0,2,0.9,2,2v9.2
		C225.3,412.1,224.4,413,223.3,413z"/>
	<path class="st1" d="M237.8,413h-6.5c-1.1,0-2-0.9-2-2v-9.2c0-1.1,0.9-2,2-2h6.5c1.1,0,2,0.9,2,2v9.2
		C239.8,412.1,238.9,413,237.8,413z"/>
	<path class="st1" d="M252.3,413h-6.5c-1.1,0-2-0.9-2-2v-9.2c0-1.1,0.9-2,2-2h6.5c1.1,0,2,0.9,2,2v9.2
		C254.3,412.1,253.4,413,252.3,413z"/>
	<path class="st1" d="M266.8,413h-6.5c-1.1,0-2-0.9-2-2v-9.2c0-1.1,0.9-2,2-2h6.5c1.1,0,2,0.9,2,2v9.2
		C268.8,412.1,268,413,266.8,413z"/>
	<path class="st1" d="M237.8,434.1h-6.5c-1.1,0-2-0.9-2-2v-9.2c0-1.1,0.9-2,2-2h6.5c1.1,0,2,0.9,2,2v9.2
		C239.8,433.2,238.9,434.1,237.8,434.1z"/>
	<path class="st1" d="M252.3,434.1h-6.5c-1.1,0-2-0.9-2-2v-9.2c0-1.1,0.9-2,2-2h6.5c1.1,0,2,0.9,2,2v9.2
		C254.3,433.2,253.4,434.1,252.3,434.1z"/>
	<path class="st1" d="M266.8,434.1h-6.5c-1.1,0-2-0.9-2-2v-9.2c0-1.1,0.9-2,2-2h6.5c1.1,0,2,0.9,2,2v9.2
		C268.8,433.2,268,434.1,266.8,434.1z"/>
	<path class="st1" d="M295.9,413h-6.5c-1.1,0-2-0.9-2-2v-9.2c0-1.1,0.9-2,2-2h6.5c1.1,0,2,0.9,2,2v9.2
		C297.9,412.1,297,413,295.9,413z"/>
	<path class="st1" d="M310.4,413h-6.5c-1.1,0-2-0.9-2-2v-9.2c0-1.1,0.9-2,2-2h6.5c1.1,0,2,0.9,2,2v9.2
		C312.4,412.1,311.5,413,310.4,413z"/>
	<path class="st1" d="M324.9,413h-6.5c-1.1,0-2-0.9-2-2v-9.2c0-1.1,0.9-2,2-2h6.5c1.1,0,2,0.9,2,2v9.2
		C326.9,412.1,326,413,324.9,413z"/>
	<path class="st1" d="M339.4,413h-6.5c-1.1,0-2-0.9-2-2v-9.2c0-1.1,0.9-2,2-2h6.5c1.1,0,2,0.9,2,2v9.2
		C341.4,412.1,340.5,413,339.4,413z"/>
	<path class="st1" d="M353.9,413h-6.5c-1.1,0-2-0.9-2-2v-9.2c0-1.1,0.9-2,2-2h6.5c1.1,0,2,0.9,2,2v9.2
		C355.9,412.1,355,413,353.9,413z"/>
	<path class="st1" d="M368.4,413h-6.5c-1.1,0-2-0.9-2-2v-9.2c0-1.1,0.9-2,2-2h6.5c1.1,0,2,0.9,2,2v9.2
		C370.4,412.1,369.5,413,368.4,413z"/>
	<path class="st1" d="M49.3,413h-6.5c-1.1,0-2-0.9-2-2v-9.2c0-1.1,0.9-2,2-2h6.5c1.1,0,2,0.9,2,2v9.2C51.3,412.1,50.4,413,49.3,413z
		"/>
	<path class="st1" d="M63.8,413h-6.5c-1.1,0-2-0.9-2-2v-9.2c0-1.1,0.9-2,2-2h6.5c1.1,0,2,0.9,2,2v9.2C65.8,412.1,64.9,413,63.8,413z
		"/>
	<path class="st1" d="M78.3,413h-6.5c-1.1,0-2-0.9-2-2v-9.2c0-1.1,0.9-2,2-2h6.5c1.1,0,2,0.9,2,2v9.2C80.3,412.1,79.4,413,78.3,413z
		"/>
	<path class="st1" d="M92.8,413h-6.5c-1.1,0-2-0.9-2-2v-9.2c0-1.1,0.9-2,2-2h6.5c1.1,0,2,0.9,2,2v9.2C94.8,412.1,93.9,413,92.8,413z
		"/>
	<path class="st1" d="M107.3,413h-6.5c-1.1,0-2-0.9-2-2v-9.2c0-1.1,0.9-2,2-2h6.5c1.1,0,2,0.9,2,2v9.2
		C109.3,412.1,108.4,413,107.3,413z"/>
	<path class="st1" d="M136.3,413h-6.5c-1.1,0-2-0.9-2-2v-9.2c0-1.1,0.9-2,2-2h6.5c1.1,0,2,0.9,2,2v9.2
		C138.3,412.1,137.4,413,136.3,413z"/>
	<path class="st1" d="M150.8,413h-6.5c-1.1,0-2-0.9-2-2v-9.2c0-1.1,0.9-2,2-2h6.5c1.1,0,2,0.9,2,2v9.2
		C152.8,412.1,151.9,413,150.8,413z"/>
	<path class="st1" d="M165.3,413h-6.5c-1.1,0-2-0.9-2-2v-9.2c0-1.1,0.9-2,2-2h6.5c1.1,0,2,0.9,2,2v9.2
		C167.3,412.1,166.4,413,165.3,413z"/>
	<path class="st1" d="M179.8,413h-6.5c-1.1,0-2-0.9-2-2v-9.2c0-1.1,0.9-2,2-2h6.5c1.1,0,2,0.9,2,2v9.2
		C181.8,412.1,180.9,413,179.8,413z"/>
	<path class="st1" d="M194.3,413h-6.5c-1.1,0-2-0.9-2-2v-9.2c0-1.1,0.9-2,2-2h6.5c1.1,0,2,0.9,2,2v9.2
		C196.3,412.1,195.4,413,194.3,413z"/>
	<path class="st1" d="M34.8,413h-6.5c-1.1,0-2-0.9-2-2v-9.2c0-1.1,0.9-2,2-2h6.5c1.1,0,2,0.9,2,2v9.2C36.8,412.1,35.9,413,34.8,413z
		"/>
	<path class="st1" d="M20.3,413h-6.5c-1.1,0-2-0.9-2-2v-9.2c0-1.1,0.9-2,2-2h6.5c1.1,0,2,0.9,2,2v9.2C22.3,412.1,21.4,413,20.3,413z
		"/>
	<path class="st1" d="M63.8,434.1h-6.5c-1.1,0-2-0.9-2-2v-9.2c0-1.1,0.9-2,2-2h6.5c1.1,0,2,0.9,2,2v9.2
		C65.8,433.2,64.9,434.1,63.8,434.1z"/>
	<path class="st1" d="M78.3,434.1h-6.5c-1.1,0-2-0.9-2-2v-9.2c0-1.1,0.9-2,2-2h6.5c1.1,0,2,0.9,2,2v9.2
		C80.3,433.2,79.4,434.1,78.3,434.1z"/>
	<path class="st1" d="M92.8,434.1h-6.5c-1.1,0-2-0.9-2-2v-9.2c0-1.1,0.9-2,2-2h6.5c1.1,0,2,0.9,2,2v9.2
		C94.8,433.2,93.9,434.1,92.8,434.1z"/>
	<path class="st1" d="M107.3,434.1h-6.5c-1.1,0-2-0.9-2-2v-9.2c0-1.1,0.9-2,2-2h6.5c1.1,0,2,0.9,2,2v9.2
		C109.3,433.2,108.4,434.1,107.3,434.1z"/>
	<path class="st1" d="M136.3,434.1h-6.5c-1.1,0-2-0.9-2-2v-9.2c0-1.1,0.9-2,2-2h6.5c1.1,0,2,0.9,2,2v9.2
		C138.3,433.2,137.4,434.1,136.3,434.1z"/>
	<path class="st1" d="M150.8,434.1h-6.5c-1.1,0-2-0.9-2-2v-9.2c0-1.1,0.9-2,2-2h6.5c1.1,0,2,0.9,2,2v9.2
		C152.8,433.2,151.9,434.1,150.8,434.1z"/>
	<path class="st1" d="M165.3,434.1h-6.5c-1.1,0-2-0.9-2-2v-9.2c0-1.1,0.9-2,2-2h6.5c1.1,0,2,0.9,2,2v9.2
		C167.3,433.2,166.4,434.1,165.3,434.1z"/>
	<path class="st1" d="M179.8,434.1h-6.5c-1.1,0-2-0.9-2-2v-9.2c0-1.1,0.9-2,2-2h6.5c1.1,0,2,0.9,2,2v9.2
		C181.8,433.2,180.9,434.1,179.8,434.1z"/>
	<path class="st1" d="M194.3,434.1h-6.5c-1.1,0-2-0.9-2-2v-9.2c0-1.1,0.9-2,2-2h6.5c1.1,0,2,0.9,2,2v9.2
		C196.3,433.2,195.4,434.1,194.3,434.1z"/>
	<g>
		<g>
			<g>
				<polygon class="st2" points="340.9,431.9 339.5,428.4 335.8,428.4 335.8,424.1 336.2,424.1 336.2,428 339.8,428 341.1,431.4 
					342.3,431 342.4,431.3 				"/>
			</g>
			<g>
				<polygon class="st2" points="340.7,432.3 339.3,428.7 335.4,428.7 335.4,423.8 336.5,423.8 336.5,427.6 340,427.6 341.3,431 
					342.4,430.6 342.8,431.5 				"/>
			</g>
		</g>
		<g>
			<g>
				<rect x="335.9" y="426.3" class="st2" width="3.2" height="0.4"/>
			</g>
			<g>
				<rect x="335.6" y="426" class="st2" width="3.8" height="1"/>
			</g>
		</g>
		<g>
			<g>
				<circle class="st2" cx="336.6" cy="423.6" r="1.1"/>
			</g>
			<g>
				<path class="st2" d="M336.6,424.9c-0.8,0-1.4-0.6-1.4-1.4c0-0.8,0.6-1.4,1.4-1.4s1.4,0.6,1.4,1.4
					C337.9,424.3,337.3,424.9,336.6,424.9z M336.6,422.8c-0.4,0-0.7,0.3-0.7,0.7c0,0.4,0.3,0.7,0.7,0.7c0.4,0,0.7-0.3,0.7-0.7
					C337.3,423.2,337,422.8,336.6,422.8z"/>
			</g>
		</g>
		<g>
			<g>
				<path class="st2" d="M336.1,432.9c-1.9,0-3.5-1.6-3.5-3.5c0-1.4,0.9-2.8,2.3-3.3l0.1,0.4c-1.2,0.5-2,1.6-2,2.9
					c0,1.7,1.4,3.1,3.1,3.1c1.1,0,2.1-0.6,2.7-1.5l0.3,0.2C338.5,432.3,337.3,432.9,336.1,432.9z"/>
			</g>
			<g>
				<path class="st2" d="M336.1,433.3c-2.1,0-3.8-1.7-3.8-3.8c0-1.6,1-3,2.5-3.6l0.3-0.1l0.4,1l-0.3,0.1c-1.1,0.4-1.8,1.5-1.8,2.6
					c0,1.5,1.3,2.8,2.8,2.8c1,0,1.9-0.5,2.4-1.3l0.2-0.3l0.9,0.5l-0.2,0.3C338.7,432.6,337.4,433.3,336.1,433.3z"/>
			</g>
		</g>
	</g>
	<g>
		<g>
			<g>
				<polygon class="st2" points="355.1,431.9 353.8,428.4 350,428.4 350,424.1 350.4,424.1 350.4,428 354,428 355.3,431.4 
					356.5,431 356.7,431.3 				"/>
			</g>
			<g>
				<polygon class="st2" points="354.9,432.3 353.5,428.7 349.7,428.7 349.7,423.8 350.7,423.8 350.7,427.6 354.2,427.6 355.5,431 
					356.7,430.6 357.1,431.5 				"/>
			</g>
		</g>
		<g>
			<g>
				<rect x="350.2" y="426.3" class="st2" width="3.2" height="0.4"/>
			</g>
			<g>
				<rect x="349.9" y="426" class="st2" width="3.8" height="1"/>
			</g>
		</g>
		<g>
			<g>
				<circle class="st2" cx="350.8" cy="423.6" r="1.1"/>
			</g>
			<g>
				<path class="st2" d="M350.8,424.9c-0.8,0-1.4-0.6-1.4-1.4c0-0.8,0.6-1.4,1.4-1.4c0.8,0,1.4,0.6,1.4,1.4
					C352.2,424.3,351.6,424.9,350.8,424.9z M350.8,422.8c-0.4,0-0.7,0.3-0.7,0.7c0,0.4,0.3,0.7,0.7,0.7c0.4,0,0.7-0.3,0.7-0.7
					C351.6,423.2,351.2,422.8,350.8,422.8z"/>
			</g>
		</g>
		<g>
			<g>
				<path class="st2" d="M350.4,432.9c-1.9,0-3.5-1.6-3.5-3.5c0-1.4,0.9-2.8,2.3-3.3l0.1,0.4c-1.2,0.5-2,1.6-2,2.9
					c0,1.7,1.4,3.1,3.1,3.1c1.1,0,2.1-0.6,2.7-1.5l0.3,0.2C352.7,432.3,351.6,432.9,350.4,432.9z"/>
			</g>
			<g>
				<path class="st2" d="M350.4,433.3c-2.1,0-3.8-1.7-3.8-3.8c0-1.6,1-3,2.5-3.6l0.3-0.1l0.4,1l-0.3,0.1c-1.1,0.4-1.8,1.5-1.8,2.6
					c0,1.5,1.3,2.8,2.8,2.8c1,0,1.9-0.5,2.4-1.3l0.2-0.3l0.9,0.5l-0.2,0.3C352.9,432.6,351.7,433.3,350.4,433.3z"/>
			</g>
		</g>
	</g>
	<g>
		<path d="M171.4,83.7c-0.8-1-1.9-2.1-3.2-3.1c-0.7,0.8-1.2,1.3-1.9,1.8c-0.7,0.5-1.2,0.8-2,1.2c-0.2-0.3-0.2-0.4-0.5-0.7
			c0.8-0.3,1.3-0.6,2-1.2c1.6-1.2,2.8-2.8,3.6-4.5c0-0.1,0-0.1,0-0.1c0,0,0,0,0-0.1c-0.1,0-0.1,0-0.2,0l-3.3,0c-0.5,0-0.7,0-1,0.1
			l0-0.8c0.3,0,0.5,0.1,0.8,0.1c0,0,0.1,0,0.3,0l3.6,0c0.4,0,0.5,0,0.6-0.1l0.4,0.4c-0.1,0.1-0.2,0.2-0.3,0.5c-0.6,1.2-1,2-1.7,2.8
			c1.3,1,2.2,1.8,3.3,3L171.4,83.7z"/>
		<path d="M178,75.7c-0.1,0.1-0.1,0.1-0.2,0.4c-0.3,0.5-0.4,0.7-0.5,0.9c0.1,0,0.1,0,3-0.1c0.4,0,0.4,0,0.5-0.1l0.4,0.4
			c-0.1,0.1-0.1,0.1-0.2,0.5c-0.4,1.4-1.2,2.8-2,3.8c-0.9,1.1-2,1.8-3.5,2.5c-0.2-0.3-0.2-0.4-0.5-0.6c1.5-0.6,2.6-1.4,3.5-2.5
			c0.8-0.9,1.4-2.1,1.7-3.4l-3.4,0.1c-0.6,1-1.4,1.9-2.4,2.6c-0.2-0.2-0.3-0.3-0.6-0.5c1.1-0.7,1.8-1.5,2.5-2.7
			c0.4-0.7,0.6-1.1,0.6-1.5L178,75.7z"/>
		<path d="M186.2,75.9c0,0.2,0,0.4,0,0.8v2.7c0,0.5,0,0.6,0,0.8h-0.8c0-0.2,0-0.4,0-0.8v-2.7c0-0.4,0-0.6,0-0.8H186.2z M190.6,75.9
			c0,0.2,0,0.4,0,0.9V78c0,1.6-0.1,2.5-0.2,3.1c-0.3,0.9-0.9,1.7-1.9,2.2c-0.5,0.3-1,0.5-1.8,0.7c-0.1-0.3-0.2-0.4-0.4-0.7
			c0.9-0.2,1.4-0.4,1.9-0.7c0.9-0.5,1.4-1.2,1.6-2.1c0.1-0.6,0.1-1,0.1-2.6v-1.1c0-0.5,0-0.7,0-0.9H190.6z"/>
		<path d="M193.9,79.4c0.3,0,0.6,0.1,1.2,0.1h5.8c0.7,0,0.9,0,1.2,0v0.8c-0.3,0-0.6,0-1.2,0h-5.8c-0.7,0-0.9,0-1.2,0V79.4z"/>
		<path d="M204.4,82.8c0.8,0,2-0.3,2.9-0.8c1.9-0.9,3.3-2.3,4.1-4.5c0.2,0.3,0.3,0.4,0.6,0.6c-0.8,1.7-1.7,2.9-3.1,3.8
			c-1,0.7-2.1,1.1-3.7,1.5c-0.3,0.1-0.4,0.1-0.6,0.2L204.4,82.8z M205,76.6c1.1,0.7,1.7,1.2,2.4,1.9l-0.5,0.6
			c-0.7-0.8-1.5-1.4-2.4-2L205,76.6z"/>
		<path d="M217.2,83.6c-0.6,0-0.8,0-1.1,0.1c0.1-0.8,0.1-0.9,0.3-1.3c0.3-0.6,0.7-1.2,1.3-1.7c0.4-0.3,0.4-0.3,1.5-1.1
			c1-0.7,1.3-1.1,1.3-1.7c0-0.8-0.6-1.3-1.7-1.3c-0.7,0-1.2,0.2-1.5,0.7c-0.2,0.3-0.3,0.5-0.4,1l-0.8-0.1c0.1-0.7,0.3-1.1,0.6-1.4
			c0.5-0.5,1.1-0.8,2-0.8c1.5,0,2.5,0.8,2.5,1.9c0,0.5-0.2,1-0.6,1.4c-0.3,0.3-0.6,0.5-1.7,1.3c-0.8,0.5-1.1,0.8-1.4,1.2
			c-0.3,0.4-0.5,0.7-0.6,1.2h3.2c0.5,0,0.8,0,1.2-0.1v0.8c-0.4,0-0.7-0.1-1.2-0.1H217.2z"/>
	</g>
	<g>
		<path d="M149.8,55.7c-0.2-0.9-0.3-1.3-0.8-1.8c-0.7-0.8-1.8-1.2-3.2-1.2c-2.2,0-3.8,1.2-3.8,2.9c0,1.1,0.6,1.9,1.9,2.4
			c0.6,0.2,0.6,0.2,3.1,0.8c3.4,0.7,4.8,2,4.8,4.5c0,3-2.1,4.7-5.8,4.7c-2.4,0-4.2-0.7-5.2-2c-0.6-0.8-0.8-1.4-1-2.8l1.9-0.2
			c0.1,1,0.2,1.5,0.7,2.1c0.7,0.9,2,1.5,3.6,1.5c2.6,0,4.1-1.2,4.1-3.2c0-1.1-0.4-1.8-1.2-2.3c-0.7-0.4-0.9-0.5-3.5-1.1
			c-1.4-0.3-2.2-0.6-2.9-1c-1.3-0.8-2-1.9-2-3.4c0-2.7,2.2-4.4,5.5-4.4c2.1,0,3.8,0.7,4.7,2c0.5,0.6,0.7,1.2,0.9,2.3L149.8,55.7z"/>
		<path d="M166.8,56.1c-0.3-0.9-0.6-1.4-1-1.9c-0.9-1-2.1-1.5-3.7-1.5c-3.5,0-5.7,2.7-5.7,6.9c0,4.2,2.2,7,5.7,7
			c1.7,0,3.1-0.6,4-1.8c0.5-0.6,0.7-1.2,0.9-2.1l1.8,0.4c-0.4,1.3-0.6,1.9-1.2,2.6c-1.2,1.6-3.2,2.5-5.6,2.5c-2.1,0-3.8-0.6-5-1.9
			c-1.5-1.5-2.3-3.8-2.3-6.5c0-2.8,0.9-5.1,2.4-6.7c1.2-1.2,2.9-1.8,4.9-1.8c2,0,3.6,0.6,4.8,1.7c0.8,0.7,1.2,1.4,1.7,2.7
			L166.8,56.1z"/>
		<path d="M182.8,67.8c-0.1-0.6-0.4-1.5-1.3-3.7c-1.2-2.9-2.1-3.8-3.8-3.8h-4v5c0,1.1,0,1.7,0.2,2.4h-2c0.1-0.8,0.2-1.4,0.2-2.4
			V53.9c0-0.9,0-1.6-0.2-2.5c0.8,0,1.4,0.1,2.3,0.1h4.7c3.1,0,4.8,1.5,4.8,4.1c0,1.4-0.4,2.4-1.3,3.2c-0.6,0.6-1.2,0.8-2.3,1.1
			c0.9,0.3,1.4,0.8,2.2,2.4c0.5,1,1,2.1,1.7,3.6c0.4,0.8,0.7,1.5,1,2H182.8z M178.9,58.9c1,0,1.8-0.3,2.4-0.9
			c0.6-0.5,0.8-1.2,0.8-2.2c0-1.8-1.1-2.8-3.1-2.8h-5.2v5.9H178.9z"/>
		<path d="M199.1,67.9c-0.7-0.1-1.3-0.2-2.4-0.2h-6.3c-1,0-1.6,0-2.4,0.1c0.1-0.8,0.2-1.5,0.2-2.6V53.9c0-0.9,0-1.5-0.2-2.4
			c0.8,0,1.3,0.1,2.4,0.1h6.1c0.9,0,1.7,0,2.4-0.2v1.8c-0.8-0.1-1.3-0.2-2.4-0.2H190v5.5h5.6c0.9,0,1.6,0,2.4-0.2v1.8
			c-0.7-0.1-1.3-0.1-2.4-0.1H190v6.3h6.8c1,0,1.6,0,2.4-0.1V67.9z"/>
		<path d="M213.5,67.9c-0.7-0.1-1.3-0.2-2.4-0.2h-6.3c-1,0-1.6,0-2.4,0.1c0.1-0.8,0.2-1.5,0.2-2.6V53.9c0-0.9,0-1.5-0.2-2.4
			c0.8,0,1.3,0.1,2.4,0.1h6.1c0.9,0,1.7,0,2.4-0.2v1.8c-0.8-0.1-1.3-0.2-2.4-0.2h-6.6v5.5h5.6c0.9,0,1.6,0,2.4-0.2v1.8
			c-0.7-0.1-1.3-0.1-2.4-0.1h-5.6v6.3h6.8c1,0,1.6,0,2.4-0.1V67.9z"/>
		<path d="M219,51.5c0.2,0.5,0.5,1,1.1,1.9l6.8,10.1c0.2,0.4,0.9,1.4,1.4,2.3c-0.1-1.7-0.1-2.7-0.1-2.9v-9.1c0-1.1,0-1.7-0.2-2.5h2
			c-0.1,0.8-0.2,1.4-0.2,2.5v11.4c0,1.1,0,1.7,0.2,2.4h-2.3c-0.3-0.6-0.5-1.1-1.1-1.9l-6.9-10.3c-0.2-0.3-0.9-1.5-1.2-2.1
			c0.1,1,0.1,2.1,0.1,2.6v9.2c0,1.1,0,1.8,0.2,2.6h-2c0.1-0.7,0.2-1.4,0.2-2.6V53.9c0-1,0-1.6-0.2-2.4H219z"/>
		<path d="M235.9,67.8c-1.4,0-1.7,0-2.4,0.1c0.2-1.7,0.3-2,0.6-2.8c0.5-1.4,1.4-2.5,2.8-3.7c0.8-0.6,0.8-0.7,3.3-2.4
			c2.1-1.4,2.8-2.4,2.8-3.7c0-1.6-1.4-2.7-3.6-2.7c-1.4,0-2.5,0.5-3.1,1.4c-0.4,0.6-0.6,1.1-0.8,2.2l-1.8-0.3
			c0.3-1.5,0.6-2.3,1.4-3.1c1-1.1,2.4-1.7,4.3-1.7c3.2,0,5.3,1.6,5.3,4.2c0,1.1-0.4,2.1-1.3,3c-0.6,0.7-1.2,1.1-3.6,2.8
			c-1.7,1.1-2.4,1.7-3.1,2.6c-0.7,0.9-1,1.5-1.2,2.5h6.8c1.1,0,1.8,0,2.6-0.1v1.8c-0.9-0.1-1.6-0.1-2.6-0.1H235.9z"/>
	</g>
</g>
</svg>
