<?xml version="1.0" encoding="utf-8"?>
<!-- Generator: Adobe Illustrator 21.1.0, SVG Export Plug-In . SVG Version: 6.00 Build 0)  -->
<svg version="1.1" id="書き出し" xmlns="http://www.w3.org/2000/svg" xmlns:xlink="http://www.w3.org/1999/xlink" x="0px"
	 y="0px" viewBox="0 0 411.7 514.3" style="enable-background:new 0 0 411.7 514.3;" xml:space="preserve">
<style type="text/css">
	.st0{fill:#EEEEEF;}
	.st1{fill:#9E9E9F;}
	.st2{enable-background:new    ;}
	.st3{fill:#E3007F;}
	.st4{fill:#FFFFFF;}
	.st5{fill:#0081CC;}
</style>
<g>
	<g>
		<rect x="28.4" class="st0" width="383.3" height="514.3"/>
	</g>
	<rect x="28.3" y="161" class="st1" width="3" height="30.3"/>
	<rect x="28.3" y="292.3" class="st1" width="3" height="30.3"/>
	<g>
		<g class="st2">
			<path d="M52.6,145.7c0.2,0,0.4,0,0.8,0H54c0.3,0,0.5,0,0.8,0c-0.1,0.6-0.1,1-0.1,1.5v4.4c0,0.4,0,0.7,0.1,1h-0.9
				c0.1-0.3,0.1-0.6,0.1-1v-5.3h-0.5c-0.3,0-0.5,0-0.8,0.1V145.7z"/>
		</g>
	</g>
	<g>
		<g class="st2">
			<path d="M68.4,152.6c-0.6,0-0.7,0-1,0c0.1-0.7,0.1-0.9,0.3-1.2c0.2-0.6,0.6-1.1,1.2-1.6c0.3-0.3,0.3-0.3,1.4-1
				c0.9-0.6,1.2-1,1.2-1.6c0-0.7-0.6-1.1-1.5-1.1c-0.6,0-1,0.2-1.3,0.6c-0.2,0.2-0.3,0.5-0.3,0.9l-0.8-0.1c0.1-0.7,0.3-1,0.6-1.3
				c0.4-0.5,1-0.7,1.8-0.7c1.4,0,2.3,0.7,2.3,1.8c0,0.5-0.2,0.9-0.5,1.3c-0.3,0.3-0.5,0.5-1.5,1.2c-0.7,0.5-1,0.7-1.3,1.1
				c-0.3,0.4-0.4,0.6-0.5,1.1h2.9c0.5,0,0.8,0,1.1-0.1v0.8c-0.4,0-0.7-0.1-1.1-0.1H68.4z"/>
		</g>
	</g>
	<g>
		<g class="st2">
			<path d="M83.7,150.9c0.1,0.5,0.3,0.7,0.6,0.9c0.3,0.2,0.7,0.3,1.2,0.3c1.1,0,1.7-0.5,1.7-1.4c0-0.9-0.6-1.4-1.9-1.4
				c-0.3,0-0.5,0-0.7,0v-0.7c0.2,0,0.4,0.1,0.7,0.1c0.6,0,1-0.1,1.3-0.4c0.2-0.2,0.4-0.6,0.4-0.9c0-0.8-0.5-1.2-1.5-1.2
				c-0.6,0-1,0.2-1.2,0.5c-0.1,0.2-0.2,0.3-0.3,0.6l-0.8-0.2c0.2-0.5,0.3-0.7,0.5-0.9c0.4-0.4,1-0.7,1.8-0.7c1.3,0,2.2,0.7,2.2,1.8
				c0,0.6-0.2,1-0.6,1.3c-0.2,0.2-0.4,0.2-0.9,0.3c0.5,0.1,0.8,0.2,1.1,0.4c0.4,0.3,0.6,0.8,0.6,1.4c0,1.2-0.9,2-2.5,2
				c-0.9,0-1.6-0.3-2-0.7c-0.2-0.2-0.3-0.4-0.5-0.9L83.7,150.9z"/>
		</g>
	</g>
	<g>
		<g class="st2">
			<path d="M98.5,150.2c0.2-0.2,0.4-0.5,0.6-0.7l2.3-2.9c0.3-0.4,0.5-0.6,0.7-0.9h0.7c0,0.5-0.1,0.8-0.1,1.5v3h0.3
				c0.4,0,0.6,0,0.9-0.1v0.8c-0.3,0-0.6-0.1-1-0.1h-0.3v0.8c0,0.4,0,0.6,0.1,1h-0.8c0.1-0.3,0.1-0.6,0.1-1v-0.8h-2.4
				c-0.5,0-0.8,0-1.1,0V150.2z M102,147.9c0-0.5,0-0.8,0.1-1.2c-0.2,0.3-0.4,0.6-0.7,0.9l-2.1,2.6h2.7V147.9z"/>
		</g>
	</g>
	<g>
		<g class="st2">
			<path d="M115.5,148.3c0,0.2,0,0.2-0.1,0.4c0.4-0.4,1-0.6,1.6-0.6c0.7,0,1.2,0.2,1.6,0.6c0.4,0.4,0.6,0.9,0.6,1.6
				c0,1.5-1,2.4-2.5,2.4c-0.7,0-1.3-0.2-1.7-0.6c-0.2-0.2-0.4-0.4-0.6-0.9l0.7-0.2c0.1,0.3,0.2,0.4,0.3,0.5c0.3,0.3,0.8,0.5,1.3,0.5
				c1,0,1.7-0.7,1.7-1.7c0-1-0.6-1.7-1.6-1.7c-0.5,0-0.9,0.1-1.2,0.4c-0.2,0.2-0.3,0.3-0.4,0.5l-0.7-0.1c0.1-0.4,0.1-0.5,0.1-0.9
				l0.2-2.1c0-0.3,0-0.4,0-0.5c0-0.1,0-0.2,0-0.4c0.3,0,0.4,0,1,0h1.9c0.5,0,0.7,0,1.1-0.1v0.8c-0.3-0.1-0.6-0.1-1.1-0.1h-2.1
				L115.5,148.3z"/>
		</g>
	</g>
	<g>
		<g class="st2">
			<path d="M134.1,147.2c-0.1-0.3-0.2-0.4-0.3-0.6c-0.3-0.3-0.6-0.5-1.1-0.5c-0.7,0-1.2,0.4-1.6,1.1c-0.2,0.5-0.3,1-0.4,2
				c0.2-0.3,0.3-0.4,0.5-0.6c0.4-0.4,0.9-0.6,1.5-0.6c1.4,0,2.3,0.9,2.3,2.3c0,1.4-0.9,2.3-2.4,2.3c-0.6,0-1.3-0.2-1.6-0.6
				c-0.6-0.5-0.9-1.6-0.9-2.9c0-1.1,0.3-2.2,0.7-2.7c0.5-0.7,1.1-1,1.9-1c0.5,0,1,0.1,1.4,0.4c0.3,0.2,0.5,0.5,0.8,1L134.1,147.2z
				 M132.7,148.7c-0.5,0-0.9,0.2-1.3,0.5c-0.3,0.3-0.5,0.7-0.5,1.2c0,1,0.7,1.7,1.7,1.7c0.6,0,1.1-0.3,1.4-0.7
				c0.1-0.2,0.2-0.6,0.2-1C134.3,149.3,133.7,148.7,132.7,148.7z"/>
		</g>
	</g>
	<g>
		<g class="st2">
			<path d="M150.6,146.3c-0.2,0.1-0.3,0.3-0.7,0.9c-0.8,1.3-1.2,2-1.6,3.1c-0.2,0.8-0.3,1.2-0.5,2.3h-0.9c0.3-1.6,0.5-2.5,1.1-3.6
				c0.4-0.9,0.8-1.5,1.6-2.6h-3c-0.4,0-0.7,0-1,0.1v-0.8c0.4,0,0.6,0.1,1,0.1h2.7c0.5,0,0.7,0,1.1,0V146.3z"/>
		</g>
	</g>
	<g>
		<g class="st2">
			<path d="M165.8,149.4c0.5,0.3,0.7,0.8,0.7,1.4c0,1.2-0.9,1.9-2.5,1.9c-1.7,0-2.6-0.7-2.6-1.9c0-0.7,0.3-1.2,0.8-1.5
				c0.3-0.2,0.5-0.3,0.8-0.3c-0.8-0.1-1.3-0.8-1.3-1.6c0-1.1,0.9-1.8,2.2-1.8c1.4,0,2.2,0.7,2.2,1.8c0,0.8-0.5,1.5-1.3,1.6
				C165.2,149,165.5,149.2,165.8,149.4z M162.1,150.8c0,0.9,0.7,1.4,1.8,1.4c0.6,0,1.2-0.2,1.5-0.5c0.2-0.2,0.3-0.5,0.3-0.9
				c0-0.9-0.7-1.4-1.8-1.4S162.1,149.9,162.1,150.8z M162.4,147.4c0,0.8,0.6,1.3,1.5,1.3c1,0,1.5-0.5,1.5-1.3c0-0.8-0.6-1.2-1.5-1.2
				C163,146.2,162.4,146.7,162.4,147.4z"/>
		</g>
	</g>
	<g>
		<g class="st2">
			<path d="M178,151.1c0.1,0.3,0.2,0.4,0.3,0.6c0.3,0.3,0.6,0.4,1.1,0.4c0.7,0,1.1-0.3,1.5-0.8c0.2-0.3,0.3-0.7,0.4-1.2
				c0-0.2,0.1-0.6,0.1-1.1c-0.1,0.2-0.2,0.3-0.4,0.5c-0.5,0.4-1,0.6-1.7,0.6c-0.7,0-1.2-0.2-1.6-0.6c-0.4-0.4-0.6-1-0.6-1.6
				c0-1.4,1-2.4,2.5-2.4c1,0,1.9,0.6,2.2,1.5c0.2,0.5,0.3,1.1,0.3,1.9c0,1.3-0.3,2.3-0.8,2.9c-0.5,0.6-1.1,0.8-1.9,0.8
				c-0.6,0-1.1-0.2-1.5-0.5c-0.3-0.2-0.4-0.4-0.6-0.9L178,151.1z M181.2,147.9c0-1-0.7-1.7-1.7-1.7c-0.6,0-1.1,0.3-1.4,0.8
				c-0.1,0.2-0.2,0.6-0.2,1c0,1,0.6,1.7,1.6,1.7C180.4,149.6,181.2,148.9,181.2,147.9z"/>
		</g>
	</g>
	<g>
		<g class="st2">
			<path d="M190.8,145.7c0.2,0,0.4,0,0.8,0h0.6c0.3,0,0.5,0,0.8,0c-0.1,0.6-0.1,1-0.1,1.5v4.4c0,0.4,0,0.7,0.1,1H192
				c0.1-0.3,0.1-0.6,0.1-1v-5.3h-0.5c-0.3,0-0.5,0-0.8,0.1V145.7z"/>
			<path d="M196.6,152.1c-0.2-0.2-0.4-0.5-0.5-0.8c-0.2-0.6-0.3-1.4-0.3-2.1c0-1,0.2-1.9,0.5-2.5c0.4-0.7,1.1-1.1,2-1.1
				c0.7,0,1.3,0.2,1.7,0.6c0.3,0.3,0.4,0.5,0.5,0.8c0.2,0.6,0.3,1.4,0.3,2.1c0,1.1-0.2,2.1-0.6,2.6c-0.5,0.6-1.1,1-1.9,1
				C197.6,152.7,197,152.5,196.6,152.1z M197.1,146.7c-0.2,0.2-0.3,0.4-0.4,0.7c-0.2,0.6-0.3,1.2-0.3,1.8c0,0.8,0.2,1.7,0.4,2.2
				c0.3,0.5,0.8,0.8,1.4,0.8c0.5,0,0.8-0.1,1.1-0.4c0.2-0.2,0.3-0.4,0.4-0.7c0.2-0.6,0.3-1.2,0.3-1.8c0-0.8-0.2-1.7-0.4-2.1
				c-0.3-0.5-0.8-0.8-1.4-0.8C197.8,146.2,197.4,146.4,197.1,146.7z"/>
		</g>
	</g>
	<g>
		<g class="st2">
			<path d="M206.5,145.7c0.2,0,0.4,0,0.8,0h0.6c0.3,0,0.5,0,0.8,0c-0.1,0.6-0.1,1-0.1,1.5v4.4c0,0.4,0,0.7,0.1,1h-0.9
				c0.1-0.3,0.1-0.6,0.1-1v-5.3h-0.5c-0.3,0-0.5,0-0.8,0.1V145.7z"/>
			<path d="M212.4,145.7c0.2,0,0.4,0,0.8,0h0.6c0.3,0,0.5,0,0.8,0c-0.1,0.6-0.1,1-0.1,1.5v4.4c0,0.4,0,0.7,0.1,1h-0.9
				c0.1-0.3,0.1-0.6,0.1-1v-5.3h-0.5c-0.3,0-0.5,0-0.8,0.1V145.7z"/>
		</g>
	</g>
	<g>
		<g class="st2">
			<path d="M238.2,145.7c0.2,0,0.4,0,0.8,0h0.6c0.3,0,0.5,0,0.8,0c-0.1,0.6-0.1,1-0.1,1.5v4.4c0,0.4,0,0.7,0.1,1h-0.9
				c0.1-0.3,0.1-0.6,0.1-1v-5.3H239c-0.3,0-0.5,0-0.8,0.1V145.7z"/>
			<path d="M244.3,152.6c-0.6,0-0.7,0-1,0c0.1-0.7,0.1-0.9,0.3-1.2c0.2-0.6,0.6-1.1,1.2-1.6c0.3-0.3,0.3-0.3,1.4-1
				c0.9-0.6,1.2-1,1.2-1.6c0-0.7-0.6-1.1-1.5-1.1c-0.6,0-1,0.2-1.3,0.6c-0.2,0.2-0.3,0.5-0.3,0.9l-0.8-0.1c0.1-0.7,0.3-1,0.6-1.3
				c0.4-0.5,1-0.7,1.8-0.7c1.4,0,2.3,0.7,2.3,1.8c0,0.5-0.2,0.9-0.5,1.3c-0.3,0.3-0.5,0.5-1.5,1.2c-0.7,0.5-1,0.7-1.3,1.1
				c-0.3,0.4-0.4,0.6-0.5,1.1h2.9c0.5,0,0.8,0,1.1-0.1v0.8c-0.4,0-0.7-0.1-1.1-0.1H244.3z"/>
		</g>
	</g>
	<g>
		<g class="st2">
			<path d="M253.8,145.7c0.2,0,0.4,0,0.8,0h0.6c0.3,0,0.5,0,0.8,0c-0.1,0.6-0.1,1-0.1,1.5v4.4c0,0.4,0,0.7,0.1,1H255
				c0.1-0.3,0.1-0.6,0.1-1v-5.3h-0.5c-0.3,0-0.5,0-0.8,0.1V145.7z"/>
			<path d="M259.5,150.9c0.1,0.5,0.3,0.7,0.6,0.9c0.3,0.2,0.7,0.3,1.2,0.3c1.1,0,1.7-0.5,1.7-1.4c0-0.9-0.6-1.4-1.9-1.4
				c-0.3,0-0.5,0-0.7,0v-0.7c0.2,0,0.4,0.1,0.7,0.1c0.6,0,1-0.1,1.3-0.4c0.2-0.2,0.4-0.6,0.4-0.9c0-0.8-0.5-1.2-1.5-1.2
				c-0.6,0-1,0.2-1.2,0.5c-0.1,0.2-0.2,0.3-0.3,0.6l-0.8-0.2c0.2-0.5,0.3-0.7,0.5-0.9c0.4-0.4,1-0.7,1.8-0.7c1.3,0,2.2,0.7,2.2,1.8
				c0,0.6-0.2,1-0.6,1.3c-0.2,0.2-0.4,0.2-0.9,0.3c0.5,0.1,0.8,0.2,1.1,0.4c0.4,0.3,0.6,0.8,0.6,1.4c0,1.2-0.9,2-2.5,2
				c-0.9,0-1.6-0.3-2-0.7c-0.2-0.2-0.3-0.4-0.5-0.9L259.5,150.9z"/>
		</g>
	</g>
	<g>
		<g class="st2">
			<path d="M269.4,145.7c0.2,0,0.4,0,0.8,0h0.6c0.3,0,0.5,0,0.8,0c-0.1,0.6-0.1,1-0.1,1.5v4.4c0,0.4,0,0.7,0.1,1h-0.9
				c0.1-0.3,0.1-0.6,0.1-1v-5.3h-0.5c-0.3,0-0.5,0-0.8,0.1V145.7z"/>
			<path d="M274.2,150.2c0.2-0.2,0.4-0.5,0.6-0.7l2.3-2.9c0.3-0.4,0.5-0.6,0.7-0.9h0.7c0,0.5-0.1,0.8-0.1,1.5v3h0.3
				c0.4,0,0.6,0,0.9-0.1v0.8c-0.3,0-0.6-0.1-1-0.1h-0.3v0.8c0,0.4,0,0.6,0.1,1h-0.8c0.1-0.3,0.1-0.6,0.1-1v-0.8h-2.4
				c-0.5,0-0.8,0-1.1,0V150.2z M277.7,147.9c0-0.5,0-0.8,0.1-1.2c-0.2,0.3-0.4,0.6-0.7,0.9l-2.1,2.6h2.7V147.9z"/>
		</g>
	</g>
	<g>
		<g class="st2">
			<path d="M285,145.7c0.2,0,0.4,0,0.8,0h0.6c0.3,0,0.5,0,0.8,0c-0.1,0.6-0.1,1-0.1,1.5v4.4c0,0.4,0,0.7,0.1,1h-0.9
				c0.1-0.3,0.1-0.6,0.1-1v-5.3h-0.5c-0.3,0-0.5,0-0.8,0.1V145.7z"/>
			<path d="M291.2,148.3c0,0.2,0,0.2-0.1,0.4c0.4-0.4,1-0.6,1.6-0.6c0.7,0,1.2,0.2,1.6,0.6c0.4,0.4,0.6,0.9,0.6,1.6
				c0,1.5-1,2.4-2.5,2.4c-0.7,0-1.3-0.2-1.7-0.6c-0.2-0.2-0.4-0.4-0.6-0.9l0.7-0.2c0.1,0.3,0.2,0.4,0.3,0.5c0.3,0.3,0.8,0.5,1.3,0.5
				c1,0,1.7-0.7,1.7-1.7c0-1-0.6-1.7-1.6-1.7c-0.5,0-0.9,0.1-1.2,0.4c-0.2,0.2-0.3,0.3-0.4,0.5l-0.7-0.1c0.1-0.4,0.1-0.5,0.1-0.9
				l0.2-2.1c0-0.3,0-0.4,0-0.5c0-0.1,0-0.2,0-0.4c0.3,0,0.4,0,1,0h1.9c0.5,0,0.7,0,1.1-0.1v0.8c-0.3-0.1-0.6-0.1-1.1-0.1h-2.1
				L291.2,148.3z"/>
		</g>
	</g>
	<g>
		<g class="st2">
			<path d="M300.7,145.7c0.2,0,0.4,0,0.8,0h0.6c0.3,0,0.5,0,0.8,0c-0.1,0.6-0.1,1-0.1,1.5v4.4c0,0.4,0,0.7,0.1,1h-0.9
				c0.1-0.3,0.1-0.6,0.1-1v-5.3h-0.5c-0.3,0-0.5,0-0.8,0.1V145.7z"/>
			<path d="M309.7,147.2c-0.1-0.3-0.2-0.4-0.3-0.6c-0.3-0.3-0.6-0.5-1.1-0.5c-0.7,0-1.2,0.4-1.6,1.1c-0.2,0.5-0.3,1-0.4,2
				c0.2-0.3,0.3-0.4,0.5-0.6c0.4-0.4,0.9-0.6,1.5-0.6c1.4,0,2.3,0.9,2.3,2.3c0,1.4-0.9,2.3-2.4,2.3c-0.6,0-1.3-0.2-1.6-0.6
				c-0.6-0.5-0.9-1.6-0.9-2.9c0-1.1,0.3-2.2,0.7-2.7c0.5-0.7,1.1-1,1.9-1c0.5,0,1,0.1,1.4,0.4c0.3,0.2,0.5,0.5,0.8,1L309.7,147.2z
				 M308.3,148.7c-0.5,0-0.9,0.2-1.3,0.5c-0.3,0.3-0.5,0.7-0.5,1.2c0,1,0.7,1.7,1.7,1.7c0.6,0,1.1-0.3,1.4-0.7
				c0.1-0.2,0.2-0.6,0.2-1C309.9,149.3,309.3,148.7,308.3,148.7z"/>
		</g>
	</g>
	<g>
		<g class="st2">
			<path d="M316.3,145.7c0.2,0,0.4,0,0.8,0h0.6c0.3,0,0.5,0,0.8,0c-0.1,0.6-0.1,1-0.1,1.5v4.4c0,0.4,0,0.7,0.1,1h-0.9
				c0.1-0.3,0.1-0.6,0.1-1v-5.3h-0.5c-0.3,0-0.5,0-0.8,0.1V145.7z"/>
			<path d="M326.2,146.3c-0.2,0.1-0.3,0.3-0.7,0.9c-0.8,1.3-1.2,2-1.6,3.1c-0.2,0.8-0.3,1.2-0.5,2.3h-0.9c0.3-1.6,0.5-2.5,1.1-3.6
				c0.4-0.9,0.8-1.5,1.6-2.6h-3c-0.4,0-0.7,0-1,0.1v-0.8c0.4,0,0.6,0.1,1,0.1h2.7c0.5,0,0.7,0,1.1,0V146.3z"/>
		</g>
	</g>
	<g>
		<g class="st2">
			<path d="M331.9,145.7c0.2,0,0.4,0,0.8,0h0.6c0.3,0,0.5,0,0.8,0c-0.1,0.6-0.1,1-0.1,1.5v4.4c0,0.4,0,0.7,0.1,1h-0.9
				c0.1-0.3,0.1-0.6,0.1-1v-5.3h-0.5c-0.3,0-0.5,0-0.8,0.1V145.7z"/>
			<path d="M341.2,149.4c0.5,0.3,0.7,0.8,0.7,1.4c0,1.2-0.9,1.9-2.5,1.9c-1.7,0-2.6-0.7-2.6-1.9c0-0.7,0.3-1.2,0.8-1.5
				c0.3-0.2,0.5-0.3,0.8-0.3c-0.8-0.1-1.3-0.8-1.3-1.6c0-1.1,0.9-1.8,2.2-1.8c1.4,0,2.2,0.7,2.2,1.8c0,0.8-0.5,1.5-1.3,1.6
				C340.7,149,340.9,149.2,341.2,149.4z M337.6,150.8c0,0.9,0.7,1.4,1.8,1.4c0.6,0,1.2-0.2,1.5-0.5c0.2-0.2,0.3-0.5,0.3-0.9
				c0-0.9-0.7-1.4-1.8-1.4S337.6,149.9,337.6,150.8z M337.8,147.4c0,0.8,0.6,1.3,1.5,1.3c1,0,1.5-0.5,1.5-1.3c0-0.8-0.6-1.2-1.5-1.2
				C338.4,146.2,337.8,146.7,337.8,147.4z"/>
		</g>
	</g>
	<g>
		<g class="st2">
			<path d="M347.5,145.7c0.2,0,0.4,0,0.8,0h0.6c0.3,0,0.5,0,0.8,0c-0.1,0.6-0.1,1-0.1,1.5v4.4c0,0.4,0,0.7,0.1,1h-0.9
				c0.1-0.3,0.1-0.6,0.1-1v-5.3h-0.5c-0.3,0-0.5,0-0.8,0.1V145.7z"/>
			<path d="M353.3,151.1c0.1,0.3,0.2,0.4,0.3,0.6c0.3,0.3,0.6,0.4,1.1,0.4c0.7,0,1.1-0.3,1.5-0.8c0.2-0.3,0.3-0.7,0.4-1.2
				c0-0.2,0.1-0.6,0.1-1.1c-0.1,0.2-0.2,0.3-0.4,0.5c-0.5,0.4-1,0.6-1.7,0.6c-0.7,0-1.2-0.2-1.6-0.6c-0.4-0.4-0.6-1-0.6-1.6
				c0-1.4,1-2.4,2.5-2.4c1,0,1.9,0.6,2.2,1.5c0.2,0.5,0.3,1.1,0.3,1.9c0,1.3-0.3,2.3-0.8,2.9c-0.5,0.6-1.1,0.8-1.9,0.8
				c-0.6,0-1.1-0.2-1.5-0.5c-0.3-0.2-0.4-0.4-0.6-0.9L353.3,151.1z M356.6,147.9c0-1-0.7-1.7-1.7-1.7c-0.6,0-1.1,0.3-1.4,0.8
				c-0.1,0.2-0.2,0.6-0.2,1c0,1,0.6,1.7,1.6,1.7C355.8,149.6,356.6,148.9,356.6,147.9z"/>
		</g>
	</g>
	<g>
		<g class="st2">
			<path d="M363.2,152.6c-0.6,0-0.7,0-1,0c0.1-0.7,0.1-0.9,0.3-1.2c0.2-0.6,0.6-1.1,1.2-1.6c0.3-0.3,0.3-0.3,1.4-1
				c0.9-0.6,1.2-1,1.2-1.6c0-0.7-0.6-1.1-1.5-1.1c-0.6,0-1,0.2-1.3,0.6c-0.2,0.2-0.3,0.5-0.3,0.9l-0.8-0.1c0.1-0.7,0.3-1,0.6-1.3
				c0.4-0.5,1-0.7,1.8-0.7c1.4,0,2.3,0.7,2.3,1.8c0,0.5-0.2,0.9-0.5,1.3c-0.3,0.3-0.5,0.5-1.5,1.2c-0.7,0.5-1,0.7-1.3,1.1
				c-0.3,0.4-0.4,0.6-0.5,1.1h2.9c0.5,0,0.8,0,1.1-0.1v0.8c-0.4,0-0.7-0.1-1.1-0.1H363.2z"/>
			<path d="M368.9,152.1c-0.2-0.2-0.4-0.5-0.5-0.8c-0.2-0.6-0.3-1.4-0.3-2.1c0-1,0.2-1.9,0.5-2.5c0.4-0.7,1.1-1.1,2-1.1
				c0.7,0,1.3,0.2,1.7,0.6c0.3,0.3,0.4,0.5,0.5,0.8c0.2,0.6,0.3,1.4,0.3,2.1c0,1.1-0.2,2.1-0.6,2.6c-0.5,0.6-1.1,1-1.9,1
				C369.9,152.7,369.3,152.5,368.9,152.1z M369.4,146.7c-0.2,0.2-0.3,0.4-0.4,0.7c-0.2,0.6-0.3,1.2-0.3,1.8c0,0.8,0.2,1.7,0.4,2.2
				c0.3,0.5,0.8,0.8,1.4,0.8c0.5,0,0.8-0.1,1.1-0.4c0.2-0.2,0.3-0.4,0.4-0.7c0.2-0.6,0.3-1.2,0.3-1.8c0-0.8-0.2-1.7-0.4-2.1
				c-0.3-0.5-0.8-0.8-1.4-0.8C370.1,146.2,369.7,146.4,369.4,146.7z"/>
		</g>
	</g>
	<g>
		<g class="st2">
			<path d="M378.8,152.6c-0.6,0-0.7,0-1,0c0.1-0.7,0.1-0.9,0.3-1.2c0.2-0.6,0.6-1.1,1.2-1.6c0.3-0.3,0.3-0.3,1.4-1
				c0.9-0.6,1.2-1,1.2-1.6c0-0.7-0.6-1.1-1.5-1.1c-0.6,0-1,0.2-1.3,0.6c-0.2,0.2-0.3,0.5-0.3,0.9l-0.8-0.1c0.1-0.7,0.3-1,0.6-1.3
				c0.4-0.5,1-0.7,1.8-0.7c1.4,0,2.3,0.7,2.3,1.8c0,0.5-0.2,0.9-0.5,1.3c-0.3,0.3-0.5,0.5-1.5,1.2c-0.7,0.5-1,0.7-1.3,1.1
				c-0.3,0.4-0.4,0.6-0.5,1.1h2.9c0.5,0,0.8,0,1.1-0.1v0.8c-0.4,0-0.7-0.1-1.1-0.1H378.8z"/>
			<path d="M384.7,145.7c0.2,0,0.4,0,0.8,0h0.6c0.3,0,0.5,0,0.8,0c-0.1,0.6-0.1,1-0.1,1.5v4.4c0,0.4,0,0.7,0.1,1h-0.9
				c0.1-0.3,0.1-0.6,0.1-1v-5.3h-0.5c-0.3,0-0.5,0-0.8,0.1V145.7z"/>
		</g>
	</g>
	<g>
		<g class="st2">
			<path d="M229.3,171.4c-0.1-0.3-0.2-0.6-0.3-0.9l-0.5-1.2h-3.2l-0.5,1.2c-0.1,0.3-0.2,0.6-0.3,0.9h-0.9c0.2-0.3,0.2-0.4,0.5-1l2-5
				c0.2-0.4,0.2-0.6,0.3-0.8h0.9c0,0.2,0.1,0.3,0.3,0.8l2,5c0.2,0.5,0.3,0.8,0.5,1H229.3z M227.2,165.7c0-0.1,0-0.1-0.2-0.6
				c0,0.1-0.1,0.2-0.1,0.3c-0.1,0.1-0.1,0.2-0.1,0.3l-1.2,3h2.7L227.2,165.7z"/>
		</g>
	</g>
	<g>
		<g class="st2">
			<path d="M225.4,197.6c-0.4,0-0.7,0-1,0c0.1-0.4,0.1-0.6,0.1-1.1v-4.9c0-0.4,0-0.6-0.1-1c0.3,0,0.5,0,1,0h1.9
				c1.3,0,2.1,0.6,2.1,1.7c0,0.5-0.2,0.9-0.5,1.2c-0.2,0.2-0.4,0.2-0.7,0.4c0.4,0.1,0.6,0.2,0.9,0.4c0.4,0.3,0.6,0.8,0.6,1.4
				c0,1.2-0.8,1.9-2.2,1.9H225.4z M227.3,193.7c0.8,0,1.3-0.4,1.3-1.2c0-0.8-0.5-1.1-1.4-1.1h-2.1v2.3H227.3z M225.2,197h2.2
				c1,0,1.5-0.5,1.5-1.3c0-0.9-0.5-1.4-1.5-1.4h-2.2V197z"/>
		</g>
	</g>
	<g>
		<g class="st2">
			<path d="M229.1,218.9c-0.1-0.4-0.2-0.6-0.4-0.8c-0.4-0.4-0.9-0.7-1.6-0.7c-1.5,0-2.4,1.1-2.4,2.9c0,1.8,0.9,2.9,2.4,2.9
				c0.7,0,1.3-0.3,1.7-0.8c0.2-0.3,0.3-0.5,0.4-0.9l0.8,0.2c-0.2,0.5-0.3,0.8-0.5,1.1c-0.5,0.7-1.3,1.1-2.4,1.1
				c-0.9,0-1.6-0.3-2.1-0.8c-0.6-0.6-1-1.6-1-2.8c0-1.2,0.4-2.2,1-2.8c0.5-0.5,1.2-0.8,2.1-0.8c0.9,0,1.5,0.2,2,0.7
				c0.3,0.3,0.5,0.6,0.7,1.1L229.1,218.9z"/>
		</g>
	</g>
	<g>
		<g class="st2">
			<path d="M224.3,244.2c0-0.4,0-0.7-0.1-1c0.3,0,0.6,0,1,0h1.5c2,0,3.2,1.2,3.2,3.4c0,1.1-0.3,2.1-1,2.7c-0.5,0.5-1.3,0.8-2.2,0.8
				h-1.5c-0.4,0-0.7,0-1,0c0.1-0.4,0.1-0.6,0.1-1.1V244.2z M226.7,249.5c0.7,0,1.3-0.2,1.7-0.6c0.5-0.5,0.8-1.3,0.8-2.2
				c0-0.9-0.2-1.7-0.7-2.2c-0.4-0.4-1-0.6-1.7-0.6H225v5.6H226.7z"/>
		</g>
	</g>
	<g>
		<g class="st2">
			<path d="M229.4,276.4c-0.3,0-0.5-0.1-1-0.1h-2.7c-0.4,0-0.7,0-1,0c0.1-0.3,0.1-0.6,0.1-1.1v-4.8c0-0.4,0-0.6-0.1-1
				c0.3,0,0.6,0,1,0h2.6c0.4,0,0.7,0,1-0.1v0.8c-0.3,0-0.6-0.1-1-0.1h-2.8v2.3h2.4c0.4,0,0.7,0,1-0.1v0.8c-0.3,0-0.5-0.1-1-0.1h-2.4
				v2.7h2.9c0.4,0,0.7,0,1-0.1V276.4z"/>
		</g>
	</g>
	<g>
		<g class="st2">
			<path d="M225.7,301.6c0,0.5,0,0.7,0.1,1.1h-0.9c0.1-0.3,0.1-0.6,0.1-1.1v-4.8c0-0.4,0-0.7-0.1-1c0.3,0,0.6,0,1,0h2.4
				c0.4,0,0.7,0,1-0.1v0.8c-0.3,0-0.6-0.1-1-0.1h-2.6v2.3h2.1c0.4,0,0.7,0,1-0.1v0.8c-0.3,0-0.6-0.1-1-0.1h-2.1V301.6z"/>
		</g>
	</g>
	<g>
		<g class="st2">
			<path d="M228.5,326c-0.5,0-0.7,0-0.9,0.1v-0.7c0.3,0,0.5,0.1,1,0.1h0.3c0.4,0,0.7,0,1,0c-0.1,0.4-0.1,0.6-0.1,1v0.8
				c0,0.4,0,0.6,0.1,1c-0.5,0.3-0.8,0.4-1.2,0.6c-0.4,0.1-0.9,0.2-1.4,0.2c-0.9,0-1.5-0.2-2.1-0.7c-0.7-0.6-1.1-1.7-1.1-2.9
				c0-2.2,1.2-3.6,3.2-3.6c0.8,0,1.5,0.2,1.9,0.7c0.3,0.3,0.5,0.5,0.7,1l-0.7,0.2c-0.3-0.9-0.9-1.3-1.9-1.3c-1.5,0-2.4,1.1-2.4,2.9
				c0,1,0.3,1.8,0.8,2.3c0.4,0.4,1,0.7,1.7,0.7s1.3-0.2,1.8-0.5V326H228.5z"/>
		</g>
	</g>
	<g>
		<g class="st2">
			<path d="M229.8,348.2c-0.1,0.3-0.1,0.6-0.1,1v4.9c0,0.4,0,0.7,0.1,1h-0.9c0.1-0.3,0.1-0.6,0.1-1v-2.3h-4.1v2.3c0,0.5,0,0.7,0.1,1
				h-0.9c0.1-0.3,0.1-0.6,0.1-1v-4.9c0-0.4,0-0.7-0.1-1h0.9c-0.1,0.3-0.1,0.6-0.1,1v1.9h4.1v-1.9c0-0.4,0-0.7-0.1-1H229.8z"/>
		</g>
	</g>
	<g>
		<g class="st2">
			<path d="M227.4,374.5c-0.1,0.3-0.1,0.6-0.1,1v4.9c0,0.4,0,0.7,0.1,1h-0.9c0.1-0.3,0.1-0.6,0.1-1v-4.9c0-0.5,0-0.7-0.1-1H227.4z"
				/>
		</g>
	</g>
	<g>
		<g class="st2">
			<path d="M228.6,400.7c-0.1,0.3-0.1,0.6-0.1,1v4.1c0,0.6-0.1,1-0.4,1.4c-0.3,0.4-0.8,0.6-1.5,0.6c-0.6,0-1.2-0.2-1.5-0.5
				c-0.2-0.2-0.3-0.3-0.5-0.7l0.7-0.3c0.1,0.3,0.2,0.4,0.3,0.5c0.2,0.2,0.5,0.4,0.9,0.4c0.8,0,1.1-0.4,1.1-1.3v-4.1
				c0-0.4,0-0.7-0.1-1H228.6z"/>
		</g>
	</g>
	<g>
		<g class="st2">
			<path d="M229.2,432.9c0.5,0.7,0.6,0.8,0.9,1H229c-0.1-0.2-0.3-0.5-0.5-0.8l-2.1-2.8l-1.1,1v1.5c0,0.5,0,0.7,0.1,1h-0.8
				c0.1-0.3,0.1-0.6,0.1-1V428c0-0.4,0-0.7-0.1-1h0.8c-0.1,0.3-0.1,0.6-0.1,1v2.5l2.8-2.8c0.3-0.3,0.5-0.5,0.6-0.8h1.1
				c-0.2,0.2-0.2,0.2-0.2,0.2c-0.1,0.1-0.3,0.3-0.4,0.4c-0.2,0.2-0.3,0.3-0.3,0.3l-2,2L229.2,432.9z"/>
		</g>
	</g>
	<g>
		<g class="st2">
			<path d="M224.5,481.3c-0.1-0.3-0.2-0.6-0.4-1.1c0,0.4,0.1,1,0.1,1.2v3.9c0,0.5,0,0.8,0.1,1.1h-0.8c0.1-0.3,0.1-0.6,0.1-1.1v-4.8
				c0-0.5,0-0.7-0.1-1.1h1.1c0.1,0.3,0.2,0.6,0.3,0.9l2.2,5l2.2-5c0.2-0.4,0.3-0.6,0.3-0.9h1c-0.1,0.3-0.1,0.6-0.1,1.1v4.8
				c0,0.5,0,0.7,0.1,1.1h-0.8c0.1-0.3,0.1-0.6,0.1-1.1v-3.9c0-0.3,0-0.7,0.1-1.1c-0.1,0.4-0.2,0.7-0.4,1.1l-1.9,4.1
				c-0.2,0.4-0.3,0.6-0.3,0.9h-0.6c0-0.2-0.2-0.5-0.3-1L224.5,481.3z"/>
		</g>
	</g>
	<g>
		<g class="st2">
			<path d="M225.9,460.1c-0.4,0-0.7,0-1,0c0.1-0.3,0.1-0.6,0.1-1.1v-4.8c0-0.5,0-0.8-0.1-1.1h0.9c-0.1,0.3-0.1,0.6-0.1,1.1v5.2h2.9
				c0.5,0,0.7,0,1.1-0.1v0.8c-0.3,0-0.5-0.1-1.1-0.1H225.9z"/>
		</g>
	</g>
	<g class="st2">
		<path d="M199.1,110.2c-0.8-1-1.9-2.1-3.2-3.1c-0.7,0.8-1.2,1.3-1.9,1.8c-0.7,0.5-1.2,0.8-1.9,1.2c-0.2-0.3-0.2-0.4-0.5-0.7
			c0.8-0.3,1.3-0.6,2-1.1c1.6-1.2,2.8-2.7,3.5-4.5c0-0.1,0-0.1,0-0.1c0,0,0,0,0-0.1c-0.1,0-0.1,0-0.2,0l-3.3,0c-0.4,0-0.7,0-1,0.1
			l0-0.8c0.3,0,0.4,0,0.8,0c0,0,0.1,0,0.3,0l3.5,0c0.3,0,0.5,0,0.6-0.1l0.4,0.4c-0.1,0.1-0.2,0.2-0.3,0.5c-0.6,1.2-1,2-1.6,2.8
			c1.3,1,2.2,1.8,3.3,3L199.1,110.2z"/>
		<path d="M204.7,102.2c-0.1,0.1-0.1,0.1-0.2,0.4c-0.3,0.5-0.3,0.7-0.5,0.9c0.1,0,0.1,0,3-0.1c0.3,0,0.4,0,0.5-0.1l0.4,0.4
			c-0.1,0.1-0.1,0.1-0.2,0.5c-0.4,1.4-1.1,2.8-2,3.7c-0.9,1-2,1.8-3.5,2.5c-0.2-0.3-0.2-0.4-0.5-0.6c1.5-0.6,2.6-1.4,3.5-2.5
			c0.8-0.9,1.4-2.1,1.7-3.3l-3.3,0.1c-0.6,1-1.4,1.8-2.4,2.6c-0.2-0.2-0.3-0.3-0.6-0.5c1.1-0.7,1.8-1.5,2.5-2.7
			c0.4-0.7,0.6-1.1,0.6-1.5L204.7,102.2z"/>
		<path d="M211.1,102.5c0,0.2,0,0.4,0,0.8v2.7c0,0.5,0,0.6,0,0.8h-0.8c0-0.2,0-0.4,0-0.8v-2.7c0-0.4,0-0.6,0-0.8H211.1z
			 M215.5,102.5c0,0.2,0,0.4,0,0.9v1.2c0,1.6-0.1,2.5-0.2,3c-0.3,0.9-0.9,1.7-1.9,2.2c-0.5,0.3-1,0.5-1.8,0.7
			c-0.1-0.3-0.2-0.4-0.4-0.7c0.9-0.2,1.4-0.4,1.9-0.7c0.9-0.5,1.4-1.2,1.6-2.1c0.1-0.6,0.1-1,0.1-2.5v-1.1c0-0.5,0-0.7,0-0.9H215.5z
			"/>
		<path d="M217.8,105.9c0.3,0,0.6,0.1,1.2,0.1h5.8c0.7,0,0.9,0,1.2,0v0.8c-0.3,0-0.5,0-1.2,0H219c-0.7,0-0.9,0-1.2,0V105.9z"/>
	</g>
	<g class="st2">
		<path d="M231.7,109.3c0.8,0,2-0.3,2.9-0.8c1.9-0.9,3.2-2.3,4.1-4.4c0.2,0.3,0.3,0.4,0.6,0.6c-0.8,1.7-1.7,2.9-3,3.8
			c-1,0.7-2,1.1-3.7,1.5c-0.3,0.1-0.3,0.1-0.6,0.2L231.7,109.3z M232.3,103.1c1.1,0.7,1.7,1.2,2.4,1.9l-0.5,0.6
			c-0.7-0.8-1.5-1.4-2.4-1.9L232.3,103.1z"/>
	</g>
	<g class="st2">
		<path d="M244.9,102c0.3,0,0.4,0,0.8,0h0.6c0.3,0,0.5,0,0.8,0c-0.1,0.6-0.1,1.1-0.1,1.6v4.8c0,0.5,0,0.8,0.1,1.1h-0.9
			c0.1-0.3,0.1-0.7,0.1-1.1v-5.8h-0.5c-0.3,0-0.6,0-0.9,0.1V102z"/>
	</g>
	<path class="st1" d="M247,175.5h-7.4c-1.1,0-2-0.9-2-2v-10.2c0-1.1,0.9-2,2-2h7.4c1.1,0,2,0.9,2,2v10.2
		C249,174.6,248.1,175.5,247,175.5z"/>
	<path class="st1" d="M262.6,175.5h-7.4c-1.1,0-2-0.9-2-2v-10.2c0-1.1,0.9-2,2-2h7.4c1.1,0,2,0.9,2,2v10.2
		C264.6,174.6,263.7,175.5,262.6,175.5z"/>
	<path class="st1" d="M278.2,175.5h-7.4c-1.1,0-2-0.9-2-2v-10.2c0-1.1,0.9-2,2-2h7.4c1.1,0,2,0.9,2,2v10.2
		C280.2,174.6,279.3,175.5,278.2,175.5z"/>
	<path class="st1" d="M293.8,175.5h-7.4c-1.1,0-2-0.9-2-2v-10.2c0-1.1,0.9-2,2-2h7.4c1.1,0,2,0.9,2,2v10.2
		C295.8,174.6,294.9,175.5,293.8,175.5z"/>
	<path class="st1" d="M309.4,175.5H302c-1.1,0-2-0.9-2-2v-10.2c0-1.1,0.9-2,2-2h7.4c1.1,0,2,0.9,2,2v10.2
		C311.4,174.6,310.5,175.5,309.4,175.5z"/>
	<path class="st1" d="M325,175.5h-7.4c-1.1,0-2-0.9-2-2v-10.2c0-1.1,0.9-2,2-2h7.4c1.1,0,2,0.9,2,2v10.2
		C327,174.6,326.1,175.5,325,175.5z"/>
	<path class="st1" d="M340.7,175.5h-7.4c-1.1,0-2-0.9-2-2v-10.2c0-1.1,0.9-2,2-2h7.4c1.1,0,2,0.9,2,2v10.2
		C342.7,174.6,341.8,175.5,340.7,175.5z"/>
	<path class="st1" d="M356.3,175.5h-7.4c-1.1,0-2-0.9-2-2v-10.2c0-1.1,0.9-2,2-2h7.4c1.1,0,2,0.9,2,2v10.2
		C358.3,174.6,357.4,175.5,356.3,175.5z"/>
	<path class="st1" d="M371.9,175.5h-7.4c-1.1,0-2-0.9-2-2v-10.2c0-1.1,0.9-2,2-2h7.4c1.1,0,2,0.9,2,2v10.2
		C373.9,174.6,373,175.5,371.9,175.5z"/>
	<path class="st1" d="M387.5,175.5h-7.4c-1.1,0-2-0.9-2-2v-10.2c0-1.1,0.9-2,2-2h7.4c1.1,0,2,0.9,2,2v10.2
		C389.5,174.6,388.6,175.5,387.5,175.5z"/>
	<path class="st1" d="M247,201.8h-7.4c-1.1,0-2-0.9-2-2v-10.2c0-1.1,0.9-2,2-2h7.4c1.1,0,2,0.9,2,2v10.2
		C249,200.9,248.1,201.8,247,201.8z"/>
	<path class="st1" d="M262.6,201.8h-7.4c-1.1,0-2-0.9-2-2v-10.2c0-1.1,0.9-2,2-2h7.4c1.1,0,2,0.9,2,2v10.2
		C264.6,200.9,263.7,201.8,262.6,201.8z"/>
	<path class="st1" d="M278.2,201.8h-7.4c-1.1,0-2-0.9-2-2v-10.2c0-1.1,0.9-2,2-2h7.4c1.1,0,2,0.9,2,2v10.2
		C280.2,200.9,279.3,201.8,278.2,201.8z"/>
	<path class="st1" d="M293.8,201.8h-7.4c-1.1,0-2-0.9-2-2v-10.2c0-1.1,0.9-2,2-2h7.4c1.1,0,2,0.9,2,2v10.2
		C295.8,200.9,294.9,201.8,293.8,201.8z"/>
	<path class="st1" d="M309.4,201.8H302c-1.1,0-2-0.9-2-2v-10.2c0-1.1,0.9-2,2-2h7.4c1.1,0,2,0.9,2,2v10.2
		C311.4,200.9,310.5,201.8,309.4,201.8z"/>
	<path class="st1" d="M325,201.8h-7.4c-1.1,0-2-0.9-2-2v-10.2c0-1.1,0.9-2,2-2h7.4c1.1,0,2,0.9,2,2v10.2
		C327,200.9,326.1,201.8,325,201.8z"/>
	<path class="st1" d="M340.7,201.8h-7.4c-1.1,0-2-0.9-2-2v-10.2c0-1.1,0.9-2,2-2h7.4c1.1,0,2,0.9,2,2v10.2
		C342.7,200.9,341.8,201.8,340.7,201.8z"/>
	<path class="st1" d="M356.3,201.8h-7.4c-1.1,0-2-0.9-2-2v-10.2c0-1.1,0.9-2,2-2h7.4c1.1,0,2,0.9,2,2v10.2
		C358.3,200.9,357.4,201.8,356.3,201.8z"/>
	<path class="st1" d="M371.9,201.8h-7.4c-1.1,0-2-0.9-2-2v-10.2c0-1.1,0.9-2,2-2h7.4c1.1,0,2,0.9,2,2v10.2
		C373.9,200.9,373,201.8,371.9,201.8z"/>
	<path class="st1" d="M387.5,201.8h-7.4c-1.1,0-2-0.9-2-2v-10.2c0-1.1,0.9-2,2-2h7.4c1.1,0,2,0.9,2,2v10.2
		C389.5,200.9,388.6,201.8,387.5,201.8z"/>
	<path class="st1" d="M247,228h-7.4c-1.1,0-2-0.9-2-2v-10.2c0-1.1,0.9-2,2-2h7.4c1.1,0,2,0.9,2,2V226C249,227.1,248.1,228,247,228z"
		/>
	<path class="st1" d="M262.6,228h-7.4c-1.1,0-2-0.9-2-2v-10.2c0-1.1,0.9-2,2-2h7.4c1.1,0,2,0.9,2,2V226
		C264.6,227.1,263.7,228,262.6,228z"/>
	<path class="st1" d="M278.2,228h-7.4c-1.1,0-2-0.9-2-2v-10.2c0-1.1,0.9-2,2-2h7.4c1.1,0,2,0.9,2,2V226
		C280.2,227.1,279.3,228,278.2,228z"/>
	<path class="st1" d="M293.8,228h-7.4c-1.1,0-2-0.9-2-2v-10.2c0-1.1,0.9-2,2-2h7.4c1.1,0,2,0.9,2,2V226
		C295.8,227.1,294.9,228,293.8,228z"/>
	<path class="st1" d="M309.4,228H302c-1.1,0-2-0.9-2-2v-10.2c0-1.1,0.9-2,2-2h7.4c1.1,0,2,0.9,2,2V226
		C311.4,227.1,310.5,228,309.4,228z"/>
	<path class="st1" d="M325,228h-7.4c-1.1,0-2-0.9-2-2v-10.2c0-1.1,0.9-2,2-2h7.4c1.1,0,2,0.9,2,2V226C327,227.1,326.1,228,325,228z"
		/>
	<path class="st1" d="M340.7,228h-7.4c-1.1,0-2-0.9-2-2v-10.2c0-1.1,0.9-2,2-2h7.4c1.1,0,2,0.9,2,2V226
		C342.7,227.1,341.8,228,340.7,228z"/>
	<path class="st1" d="M356.3,228h-7.4c-1.1,0-2-0.9-2-2v-10.2c0-1.1,0.9-2,2-2h7.4c1.1,0,2,0.9,2,2V226
		C358.3,227.1,357.4,228,356.3,228z"/>
	<path class="st1" d="M371.9,228h-7.4c-1.1,0-2-0.9-2-2v-10.2c0-1.1,0.9-2,2-2h7.4c1.1,0,2,0.9,2,2V226
		C373.9,227.1,373,228,371.9,228z"/>
	<path class="st1" d="M387.5,228h-7.4c-1.1,0-2-0.9-2-2v-10.2c0-1.1,0.9-2,2-2h7.4c1.1,0,2,0.9,2,2V226
		C389.5,227.1,388.6,228,387.5,228z"/>
	<path class="st1" d="M247,254.3h-7.4c-1.1,0-2-0.9-2-2v-10.2c0-1.1,0.9-2,2-2h7.4c1.1,0,2,0.9,2,2v10.2
		C249,253.4,248.1,254.3,247,254.3z"/>
	<path class="st1" d="M262.6,254.3h-7.4c-1.1,0-2-0.9-2-2v-10.2c0-1.1,0.9-2,2-2h7.4c1.1,0,2,0.9,2,2v10.2
		C264.6,253.4,263.7,254.3,262.6,254.3z"/>
	<path class="st1" d="M278.2,254.3h-7.4c-1.1,0-2-0.9-2-2v-10.2c0-1.1,0.9-2,2-2h7.4c1.1,0,2,0.9,2,2v10.2
		C280.2,253.4,279.3,254.3,278.2,254.3z"/>
	<path class="st1" d="M293.8,254.3h-7.4c-1.1,0-2-0.9-2-2v-10.2c0-1.1,0.9-2,2-2h7.4c1.1,0,2,0.9,2,2v10.2
		C295.8,253.4,294.9,254.3,293.8,254.3z"/>
	<path class="st1" d="M309.4,254.3H302c-1.1,0-2-0.9-2-2v-10.2c0-1.1,0.9-2,2-2h7.4c1.1,0,2,0.9,2,2v10.2
		C311.4,253.4,310.5,254.3,309.4,254.3z"/>
	<path class="st1" d="M325,254.3h-7.4c-1.1,0-2-0.9-2-2v-10.2c0-1.1,0.9-2,2-2h7.4c1.1,0,2,0.9,2,2v10.2
		C327,253.4,326.1,254.3,325,254.3z"/>
	<path class="st1" d="M340.7,254.3h-7.4c-1.1,0-2-0.9-2-2v-10.2c0-1.1,0.9-2,2-2h7.4c1.1,0,2,0.9,2,2v10.2
		C342.7,253.4,341.8,254.3,340.7,254.3z"/>
	<path class="st1" d="M356.3,254.3h-7.4c-1.1,0-2-0.9-2-2v-10.2c0-1.1,0.9-2,2-2h7.4c1.1,0,2,0.9,2,2v10.2
		C358.3,253.4,357.4,254.3,356.3,254.3z"/>
	<path class="st1" d="M371.9,254.3h-7.4c-1.1,0-2-0.9-2-2v-10.2c0-1.1,0.9-2,2-2h7.4c1.1,0,2,0.9,2,2v10.2
		C373.9,253.4,373,254.3,371.9,254.3z"/>
	<path class="st1" d="M387.5,254.3h-7.4c-1.1,0-2-0.9-2-2v-10.2c0-1.1,0.9-2,2-2h7.4c1.1,0,2,0.9,2,2v10.2
		C389.5,253.4,388.6,254.3,387.5,254.3z"/>
	<path class="st1" d="M247,280.6h-7.4c-1.1,0-2-0.9-2-2v-10.2c0-1.1,0.9-2,2-2h7.4c1.1,0,2,0.9,2,2v10.2
		C249,279.7,248.1,280.6,247,280.6z"/>
	<path class="st1" d="M262.6,280.6h-7.4c-1.1,0-2-0.9-2-2v-10.2c0-1.1,0.9-2,2-2h7.4c1.1,0,2,0.9,2,2v10.2
		C264.6,279.7,263.7,280.6,262.6,280.6z"/>
	<path class="st1" d="M278.2,280.6h-7.4c-1.1,0-2-0.9-2-2v-10.2c0-1.1,0.9-2,2-2h7.4c1.1,0,2,0.9,2,2v10.2
		C280.2,279.7,279.3,280.6,278.2,280.6z"/>
	<path class="st1" d="M293.8,280.6h-7.4c-1.1,0-2-0.9-2-2v-10.2c0-1.1,0.9-2,2-2h7.4c1.1,0,2,0.9,2,2v10.2
		C295.8,279.7,294.9,280.6,293.8,280.6z"/>
	<path class="st1" d="M309.4,280.6H302c-1.1,0-2-0.9-2-2v-10.2c0-1.1,0.9-2,2-2h7.4c1.1,0,2,0.9,2,2v10.2
		C311.4,279.7,310.5,280.6,309.4,280.6z"/>
	<path class="st1" d="M325,280.6h-7.4c-1.1,0-2-0.9-2-2v-10.2c0-1.1,0.9-2,2-2h7.4c1.1,0,2,0.9,2,2v10.2
		C327,279.7,326.1,280.6,325,280.6z"/>
	<path class="st1" d="M340.7,280.6h-7.4c-1.1,0-2-0.9-2-2v-10.2c0-1.1,0.9-2,2-2h7.4c1.1,0,2,0.9,2,2v10.2
		C342.7,279.7,341.8,280.6,340.7,280.6z"/>
	<path class="st1" d="M356.3,280.6h-7.4c-1.1,0-2-0.9-2-2v-10.2c0-1.1,0.9-2,2-2h7.4c1.1,0,2,0.9,2,2v10.2
		C358.3,279.7,357.4,280.6,356.3,280.6z"/>
	<path class="st1" d="M371.9,280.6h-7.4c-1.1,0-2-0.9-2-2v-10.2c0-1.1,0.9-2,2-2h7.4c1.1,0,2,0.9,2,2v10.2
		C373.9,279.7,373,280.6,371.9,280.6z"/>
	<path class="st1" d="M387.5,280.6h-7.4c-1.1,0-2-0.9-2-2v-10.2c0-1.1,0.9-2,2-2h7.4c1.1,0,2,0.9,2,2v10.2
		C389.5,279.7,388.6,280.6,387.5,280.6z"/>
	<path class="st1" d="M247,306.8h-7.4c-1.1,0-2-0.9-2-2v-10.2c0-1.1,0.9-2,2-2h7.4c1.1,0,2,0.9,2,2v10.2
		C249,305.9,248.1,306.8,247,306.8z"/>
	<path class="st1" d="M262.6,306.8h-7.4c-1.1,0-2-0.9-2-2v-10.2c0-1.1,0.9-2,2-2h7.4c1.1,0,2,0.9,2,2v10.2
		C264.6,305.9,263.7,306.8,262.6,306.8z"/>
	<path class="st1" d="M278.2,306.8h-7.4c-1.1,0-2-0.9-2-2v-10.2c0-1.1,0.9-2,2-2h7.4c1.1,0,2,0.9,2,2v10.2
		C280.2,305.9,279.3,306.8,278.2,306.8z"/>
	<path class="st1" d="M293.8,306.8h-7.4c-1.1,0-2-0.9-2-2v-10.2c0-1.1,0.9-2,2-2h7.4c1.1,0,2,0.9,2,2v10.2
		C295.8,305.9,294.9,306.8,293.8,306.8z"/>
	<path class="st1" d="M309.4,306.8H302c-1.1,0-2-0.9-2-2v-10.2c0-1.1,0.9-2,2-2h7.4c1.1,0,2,0.9,2,2v10.2
		C311.4,305.9,310.5,306.8,309.4,306.8z"/>
	<path class="st1" d="M325,306.8h-7.4c-1.1,0-2-0.9-2-2v-10.2c0-1.1,0.9-2,2-2h7.4c1.1,0,2,0.9,2,2v10.2
		C327,305.9,326.1,306.8,325,306.8z"/>
	<path class="st1" d="M340.7,306.8h-7.4c-1.1,0-2-0.9-2-2v-10.2c0-1.1,0.9-2,2-2h7.4c1.1,0,2,0.9,2,2v10.2
		C342.7,305.9,341.8,306.8,340.7,306.8z"/>
	<path class="st1" d="M356.3,306.8h-7.4c-1.1,0-2-0.9-2-2v-10.2c0-1.1,0.9-2,2-2h7.4c1.1,0,2,0.9,2,2v10.2
		C358.3,305.9,357.4,306.8,356.3,306.8z"/>
	<path class="st1" d="M371.9,306.8h-7.4c-1.1,0-2-0.9-2-2v-10.2c0-1.1,0.9-2,2-2h7.4c1.1,0,2,0.9,2,2v10.2
		C373.9,305.9,373,306.8,371.9,306.8z"/>
	<path class="st1" d="M387.5,306.8h-7.4c-1.1,0-2-0.9-2-2v-10.2c0-1.1,0.9-2,2-2h7.4c1.1,0,2,0.9,2,2v10.2
		C389.5,305.9,388.6,306.8,387.5,306.8z"/>
	<path class="st1" d="M247,333.1h-7.4c-1.1,0-2-0.9-2-2v-10.2c0-1.1,0.9-2,2-2h7.4c1.1,0,2,0.9,2,2v10.2
		C249,332.2,248.1,333.1,247,333.1z"/>
	<path class="st1" d="M262.6,333.1h-7.4c-1.1,0-2-0.9-2-2v-10.2c0-1.1,0.9-2,2-2h7.4c1.1,0,2,0.9,2,2v10.2
		C264.6,332.2,263.7,333.1,262.6,333.1z"/>
	<path class="st1" d="M278.2,333.1h-7.4c-1.1,0-2-0.9-2-2v-10.2c0-1.1,0.9-2,2-2h7.4c1.1,0,2,0.9,2,2v10.2
		C280.2,332.2,279.3,333.1,278.2,333.1z"/>
	<path class="st1" d="M293.8,333.1h-7.4c-1.1,0-2-0.9-2-2v-10.2c0-1.1,0.9-2,2-2h7.4c1.1,0,2,0.9,2,2v10.2
		C295.8,332.2,294.9,333.1,293.8,333.1z"/>
	<path class="st1" d="M309.4,333.1H302c-1.1,0-2-0.9-2-2v-10.2c0-1.1,0.9-2,2-2h7.4c1.1,0,2,0.9,2,2v10.2
		C311.4,332.2,310.5,333.1,309.4,333.1z"/>
	<path class="st1" d="M325,333.1h-7.4c-1.1,0-2-0.9-2-2v-10.2c0-1.1,0.9-2,2-2h7.4c1.1,0,2,0.9,2,2v10.2
		C327,332.2,326.1,333.1,325,333.1z"/>
	<path class="st1" d="M340.7,333.1h-7.4c-1.1,0-2-0.9-2-2v-10.2c0-1.1,0.9-2,2-2h7.4c1.1,0,2,0.9,2,2v10.2
		C342.7,332.2,341.8,333.1,340.7,333.1z"/>
	<path class="st1" d="M356.3,333.1h-7.4c-1.1,0-2-0.9-2-2v-10.2c0-1.1,0.9-2,2-2h7.4c1.1,0,2,0.9,2,2v10.2
		C358.3,332.2,357.4,333.1,356.3,333.1z"/>
	<path class="st1" d="M371.9,333.1h-7.4c-1.1,0-2-0.9-2-2v-10.2c0-1.1,0.9-2,2-2h7.4c1.1,0,2,0.9,2,2v10.2
		C373.9,332.2,373,333.1,371.9,333.1z"/>
	<path class="st1" d="M387.5,333.1h-7.4c-1.1,0-2-0.9-2-2v-10.2c0-1.1,0.9-2,2-2h7.4c1.1,0,2,0.9,2,2v10.2
		C389.5,332.2,388.6,333.1,387.5,333.1z"/>
	<path class="st1" d="M247,359.3h-7.4c-1.1,0-2-0.9-2-2v-10.2c0-1.1,0.9-2,2-2h7.4c1.1,0,2,0.9,2,2v10.2
		C249,358.4,248.1,359.3,247,359.3z"/>
	<path class="st1" d="M262.6,359.3h-7.4c-1.1,0-2-0.9-2-2v-10.2c0-1.1,0.9-2,2-2h7.4c1.1,0,2,0.9,2,2v10.2
		C264.6,358.4,263.7,359.3,262.6,359.3z"/>
	<path class="st1" d="M278.2,359.3h-7.4c-1.1,0-2-0.9-2-2v-10.2c0-1.1,0.9-2,2-2h7.4c1.1,0,2,0.9,2,2v10.2
		C280.2,358.4,279.3,359.3,278.2,359.3z"/>
	<path class="st1" d="M293.8,359.3h-7.4c-1.1,0-2-0.9-2-2v-10.2c0-1.1,0.9-2,2-2h7.4c1.1,0,2,0.9,2,2v10.2
		C295.8,358.4,294.9,359.3,293.8,359.3z"/>
	<path class="st1" d="M309.4,359.3H302c-1.1,0-2-0.9-2-2v-10.2c0-1.1,0.9-2,2-2h7.4c1.1,0,2,0.9,2,2v10.2
		C311.4,358.4,310.5,359.3,309.4,359.3z"/>
	<path class="st1" d="M325,359.3h-7.4c-1.1,0-2-0.9-2-2v-10.2c0-1.1,0.9-2,2-2h7.4c1.1,0,2,0.9,2,2v10.2
		C327,358.4,326.1,359.3,325,359.3z"/>
	<path class="st1" d="M340.7,359.3h-7.4c-1.1,0-2-0.9-2-2v-10.2c0-1.1,0.9-2,2-2h7.4c1.1,0,2,0.9,2,2v10.2
		C342.7,358.4,341.8,359.3,340.7,359.3z"/>
	<path class="st1" d="M356.3,359.3h-7.4c-1.1,0-2-0.9-2-2v-10.2c0-1.1,0.9-2,2-2h7.4c1.1,0,2,0.9,2,2v10.2
		C358.3,358.4,357.4,359.3,356.3,359.3z"/>
	<path class="st1" d="M371.9,359.3h-7.4c-1.1,0-2-0.9-2-2v-10.2c0-1.1,0.9-2,2-2h7.4c1.1,0,2,0.9,2,2v10.2
		C373.9,358.4,373,359.3,371.9,359.3z"/>
	<path class="st1" d="M387.5,359.3h-7.4c-1.1,0-2-0.9-2-2v-10.2c0-1.1,0.9-2,2-2h7.4c1.1,0,2,0.9,2,2v10.2
		C389.5,358.4,388.6,359.3,387.5,359.3z"/>
	<path class="st1" d="M247,385.6h-7.4c-1.1,0-2-0.9-2-2v-10.2c0-1.1,0.9-2,2-2h7.4c1.1,0,2,0.9,2,2v10.2
		C249,384.7,248.1,385.6,247,385.6z"/>
	<path class="st1" d="M262.6,385.6h-7.4c-1.1,0-2-0.9-2-2v-10.2c0-1.1,0.9-2,2-2h7.4c1.1,0,2,0.9,2,2v10.2
		C264.6,384.7,263.7,385.6,262.6,385.6z"/>
	<path class="st1" d="M278.2,385.6h-7.4c-1.1,0-2-0.9-2-2v-10.2c0-1.1,0.9-2,2-2h7.4c1.1,0,2,0.9,2,2v10.2
		C280.2,384.7,279.3,385.6,278.2,385.6z"/>
	<path class="st1" d="M293.8,385.6h-7.4c-1.1,0-2-0.9-2-2v-10.2c0-1.1,0.9-2,2-2h7.4c1.1,0,2,0.9,2,2v10.2
		C295.8,384.7,294.9,385.6,293.8,385.6z"/>
	<path class="st1" d="M309.4,385.6H302c-1.1,0-2-0.9-2-2v-10.2c0-1.1,0.9-2,2-2h7.4c1.1,0,2,0.9,2,2v10.2
		C311.4,384.7,310.5,385.6,309.4,385.6z"/>
	<path class="st1" d="M325,385.6h-7.4c-1.1,0-2-0.9-2-2v-10.2c0-1.1,0.9-2,2-2h7.4c1.1,0,2,0.9,2,2v10.2
		C327,384.7,326.1,385.6,325,385.6z"/>
	<path class="st1" d="M340.7,385.6h-7.4c-1.1,0-2-0.9-2-2v-10.2c0-1.1,0.9-2,2-2h7.4c1.1,0,2,0.9,2,2v10.2
		C342.7,384.7,341.8,385.6,340.7,385.6z"/>
	<path class="st1" d="M356.3,385.6h-7.4c-1.1,0-2-0.9-2-2v-10.2c0-1.1,0.9-2,2-2h7.4c1.1,0,2,0.9,2,2v10.2
		C358.3,384.7,357.4,385.6,356.3,385.6z"/>
	<path class="st1" d="M371.9,385.6h-7.4c-1.1,0-2-0.9-2-2v-10.2c0-1.1,0.9-2,2-2h7.4c1.1,0,2,0.9,2,2v10.2
		C373.9,384.7,373,385.6,371.9,385.6z"/>
	<path class="st1" d="M387.5,385.6h-7.4c-1.1,0-2-0.9-2-2v-10.2c0-1.1,0.9-2,2-2h7.4c1.1,0,2,0.9,2,2v10.2
		C389.5,384.7,388.6,385.6,387.5,385.6z"/>
	<path class="st1" d="M247,411.9h-7.4c-1.1,0-2-0.9-2-2v-10.2c0-1.1,0.9-2,2-2h7.4c1.1,0,2,0.9,2,2v10.2
		C249,411,248.1,411.9,247,411.9z"/>
	<path class="st1" d="M262.6,411.9h-7.4c-1.1,0-2-0.9-2-2v-10.2c0-1.1,0.9-2,2-2h7.4c1.1,0,2,0.9,2,2v10.2
		C264.6,411,263.7,411.9,262.6,411.9z"/>
	<path class="st1" d="M278.2,411.9h-7.4c-1.1,0-2-0.9-2-2v-10.2c0-1.1,0.9-2,2-2h7.4c1.1,0,2,0.9,2,2v10.2
		C280.2,411,279.3,411.9,278.2,411.9z"/>
	<path class="st1" d="M293.8,411.9h-7.4c-1.1,0-2-0.9-2-2v-10.2c0-1.1,0.9-2,2-2h7.4c1.1,0,2,0.9,2,2v10.2
		C295.8,411,294.9,411.9,293.8,411.9z"/>
	<path class="st1" d="M309.4,411.9H302c-1.1,0-2-0.9-2-2v-10.2c0-1.1,0.9-2,2-2h7.4c1.1,0,2,0.9,2,2v10.2
		C311.4,411,310.5,411.9,309.4,411.9z"/>
	<path class="st1" d="M325,411.9h-7.4c-1.1,0-2-0.9-2-2v-10.2c0-1.1,0.9-2,2-2h7.4c1.1,0,2,0.9,2,2v10.2
		C327,411,326.1,411.9,325,411.9z"/>
	<path class="st1" d="M340.7,411.9h-7.4c-1.1,0-2-0.9-2-2v-10.2c0-1.1,0.9-2,2-2h7.4c1.1,0,2,0.9,2,2v10.2
		C342.7,411,341.8,411.9,340.7,411.9z"/>
	<path class="st1" d="M356.3,411.9h-7.4c-1.1,0-2-0.9-2-2v-10.2c0-1.1,0.9-2,2-2h7.4c1.1,0,2,0.9,2,2v10.2
		C358.3,411,357.4,411.9,356.3,411.9z"/>
	<path class="st1" d="M371.9,411.9h-7.4c-1.1,0-2-0.9-2-2v-10.2c0-1.1,0.9-2,2-2h7.4c1.1,0,2,0.9,2,2v10.2
		C373.9,411,373,411.9,371.9,411.9z"/>
	<path class="st1" d="M387.5,411.9h-7.4c-1.1,0-2-0.9-2-2v-10.2c0-1.1,0.9-2,2-2h7.4c1.1,0,2,0.9,2,2v10.2
		C389.5,411,388.6,411.9,387.5,411.9z"/>
	<path class="st1" d="M247,438.1h-7.4c-1.1,0-2-0.9-2-2v-10.2c0-1.1,0.9-2,2-2h7.4c1.1,0,2,0.9,2,2v10.2
		C249,437.2,248.1,438.1,247,438.1z"/>
	<path class="st1" d="M262.6,438.1h-7.4c-1.1,0-2-0.9-2-2v-10.2c0-1.1,0.9-2,2-2h7.4c1.1,0,2,0.9,2,2v10.2
		C264.6,437.2,263.7,438.1,262.6,438.1z"/>
	<path class="st1" d="M278.2,438.1h-7.4c-1.1,0-2-0.9-2-2v-10.2c0-1.1,0.9-2,2-2h7.4c1.1,0,2,0.9,2,2v10.2
		C280.2,437.2,279.3,438.1,278.2,438.1z"/>
	<path class="st1" d="M293.8,438.1h-7.4c-1.1,0-2-0.9-2-2v-10.2c0-1.1,0.9-2,2-2h7.4c1.1,0,2,0.9,2,2v10.2
		C295.8,437.2,294.9,438.1,293.8,438.1z"/>
	<path class="st1" d="M309.4,438.1H302c-1.1,0-2-0.9-2-2v-10.2c0-1.1,0.9-2,2-2h7.4c1.1,0,2,0.9,2,2v10.2
		C311.4,437.2,310.5,438.1,309.4,438.1z"/>
	<path class="st1" d="M325,438.1h-7.4c-1.1,0-2-0.9-2-2v-10.2c0-1.1,0.9-2,2-2h7.4c1.1,0,2,0.9,2,2v10.2
		C327,437.2,326.1,438.1,325,438.1z"/>
	<path class="st1" d="M340.7,438.1h-7.4c-1.1,0-2-0.9-2-2v-10.2c0-1.1,0.9-2,2-2h7.4c1.1,0,2,0.9,2,2v10.2
		C342.7,437.2,341.8,438.1,340.7,438.1z"/>
	<path class="st1" d="M356.3,438.1h-7.4c-1.1,0-2-0.9-2-2v-10.2c0-1.1,0.9-2,2-2h7.4c1.1,0,2,0.9,2,2v10.2
		C358.3,437.2,357.4,438.1,356.3,438.1z"/>
	<path class="st1" d="M371.9,438.1h-7.4c-1.1,0-2-0.9-2-2v-10.2c0-1.1,0.9-2,2-2h7.4c1.1,0,2,0.9,2,2v10.2
		C373.9,437.2,373,438.1,371.9,438.1z"/>
	<path class="st1" d="M387.5,438.1h-7.4c-1.1,0-2-0.9-2-2v-10.2c0-1.1,0.9-2,2-2h7.4c1.1,0,2,0.9,2,2v10.2
		C389.5,437.2,388.6,438.1,387.5,438.1z"/>
	<path class="st1" d="M247,464.4h-7.4c-1.1,0-2-0.9-2-2v-10.2c0-1.1,0.9-2,2-2h7.4c1.1,0,2,0.9,2,2v10.2
		C249,463.5,248.1,464.4,247,464.4z"/>
	<path class="st1" d="M262.6,464.4h-7.4c-1.1,0-2-0.9-2-2v-10.2c0-1.1,0.9-2,2-2h7.4c1.1,0,2,0.9,2,2v10.2
		C264.6,463.5,263.7,464.4,262.6,464.4z"/>
	<path class="st1" d="M278.2,464.4h-7.4c-1.1,0-2-0.9-2-2v-10.2c0-1.1,0.9-2,2-2h7.4c1.1,0,2,0.9,2,2v10.2
		C280.2,463.5,279.3,464.4,278.2,464.4z"/>
	<path class="st1" d="M293.8,464.4h-7.4c-1.1,0-2-0.9-2-2v-10.2c0-1.1,0.9-2,2-2h7.4c1.1,0,2,0.9,2,2v10.2
		C295.8,463.5,294.9,464.4,293.8,464.4z"/>
	<path class="st1" d="M309.4,464.4H302c-1.1,0-2-0.9-2-2v-10.2c0-1.1,0.9-2,2-2h7.4c1.1,0,2,0.9,2,2v10.2
		C311.4,463.5,310.5,464.4,309.4,464.4z"/>
	<path class="st1" d="M325,464.4h-7.4c-1.1,0-2-0.9-2-2v-10.2c0-1.1,0.9-2,2-2h7.4c1.1,0,2,0.9,2,2v10.2
		C327,463.5,326.1,464.4,325,464.4z"/>
	<path class="st1" d="M340.7,464.4h-7.4c-1.1,0-2-0.9-2-2v-10.2c0-1.1,0.9-2,2-2h7.4c1.1,0,2,0.9,2,2v10.2
		C342.7,463.5,341.8,464.4,340.7,464.4z"/>
	<path class="st1" d="M356.3,464.4h-7.4c-1.1,0-2-0.9-2-2v-10.2c0-1.1,0.9-2,2-2h7.4c1.1,0,2,0.9,2,2v10.2
		C358.3,463.5,357.4,464.4,356.3,464.4z"/>
	<path class="st1" d="M371.9,464.4h-7.4c-1.1,0-2-0.9-2-2v-10.2c0-1.1,0.9-2,2-2h7.4c1.1,0,2,0.9,2,2v10.2
		C373.9,463.5,373,464.4,371.9,464.4z"/>
	<path class="st1" d="M387.5,464.4h-7.4c-1.1,0-2-0.9-2-2v-10.2c0-1.1,0.9-2,2-2h7.4c1.1,0,2,0.9,2,2v10.2
		C389.5,463.5,388.6,464.4,387.5,464.4z"/>
	<path class="st1" d="M293.8,490.7h-7.4c-1.1,0-2-0.9-2-2v-10.2c0-1.1,0.9-2,2-2h7.4c1.1,0,2,0.9,2,2v10.2
		C295.8,489.8,294.9,490.7,293.8,490.7z"/>
	<path class="st1" d="M309.4,490.7H302c-1.1,0-2-0.9-2-2v-10.2c0-1.1,0.9-2,2-2h7.4c1.1,0,2,0.9,2,2v10.2
		C311.4,489.8,310.5,490.7,309.4,490.7z"/>
	<path class="st1" d="M325,490.7h-7.4c-1.1,0-2-0.9-2-2v-10.2c0-1.1,0.9-2,2-2h7.4c1.1,0,2,0.9,2,2v10.2
		C327,489.8,326.1,490.7,325,490.7z"/>
	<path class="st1" d="M340.7,490.7h-7.4c-1.1,0-2-0.9-2-2v-10.2c0-1.1,0.9-2,2-2h7.4c1.1,0,2,0.9,2,2v10.2
		C342.7,489.8,341.8,490.7,340.7,490.7z"/>
	<path class="st1" d="M356.3,490.7h-7.4c-1.1,0-2-0.9-2-2v-10.2c0-1.1,0.9-2,2-2h7.4c1.1,0,2,0.9,2,2v10.2
		C358.3,489.8,357.4,490.7,356.3,490.7z"/>
	<path class="st1" d="M371.9,490.7h-7.4c-1.1,0-2-0.9-2-2v-10.2c0-1.1,0.9-2,2-2h7.4c1.1,0,2,0.9,2,2v10.2
		C373.9,489.8,373,490.7,371.9,490.7z"/>
	<path class="st1" d="M387.5,490.7h-7.4c-1.1,0-2-0.9-2-2v-10.2c0-1.1,0.9-2,2-2h7.4c1.1,0,2,0.9,2,2v10.2
		C389.5,489.8,388.6,490.7,387.5,490.7z"/>
	<path class="st1" d="M74.1,175.5h-7.4c-1.1,0-2-0.9-2-2v-10.2c0-1.1,0.9-2,2-2h7.4c1.1,0,2,0.9,2,2v10.2
		C76.1,174.6,75.2,175.5,74.1,175.5z"/>
	<path class="st1" d="M89.7,175.5h-7.4c-1.1,0-2-0.9-2-2v-10.2c0-1.1,0.9-2,2-2h7.4c1.1,0,2,0.9,2,2v10.2
		C91.7,174.6,90.8,175.5,89.7,175.5z"/>
	<path class="st1" d="M105.4,175.5H98c-1.1,0-2-0.9-2-2v-10.2c0-1.1,0.9-2,2-2h7.4c1.1,0,2,0.9,2,2v10.2
		C107.4,174.6,106.5,175.5,105.4,175.5z"/>
	<path class="st1" d="M121,175.5h-7.4c-1.1,0-2-0.9-2-2v-10.2c0-1.1,0.9-2,2-2h7.4c1.1,0,2,0.9,2,2v10.2
		C123,174.6,122.1,175.5,121,175.5z"/>
	<path class="st1" d="M136.6,175.5h-7.4c-1.1,0-2-0.9-2-2v-10.2c0-1.1,0.9-2,2-2h7.4c1.1,0,2,0.9,2,2v10.2
		C138.6,174.6,137.7,175.5,136.6,175.5z"/>
	<path class="st1" d="M152.2,175.5h-7.4c-1.1,0-2-0.9-2-2v-10.2c0-1.1,0.9-2,2-2h7.4c1.1,0,2,0.9,2,2v10.2
		C154.2,174.6,153.3,175.5,152.2,175.5z"/>
	<path class="st1" d="M167.8,175.5h-7.4c-1.1,0-2-0.9-2-2v-10.2c0-1.1,0.9-2,2-2h7.4c1.1,0,2,0.9,2,2v10.2
		C169.8,174.6,168.9,175.5,167.8,175.5z"/>
	<path class="st1" d="M183.4,175.5H176c-1.1,0-2-0.9-2-2v-10.2c0-1.1,0.9-2,2-2h7.4c1.1,0,2,0.9,2,2v10.2
		C185.4,174.6,184.5,175.5,183.4,175.5z"/>
	<path class="st1" d="M199.1,175.5h-7.4c-1.1,0-2-0.9-2-2v-10.2c0-1.1,0.9-2,2-2h7.4c1.1,0,2,0.9,2,2v10.2
		C201.1,174.6,200.2,175.5,199.1,175.5z"/>
	<path class="st1" d="M214.7,175.5h-7.4c-1.1,0-2-0.9-2-2v-10.2c0-1.1,0.9-2,2-2h7.4c1.1,0,2,0.9,2,2v10.2
		C216.7,174.6,215.8,175.5,214.7,175.5z"/>
	<path class="st1" d="M74.1,201.8h-7.4c-1.1,0-2-0.9-2-2v-10.2c0-1.1,0.9-2,2-2h7.4c1.1,0,2,0.9,2,2v10.2
		C76.1,200.9,75.2,201.8,74.1,201.8z"/>
	<path class="st1" d="M89.7,201.8h-7.4c-1.1,0-2-0.9-2-2v-10.2c0-1.1,0.9-2,2-2h7.4c1.1,0,2,0.9,2,2v10.2
		C91.7,200.9,90.8,201.8,89.7,201.8z"/>
	<path class="st1" d="M105.4,201.8H98c-1.1,0-2-0.9-2-2v-10.2c0-1.1,0.9-2,2-2h7.4c1.1,0,2,0.9,2,2v10.2
		C107.4,200.9,106.5,201.8,105.4,201.8z"/>
	<path class="st1" d="M121,201.8h-7.4c-1.1,0-2-0.9-2-2v-10.2c0-1.1,0.9-2,2-2h7.4c1.1,0,2,0.9,2,2v10.2
		C123,200.9,122.1,201.8,121,201.8z"/>
	<path class="st1" d="M136.6,201.8h-7.4c-1.1,0-2-0.9-2-2v-10.2c0-1.1,0.9-2,2-2h7.4c1.1,0,2,0.9,2,2v10.2
		C138.6,200.9,137.7,201.8,136.6,201.8z"/>
	<path class="st1" d="M152.2,201.8h-7.4c-1.1,0-2-0.9-2-2v-10.2c0-1.1,0.9-2,2-2h7.4c1.1,0,2,0.9,2,2v10.2
		C154.2,200.9,153.3,201.8,152.2,201.8z"/>
	<path class="st1" d="M167.8,201.8h-7.4c-1.1,0-2-0.9-2-2v-10.2c0-1.1,0.9-2,2-2h7.4c1.1,0,2,0.9,2,2v10.2
		C169.8,200.9,168.9,201.8,167.8,201.8z"/>
	<path class="st1" d="M183.4,201.8H176c-1.1,0-2-0.9-2-2v-10.2c0-1.1,0.9-2,2-2h7.4c1.1,0,2,0.9,2,2v10.2
		C185.4,200.9,184.5,201.8,183.4,201.8z"/>
	<path class="st1" d="M199.1,201.8h-7.4c-1.1,0-2-0.9-2-2v-10.2c0-1.1,0.9-2,2-2h7.4c1.1,0,2,0.9,2,2v10.2
		C201.1,200.9,200.2,201.8,199.1,201.8z"/>
	<path class="st1" d="M214.7,201.8h-7.4c-1.1,0-2-0.9-2-2v-10.2c0-1.1,0.9-2,2-2h7.4c1.1,0,2,0.9,2,2v10.2
		C216.7,200.9,215.8,201.8,214.7,201.8z"/>
	<path class="st1" d="M74.1,228h-7.4c-1.1,0-2-0.9-2-2v-10.2c0-1.1,0.9-2,2-2h7.4c1.1,0,2,0.9,2,2V226C76.1,227.1,75.2,228,74.1,228
		z"/>
	<path class="st1" d="M89.7,228h-7.4c-1.1,0-2-0.9-2-2v-10.2c0-1.1,0.9-2,2-2h7.4c1.1,0,2,0.9,2,2V226C91.7,227.1,90.8,228,89.7,228
		z"/>
	<path class="st1" d="M105.4,228H98c-1.1,0-2-0.9-2-2v-10.2c0-1.1,0.9-2,2-2h7.4c1.1,0,2,0.9,2,2V226
		C107.4,227.1,106.5,228,105.4,228z"/>
	<path class="st1" d="M121,228h-7.4c-1.1,0-2-0.9-2-2v-10.2c0-1.1,0.9-2,2-2h7.4c1.1,0,2,0.9,2,2V226C123,227.1,122.1,228,121,228z"
		/>
	<path class="st1" d="M136.6,228h-7.4c-1.1,0-2-0.9-2-2v-10.2c0-1.1,0.9-2,2-2h7.4c1.1,0,2,0.9,2,2V226
		C138.6,227.1,137.7,228,136.6,228z"/>
	<path class="st1" d="M152.2,228h-7.4c-1.1,0-2-0.9-2-2v-10.2c0-1.1,0.9-2,2-2h7.4c1.1,0,2,0.9,2,2V226
		C154.2,227.1,153.3,228,152.2,228z"/>
	<path class="st1" d="M167.8,228h-7.4c-1.1,0-2-0.9-2-2v-10.2c0-1.1,0.9-2,2-2h7.4c1.1,0,2,0.9,2,2V226
		C169.8,227.1,168.9,228,167.8,228z"/>
	<path class="st1" d="M183.4,228H176c-1.1,0-2-0.9-2-2v-10.2c0-1.1,0.9-2,2-2h7.4c1.1,0,2,0.9,2,2V226
		C185.4,227.1,184.5,228,183.4,228z"/>
	<path class="st1" d="M199.1,228h-7.4c-1.1,0-2-0.9-2-2v-10.2c0-1.1,0.9-2,2-2h7.4c1.1,0,2,0.9,2,2V226
		C201.1,227.1,200.2,228,199.1,228z"/>
	<path class="st1" d="M214.7,228h-7.4c-1.1,0-2-0.9-2-2v-10.2c0-1.1,0.9-2,2-2h7.4c1.1,0,2,0.9,2,2V226
		C216.7,227.1,215.8,228,214.7,228z"/>
	<path class="st1" d="M74.1,254.3h-7.4c-1.1,0-2-0.9-2-2v-10.2c0-1.1,0.9-2,2-2h7.4c1.1,0,2,0.9,2,2v10.2
		C76.1,253.4,75.2,254.3,74.1,254.3z"/>
	<path class="st1" d="M89.7,254.3h-7.4c-1.1,0-2-0.9-2-2v-10.2c0-1.1,0.9-2,2-2h7.4c1.1,0,2,0.9,2,2v10.2
		C91.7,253.4,90.8,254.3,89.7,254.3z"/>
	<path class="st1" d="M105.4,254.3H98c-1.1,0-2-0.9-2-2v-10.2c0-1.1,0.9-2,2-2h7.4c1.1,0,2,0.9,2,2v10.2
		C107.4,253.4,106.5,254.3,105.4,254.3z"/>
	<path class="st1" d="M121,254.3h-7.4c-1.1,0-2-0.9-2-2v-10.2c0-1.1,0.9-2,2-2h7.4c1.1,0,2,0.9,2,2v10.2
		C123,253.4,122.1,254.3,121,254.3z"/>
	<path class="st1" d="M136.6,254.3h-7.4c-1.1,0-2-0.9-2-2v-10.2c0-1.1,0.9-2,2-2h7.4c1.1,0,2,0.9,2,2v10.2
		C138.6,253.4,137.7,254.3,136.6,254.3z"/>
	<path class="st1" d="M152.2,254.3h-7.4c-1.1,0-2-0.9-2-2v-10.2c0-1.1,0.9-2,2-2h7.4c1.1,0,2,0.9,2,2v10.2
		C154.2,253.4,153.3,254.3,152.2,254.3z"/>
	<path class="st1" d="M167.8,254.3h-7.4c-1.1,0-2-0.9-2-2v-10.2c0-1.1,0.9-2,2-2h7.4c1.1,0,2,0.9,2,2v10.2
		C169.8,253.4,168.9,254.3,167.8,254.3z"/>
	<path class="st1" d="M183.4,254.3H176c-1.1,0-2-0.9-2-2v-10.2c0-1.1,0.9-2,2-2h7.4c1.1,0,2,0.9,2,2v10.2
		C185.4,253.4,184.5,254.3,183.4,254.3z"/>
	<path class="st1" d="M199.1,254.3h-7.4c-1.1,0-2-0.9-2-2v-10.2c0-1.1,0.9-2,2-2h7.4c1.1,0,2,0.9,2,2v10.2
		C201.1,253.4,200.2,254.3,199.1,254.3z"/>
	<path class="st1" d="M214.7,254.3h-7.4c-1.1,0-2-0.9-2-2v-10.2c0-1.1,0.9-2,2-2h7.4c1.1,0,2,0.9,2,2v10.2
		C216.7,253.4,215.8,254.3,214.7,254.3z"/>
	<path class="st1" d="M74.1,280.6h-7.4c-1.1,0-2-0.9-2-2v-10.2c0-1.1,0.9-2,2-2h7.4c1.1,0,2,0.9,2,2v10.2
		C76.1,279.7,75.2,280.6,74.1,280.6z"/>
	<path class="st1" d="M89.7,280.6h-7.4c-1.1,0-2-0.9-2-2v-10.2c0-1.1,0.9-2,2-2h7.4c1.1,0,2,0.9,2,2v10.2
		C91.7,279.7,90.8,280.6,89.7,280.6z"/>
	<path class="st1" d="M105.4,280.6H98c-1.1,0-2-0.9-2-2v-10.2c0-1.1,0.9-2,2-2h7.4c1.1,0,2,0.9,2,2v10.2
		C107.4,279.7,106.5,280.6,105.4,280.6z"/>
	<path class="st1" d="M121,280.6h-7.4c-1.1,0-2-0.9-2-2v-10.2c0-1.1,0.9-2,2-2h7.4c1.1,0,2,0.9,2,2v10.2
		C123,279.7,122.1,280.6,121,280.6z"/>
	<path class="st1" d="M136.6,280.6h-7.4c-1.1,0-2-0.9-2-2v-10.2c0-1.1,0.9-2,2-2h7.4c1.1,0,2,0.9,2,2v10.2
		C138.6,279.7,137.7,280.6,136.6,280.6z"/>
	<path class="st1" d="M152.2,280.6h-7.4c-1.1,0-2-0.9-2-2v-10.2c0-1.1,0.9-2,2-2h7.4c1.1,0,2,0.9,2,2v10.2
		C154.2,279.7,153.3,280.6,152.2,280.6z"/>
	<path class="st1" d="M167.8,280.6h-7.4c-1.1,0-2-0.9-2-2v-10.2c0-1.1,0.9-2,2-2h7.4c1.1,0,2,0.9,2,2v10.2
		C169.8,279.7,168.9,280.6,167.8,280.6z"/>
	<path class="st1" d="M183.4,280.6H176c-1.1,0-2-0.9-2-2v-10.2c0-1.1,0.9-2,2-2h7.4c1.1,0,2,0.9,2,2v10.2
		C185.4,279.7,184.5,280.6,183.4,280.6z"/>
	<path class="st1" d="M199.1,280.6h-7.4c-1.1,0-2-0.9-2-2v-10.2c0-1.1,0.9-2,2-2h7.4c1.1,0,2,0.9,2,2v10.2
		C201.1,279.7,200.2,280.6,199.1,280.6z"/>
	<path class="st1" d="M214.7,280.6h-7.4c-1.1,0-2-0.9-2-2v-10.2c0-1.1,0.9-2,2-2h7.4c1.1,0,2,0.9,2,2v10.2
		C216.7,279.7,215.8,280.6,214.7,280.6z"/>
	<path class="st1" d="M74.1,306.8h-7.4c-1.1,0-2-0.9-2-2v-10.2c0-1.1,0.9-2,2-2h7.4c1.1,0,2,0.9,2,2v10.2
		C76.1,305.9,75.2,306.8,74.1,306.8z"/>
	<path class="st1" d="M89.7,306.8h-7.4c-1.1,0-2-0.9-2-2v-10.2c0-1.1,0.9-2,2-2h7.4c1.1,0,2,0.9,2,2v10.2
		C91.7,305.9,90.8,306.8,89.7,306.8z"/>
	<path class="st1" d="M105.4,306.8H98c-1.1,0-2-0.9-2-2v-10.2c0-1.1,0.9-2,2-2h7.4c1.1,0,2,0.9,2,2v10.2
		C107.4,305.9,106.5,306.8,105.4,306.8z"/>
	<path class="st1" d="M121,306.8h-7.4c-1.1,0-2-0.9-2-2v-10.2c0-1.1,0.9-2,2-2h7.4c1.1,0,2,0.9,2,2v10.2
		C123,305.9,122.1,306.8,121,306.8z"/>
	<path class="st1" d="M136.6,306.8h-7.4c-1.1,0-2-0.9-2-2v-10.2c0-1.1,0.9-2,2-2h7.4c1.1,0,2,0.9,2,2v10.2
		C138.6,305.9,137.7,306.8,136.6,306.8z"/>
	<path class="st1" d="M152.2,306.8h-7.4c-1.1,0-2-0.9-2-2v-10.2c0-1.1,0.9-2,2-2h7.4c1.1,0,2,0.9,2,2v10.2
		C154.2,305.9,153.3,306.8,152.2,306.8z"/>
	<path class="st1" d="M167.8,306.8h-7.4c-1.1,0-2-0.9-2-2v-10.2c0-1.1,0.9-2,2-2h7.4c1.1,0,2,0.9,2,2v10.2
		C169.8,305.9,168.9,306.8,167.8,306.8z"/>
	<path class="st1" d="M183.4,306.8H176c-1.1,0-2-0.9-2-2v-10.2c0-1.1,0.9-2,2-2h7.4c1.1,0,2,0.9,2,2v10.2
		C185.4,305.9,184.5,306.8,183.4,306.8z"/>
	<path class="st1" d="M199.1,306.8h-7.4c-1.1,0-2-0.9-2-2v-10.2c0-1.1,0.9-2,2-2h7.4c1.1,0,2,0.9,2,2v10.2
		C201.1,305.9,200.2,306.8,199.1,306.8z"/>
	<path class="st1" d="M214.7,306.8h-7.4c-1.1,0-2-0.9-2-2v-10.2c0-1.1,0.9-2,2-2h7.4c1.1,0,2,0.9,2,2v10.2
		C216.7,305.9,215.8,306.8,214.7,306.8z"/>
	<path class="st1" d="M74.1,333.1h-7.4c-1.1,0-2-0.9-2-2v-10.2c0-1.1,0.9-2,2-2h7.4c1.1,0,2,0.9,2,2v10.2
		C76.1,332.2,75.2,333.1,74.1,333.1z"/>
	<path class="st1" d="M89.7,333.1h-7.4c-1.1,0-2-0.9-2-2v-10.2c0-1.1,0.9-2,2-2h7.4c1.1,0,2,0.9,2,2v10.2
		C91.7,332.2,90.8,333.1,89.7,333.1z"/>
	<path class="st1" d="M105.4,333.1H98c-1.1,0-2-0.9-2-2v-10.2c0-1.1,0.9-2,2-2h7.4c1.1,0,2,0.9,2,2v10.2
		C107.4,332.2,106.5,333.1,105.4,333.1z"/>
	<path class="st1" d="M121,333.1h-7.4c-1.1,0-2-0.9-2-2v-10.2c0-1.1,0.9-2,2-2h7.4c1.1,0,2,0.9,2,2v10.2
		C123,332.2,122.1,333.1,121,333.1z"/>
	<path class="st1" d="M136.6,333.1h-7.4c-1.1,0-2-0.9-2-2v-10.2c0-1.1,0.9-2,2-2h7.4c1.1,0,2,0.9,2,2v10.2
		C138.6,332.2,137.7,333.1,136.6,333.1z"/>
	<path class="st1" d="M152.2,333.1h-7.4c-1.1,0-2-0.9-2-2v-10.2c0-1.1,0.9-2,2-2h7.4c1.1,0,2,0.9,2,2v10.2
		C154.2,332.2,153.3,333.1,152.2,333.1z"/>
	<path class="st1" d="M167.8,333.1h-7.4c-1.1,0-2-0.9-2-2v-10.2c0-1.1,0.9-2,2-2h7.4c1.1,0,2,0.9,2,2v10.2
		C169.8,332.2,168.9,333.1,167.8,333.1z"/>
	<path class="st1" d="M183.4,333.1H176c-1.1,0-2-0.9-2-2v-10.2c0-1.1,0.9-2,2-2h7.4c1.1,0,2,0.9,2,2v10.2
		C185.4,332.2,184.5,333.1,183.4,333.1z"/>
	<path class="st1" d="M199.1,333.1h-7.4c-1.1,0-2-0.9-2-2v-10.2c0-1.1,0.9-2,2-2h7.4c1.1,0,2,0.9,2,2v10.2
		C201.1,332.2,200.2,333.1,199.1,333.1z"/>
	<path class="st1" d="M214.7,333.1h-7.4c-1.1,0-2-0.9-2-2v-10.2c0-1.1,0.9-2,2-2h7.4c1.1,0,2,0.9,2,2v10.2
		C216.7,332.2,215.8,333.1,214.7,333.1z"/>
	<path class="st1" d="M74.1,359.3h-7.4c-1.1,0-2-0.9-2-2v-10.2c0-1.1,0.9-2,2-2h7.4c1.1,0,2,0.9,2,2v10.2
		C76.1,358.4,75.2,359.3,74.1,359.3z"/>
	<path class="st1" d="M89.7,359.3h-7.4c-1.1,0-2-0.9-2-2v-10.2c0-1.1,0.9-2,2-2h7.4c1.1,0,2,0.9,2,2v10.2
		C91.7,358.4,90.8,359.3,89.7,359.3z"/>
	<path class="st1" d="M105.4,359.3H98c-1.1,0-2-0.9-2-2v-10.2c0-1.1,0.9-2,2-2h7.4c1.1,0,2,0.9,2,2v10.2
		C107.4,358.4,106.5,359.3,105.4,359.3z"/>
	<path class="st1" d="M121,359.3h-7.4c-1.1,0-2-0.9-2-2v-10.2c0-1.1,0.9-2,2-2h7.4c1.1,0,2,0.9,2,2v10.2
		C123,358.4,122.1,359.3,121,359.3z"/>
	<path class="st1" d="M136.6,359.3h-7.4c-1.1,0-2-0.9-2-2v-10.2c0-1.1,0.9-2,2-2h7.4c1.1,0,2,0.9,2,2v10.2
		C138.6,358.4,137.7,359.3,136.6,359.3z"/>
	<path class="st1" d="M152.2,359.3h-7.4c-1.1,0-2-0.9-2-2v-10.2c0-1.1,0.9-2,2-2h7.4c1.1,0,2,0.9,2,2v10.2
		C154.2,358.4,153.3,359.3,152.2,359.3z"/>
	<path class="st1" d="M167.8,359.3h-7.4c-1.1,0-2-0.9-2-2v-10.2c0-1.1,0.9-2,2-2h7.4c1.1,0,2,0.9,2,2v10.2
		C169.8,358.4,168.9,359.3,167.8,359.3z"/>
	<path class="st1" d="M183.4,359.3H176c-1.1,0-2-0.9-2-2v-10.2c0-1.1,0.9-2,2-2h7.4c1.1,0,2,0.9,2,2v10.2
		C185.4,358.4,184.5,359.3,183.4,359.3z"/>
	<path class="st1" d="M199.1,359.3h-7.4c-1.1,0-2-0.9-2-2v-10.2c0-1.1,0.9-2,2-2h7.4c1.1,0,2,0.9,2,2v10.2
		C201.1,358.4,200.2,359.3,199.1,359.3z"/>
	<path class="st1" d="M214.7,359.3h-7.4c-1.1,0-2-0.9-2-2v-10.2c0-1.1,0.9-2,2-2h7.4c1.1,0,2,0.9,2,2v10.2
		C216.7,358.4,215.8,359.3,214.7,359.3z"/>
	<path class="st1" d="M74.1,385.6h-7.4c-1.1,0-2-0.9-2-2v-10.2c0-1.1,0.9-2,2-2h7.4c1.1,0,2,0.9,2,2v10.2
		C76.1,384.7,75.2,385.6,74.1,385.6z"/>
	<path class="st1" d="M89.7,385.6h-7.4c-1.1,0-2-0.9-2-2v-10.2c0-1.1,0.9-2,2-2h7.4c1.1,0,2,0.9,2,2v10.2
		C91.7,384.7,90.8,385.6,89.7,385.6z"/>
	<path class="st1" d="M105.4,385.6H98c-1.1,0-2-0.9-2-2v-10.2c0-1.1,0.9-2,2-2h7.4c1.1,0,2,0.9,2,2v10.2
		C107.4,384.7,106.5,385.6,105.4,385.6z"/>
	<path class="st1" d="M121,385.6h-7.4c-1.1,0-2-0.9-2-2v-10.2c0-1.1,0.9-2,2-2h7.4c1.1,0,2,0.9,2,2v10.2
		C123,384.7,122.1,385.6,121,385.6z"/>
	<path class="st1" d="M136.6,385.6h-7.4c-1.1,0-2-0.9-2-2v-10.2c0-1.1,0.9-2,2-2h7.4c1.1,0,2,0.9,2,2v10.2
		C138.6,384.7,137.7,385.6,136.6,385.6z"/>
	<path class="st1" d="M152.2,385.6h-7.4c-1.1,0-2-0.9-2-2v-10.2c0-1.1,0.9-2,2-2h7.4c1.1,0,2,0.9,2,2v10.2
		C154.2,384.7,153.3,385.6,152.2,385.6z"/>
	<path class="st1" d="M167.8,385.6h-7.4c-1.1,0-2-0.9-2-2v-10.2c0-1.1,0.9-2,2-2h7.4c1.1,0,2,0.9,2,2v10.2
		C169.8,384.7,168.9,385.6,167.8,385.6z"/>
	<path class="st1" d="M183.4,385.6H176c-1.1,0-2-0.9-2-2v-10.2c0-1.1,0.9-2,2-2h7.4c1.1,0,2,0.9,2,2v10.2
		C185.4,384.7,184.5,385.6,183.4,385.6z"/>
	<path class="st1" d="M199.1,385.6h-7.4c-1.1,0-2-0.9-2-2v-10.2c0-1.1,0.9-2,2-2h7.4c1.1,0,2,0.9,2,2v10.2
		C201.1,384.7,200.2,385.6,199.1,385.6z"/>
	<path class="st1" d="M214.7,385.6h-7.4c-1.1,0-2-0.9-2-2v-10.2c0-1.1,0.9-2,2-2h7.4c1.1,0,2,0.9,2,2v10.2
		C216.7,384.7,215.8,385.6,214.7,385.6z"/>
	<path class="st1" d="M74.1,411.9h-7.4c-1.1,0-2-0.9-2-2v-10.2c0-1.1,0.9-2,2-2h7.4c1.1,0,2,0.9,2,2v10.2
		C76.1,411,75.2,411.9,74.1,411.9z"/>
	<path class="st1" d="M89.7,411.9h-7.4c-1.1,0-2-0.9-2-2v-10.2c0-1.1,0.9-2,2-2h7.4c1.1,0,2,0.9,2,2v10.2
		C91.7,411,90.8,411.9,89.7,411.9z"/>
	<path class="st1" d="M105.4,411.9H98c-1.1,0-2-0.9-2-2v-10.2c0-1.1,0.9-2,2-2h7.4c1.1,0,2,0.9,2,2v10.2
		C107.4,411,106.5,411.9,105.4,411.9z"/>
	<path class="st1" d="M121,411.9h-7.4c-1.1,0-2-0.9-2-2v-10.2c0-1.1,0.9-2,2-2h7.4c1.1,0,2,0.9,2,2v10.2
		C123,411,122.1,411.9,121,411.9z"/>
	<path class="st1" d="M136.6,411.9h-7.4c-1.1,0-2-0.9-2-2v-10.2c0-1.1,0.9-2,2-2h7.4c1.1,0,2,0.9,2,2v10.2
		C138.6,411,137.7,411.9,136.6,411.9z"/>
	<path class="st1" d="M152.2,411.9h-7.4c-1.1,0-2-0.9-2-2v-10.2c0-1.1,0.9-2,2-2h7.4c1.1,0,2,0.9,2,2v10.2
		C154.2,411,153.3,411.9,152.2,411.9z"/>
	<path class="st1" d="M167.8,411.9h-7.4c-1.1,0-2-0.9-2-2v-10.2c0-1.1,0.9-2,2-2h7.4c1.1,0,2,0.9,2,2v10.2
		C169.8,411,168.9,411.9,167.8,411.9z"/>
	<path class="st1" d="M183.4,411.9H176c-1.1,0-2-0.9-2-2v-10.2c0-1.1,0.9-2,2-2h7.4c1.1,0,2,0.9,2,2v10.2
		C185.4,411,184.5,411.9,183.4,411.9z"/>
	<path class="st1" d="M199.1,411.9h-7.4c-1.1,0-2-0.9-2-2v-10.2c0-1.1,0.9-2,2-2h7.4c1.1,0,2,0.9,2,2v10.2
		C201.1,411,200.2,411.9,199.1,411.9z"/>
	<path class="st1" d="M214.7,411.9h-7.4c-1.1,0-2-0.9-2-2v-10.2c0-1.1,0.9-2,2-2h7.4c1.1,0,2,0.9,2,2v10.2
		C216.7,411,215.8,411.9,214.7,411.9z"/>
	<path class="st1" d="M74.1,438.1h-7.4c-1.1,0-2-0.9-2-2v-10.2c0-1.1,0.9-2,2-2h7.4c1.1,0,2,0.9,2,2v10.2
		C76.1,437.2,75.2,438.1,74.1,438.1z"/>
	<path class="st1" d="M89.7,438.1h-7.4c-1.1,0-2-0.9-2-2v-10.2c0-1.1,0.9-2,2-2h7.4c1.1,0,2,0.9,2,2v10.2
		C91.7,437.2,90.8,438.1,89.7,438.1z"/>
	<path class="st1" d="M105.4,438.1H98c-1.1,0-2-0.9-2-2v-10.2c0-1.1,0.9-2,2-2h7.4c1.1,0,2,0.9,2,2v10.2
		C107.4,437.2,106.5,438.1,105.4,438.1z"/>
	<path class="st1" d="M121,438.1h-7.4c-1.1,0-2-0.9-2-2v-10.2c0-1.1,0.9-2,2-2h7.4c1.1,0,2,0.9,2,2v10.2
		C123,437.2,122.1,438.1,121,438.1z"/>
	<path class="st1" d="M136.6,438.1h-7.4c-1.1,0-2-0.9-2-2v-10.2c0-1.1,0.9-2,2-2h7.4c1.1,0,2,0.9,2,2v10.2
		C138.6,437.2,137.7,438.1,136.6,438.1z"/>
	<path class="st1" d="M152.2,438.1h-7.4c-1.1,0-2-0.9-2-2v-10.2c0-1.1,0.9-2,2-2h7.4c1.1,0,2,0.9,2,2v10.2
		C154.2,437.2,153.3,438.1,152.2,438.1z"/>
	<path class="st1" d="M167.8,438.1h-7.4c-1.1,0-2-0.9-2-2v-10.2c0-1.1,0.9-2,2-2h7.4c1.1,0,2,0.9,2,2v10.2
		C169.8,437.2,168.9,438.1,167.8,438.1z"/>
	<path class="st1" d="M183.4,438.1H176c-1.1,0-2-0.9-2-2v-10.2c0-1.1,0.9-2,2-2h7.4c1.1,0,2,0.9,2,2v10.2
		C185.4,437.2,184.5,438.1,183.4,438.1z"/>
	<path class="st1" d="M199.1,438.1h-7.4c-1.1,0-2-0.9-2-2v-10.2c0-1.1,0.9-2,2-2h7.4c1.1,0,2,0.9,2,2v10.2
		C201.1,437.2,200.2,438.1,199.1,438.1z"/>
	<path class="st1" d="M214.7,438.1h-7.4c-1.1,0-2-0.9-2-2v-10.2c0-1.1,0.9-2,2-2h7.4c1.1,0,2,0.9,2,2v10.2
		C216.7,437.2,215.8,438.1,214.7,438.1z"/>
	<path class="st1" d="M74.1,464.4h-7.4c-1.1,0-2-0.9-2-2v-10.2c0-1.1,0.9-2,2-2h7.4c1.1,0,2,0.9,2,2v10.2
		C76.1,463.5,75.2,464.4,74.1,464.4z"/>
	<path class="st1" d="M89.7,464.4h-7.4c-1.1,0-2-0.9-2-2v-10.2c0-1.1,0.9-2,2-2h7.4c1.1,0,2,0.9,2,2v10.2
		C91.7,463.5,90.8,464.4,89.7,464.4z"/>
	<path class="st1" d="M105.4,464.4H98c-1.1,0-2-0.9-2-2v-10.2c0-1.1,0.9-2,2-2h7.4c1.1,0,2,0.9,2,2v10.2
		C107.4,463.5,106.5,464.4,105.4,464.4z"/>
	<path class="st1" d="M121,464.4h-7.4c-1.1,0-2-0.9-2-2v-10.2c0-1.1,0.9-2,2-2h7.4c1.1,0,2,0.9,2,2v10.2
		C123,463.5,122.1,464.4,121,464.4z"/>
	<path class="st1" d="M136.6,464.4h-7.4c-1.1,0-2-0.9-2-2v-10.2c0-1.1,0.9-2,2-2h7.4c1.1,0,2,0.9,2,2v10.2
		C138.6,463.5,137.7,464.4,136.6,464.4z"/>
	<path class="st1" d="M152.2,464.4h-7.4c-1.1,0-2-0.9-2-2v-10.2c0-1.1,0.9-2,2-2h7.4c1.1,0,2,0.9,2,2v10.2
		C154.2,463.5,153.3,464.4,152.2,464.4z"/>
	<path class="st1" d="M167.8,464.4h-7.4c-1.1,0-2-0.9-2-2v-10.2c0-1.1,0.9-2,2-2h7.4c1.1,0,2,0.9,2,2v10.2
		C169.8,463.5,168.9,464.4,167.8,464.4z"/>
	<path class="st1" d="M183.4,464.4H176c-1.1,0-2-0.9-2-2v-10.2c0-1.1,0.9-2,2-2h7.4c1.1,0,2,0.9,2,2v10.2
		C185.4,463.5,184.5,464.4,183.4,464.4z"/>
	<path class="st1" d="M199.1,464.4h-7.4c-1.1,0-2-0.9-2-2v-10.2c0-1.1,0.9-2,2-2h7.4c1.1,0,2,0.9,2,2v10.2
		C201.1,463.5,200.2,464.4,199.1,464.4z"/>
	<path class="st1" d="M214.7,464.4h-7.4c-1.1,0-2-0.9-2-2v-10.2c0-1.1,0.9-2,2-2h7.4c1.1,0,2,0.9,2,2v10.2
		C216.7,463.5,215.8,464.4,214.7,464.4z"/>
	<path class="st1" d="M74.1,490.7h-7.4c-1.1,0-2-0.9-2-2v-10.2c0-1.1,0.9-2,2-2h7.4c1.1,0,2,0.9,2,2v10.2
		C76.1,489.8,75.2,490.7,74.1,490.7z"/>
	<path class="st1" d="M58.5,175.5h-7.4c-1.1,0-2-0.9-2-2v-10.2c0-1.1,0.9-2,2-2h7.4c1.1,0,2,0.9,2,2v10.2
		C60.5,174.6,59.6,175.5,58.5,175.5z"/>
	<path class="st1" d="M58.5,201.8h-7.4c-1.1,0-2-0.9-2-2v-10.2c0-1.1,0.9-2,2-2h7.4c1.1,0,2,0.9,2,2v10.2
		C60.5,200.9,59.6,201.8,58.5,201.8z"/>
	<path class="st1" d="M58.5,228h-7.4c-1.1,0-2-0.9-2-2v-10.2c0-1.1,0.9-2,2-2h7.4c1.1,0,2,0.9,2,2V226C60.5,227.1,59.6,228,58.5,228
		z"/>
	<path class="st1" d="M58.5,254.3h-7.4c-1.1,0-2-0.9-2-2v-10.2c0-1.1,0.9-2,2-2h7.4c1.1,0,2,0.9,2,2v10.2
		C60.5,253.4,59.6,254.3,58.5,254.3z"/>
	<path class="st1" d="M58.5,280.6h-7.4c-1.1,0-2-0.9-2-2v-10.2c0-1.1,0.9-2,2-2h7.4c1.1,0,2,0.9,2,2v10.2
		C60.5,279.7,59.6,280.6,58.5,280.6z"/>
	<path class="st1" d="M58.5,306.8h-7.4c-1.1,0-2-0.9-2-2v-10.2c0-1.1,0.9-2,2-2h7.4c1.1,0,2,0.9,2,2v10.2
		C60.5,305.9,59.6,306.8,58.5,306.8z"/>
	<path class="st1" d="M58.5,333.1h-7.4c-1.1,0-2-0.9-2-2v-10.2c0-1.1,0.9-2,2-2h7.4c1.1,0,2,0.9,2,2v10.2
		C60.5,332.2,59.6,333.1,58.5,333.1z"/>
	<path class="st1" d="M58.5,359.3h-7.4c-1.1,0-2-0.9-2-2v-10.2c0-1.1,0.9-2,2-2h7.4c1.1,0,2,0.9,2,2v10.2
		C60.5,358.4,59.6,359.3,58.5,359.3z"/>
	<path class="st1" d="M58.5,385.6h-7.4c-1.1,0-2-0.9-2-2v-10.2c0-1.1,0.9-2,2-2h7.4c1.1,0,2,0.9,2,2v10.2
		C60.5,384.7,59.6,385.6,58.5,385.6z"/>
	<path class="st1" d="M58.5,411.9h-7.4c-1.1,0-2-0.9-2-2v-10.2c0-1.1,0.9-2,2-2h7.4c1.1,0,2,0.9,2,2v10.2
		C60.5,411,59.6,411.9,58.5,411.9z"/>
	<path class="st1" d="M58.5,438.1h-7.4c-1.1,0-2-0.9-2-2v-10.2c0-1.1,0.9-2,2-2h7.4c1.1,0,2,0.9,2,2v10.2
		C60.5,437.2,59.6,438.1,58.5,438.1z"/>
	<path class="st1" d="M58.5,464.4h-7.4c-1.1,0-2-0.9-2-2v-10.2c0-1.1,0.9-2,2-2h7.4c1.1,0,2,0.9,2,2v10.2
		C60.5,463.5,59.6,464.4,58.5,464.4z"/>
	<path class="st1" d="M58.5,490.7h-7.4c-1.1,0-2-0.9-2-2v-10.2c0-1.1,0.9-2,2-2h7.4c1.1,0,2,0.9,2,2v10.2
		C60.5,489.8,59.6,490.7,58.5,490.7z"/>
	<path class="st1" d="M89.7,490.7h-7.4c-1.1,0-2-0.9-2-2v-10.2c0-1.1,0.9-2,2-2h7.4c1.1,0,2,0.9,2,2v10.2
		C91.7,489.8,90.8,490.7,89.7,490.7z"/>
	<path class="st1" d="M105.4,490.7H98c-1.1,0-2-0.9-2-2v-10.2c0-1.1,0.9-2,2-2h7.4c1.1,0,2,0.9,2,2v10.2
		C107.4,489.8,106.5,490.7,105.4,490.7z"/>
	<path class="st1" d="M121,490.7h-7.4c-1.1,0-2-0.9-2-2v-10.2c0-1.1,0.9-2,2-2h7.4c1.1,0,2,0.9,2,2v10.2
		C123,489.8,122.1,490.7,121,490.7z"/>
	<path class="st1" d="M136.6,490.7h-7.4c-1.1,0-2-0.9-2-2v-10.2c0-1.1,0.9-2,2-2h7.4c1.1,0,2,0.9,2,2v10.2
		C138.6,489.8,137.7,490.7,136.6,490.7z"/>
	<path class="st1" d="M152.2,490.7h-7.4c-1.1,0-2-0.9-2-2v-10.2c0-1.1,0.9-2,2-2h7.4c1.1,0,2,0.9,2,2v10.2
		C154.2,489.8,153.3,490.7,152.2,490.7z"/>
	<path class="st1" d="M167.8,490.7h-7.4c-1.1,0-2-0.9-2-2v-10.2c0-1.1,0.9-2,2-2h7.4c1.1,0,2,0.9,2,2v10.2
		C169.8,489.8,168.9,490.7,167.8,490.7z"/>
	<path class="st1" d="M183.4,490.7H176c-1.1,0-2-0.9-2-2v-10.2c0-1.1,0.9-2,2-2h7.4c1.1,0,2,0.9,2,2v10.2
		C185.4,489.8,184.5,490.7,183.4,490.7z"/>
	<path class="st1" d="M199.1,490.7h-7.4c-1.1,0-2-0.9-2-2v-10.2c0-1.1,0.9-2,2-2h7.4c1.1,0,2,0.9,2,2v10.2
		C201.1,489.8,200.2,490.7,199.1,490.7z"/>
	<path class="st1" d="M214.7,490.7h-7.4c-1.1,0-2-0.9-2-2v-10.2c0-1.1,0.9-2,2-2h7.4c1.1,0,2,0.9,2,2v10.2
		C216.7,489.8,215.8,490.7,214.7,490.7z"/>
	<g>
		<g>
			<g>
				<polygon class="st1" points="255.2,488.3 253.7,484.5 249.7,484.5 249.7,479.9 250.1,479.9 250.1,484.1 254,484.1 255.4,487.8 
					256.7,487.3 256.8,487.7 				"/>
			</g>
			<g>
				<polygon class="st1" points="255,488.8 253.5,484.8 249.3,484.8 249.3,479.6 250.4,479.6 250.4,483.7 254.2,483.7 255.6,487.4 
					256.9,486.9 257.3,487.9 				"/>
			</g>
		</g>
		<g>
			<g>
				<rect x="249.9" y="482.3" class="st1" width="3.4" height="0.4"/>
			</g>
			<g>
				<rect x="249.5" y="481.9" class="st1" width="4.1" height="1.1"/>
			</g>
		</g>
		<g>
			<g>
				<circle class="st1" cx="250.5" cy="479.3" r="1.1"/>
			</g>
			<g>
				<path class="st1" d="M250.5,480.8c-0.8,0-1.5-0.7-1.5-1.5s0.7-1.5,1.5-1.5s1.5,0.7,1.5,1.5S251.4,480.8,250.5,480.8z
					 M250.5,478.5c-0.4,0-0.8,0.4-0.8,0.8s0.4,0.8,0.8,0.8c0.4,0,0.8-0.4,0.8-0.8S251,478.5,250.5,478.5z"/>
			</g>
		</g>
		<g>
			<g>
				<path class="st1" d="M250,489.4c-2.1,0-3.8-1.7-3.8-3.8c0-1.6,1-3,2.4-3.5l0.2,0.4c-1.3,0.5-2.2,1.8-2.2,3.1
					c0,1.9,1.5,3.4,3.4,3.4c1.2,0,2.3-0.6,2.9-1.6l0.4,0.2C252.6,488.8,251.4,489.4,250,489.4z"/>
			</g>
			<g>
				<path class="st1" d="M250,489.8c-2.3,0-4.1-1.9-4.1-4.1c0-1.7,1.1-3.3,2.7-3.9l0.3-0.1l0.4,1l-0.3,0.1c-1.2,0.4-1.9,1.6-1.9,2.8
					c0,1.7,1.4,3,3,3c1.1,0,2-0.5,2.6-1.4l0.2-0.3l0.9,0.6l-0.2,0.3C252.8,489,251.5,489.8,250,489.8z"/>
			</g>
		</g>
	</g>
	<g>
		<g>
			<g>
				<polygon class="st1" points="271.9,488.3 270.5,484.5 266.4,484.5 266.4,479.9 266.9,479.9 266.9,484.1 270.8,484.1 
					272.2,487.8 273.4,487.3 273.6,487.7 				"/>
			</g>
			<g>
				<polygon class="st1" points="271.7,488.8 270.2,484.8 266.1,484.8 266.1,479.6 267.2,479.6 267.2,483.7 271,483.7 272.4,487.4 
					273.6,486.9 274,487.9 				"/>
			</g>
		</g>
		<g>
			<g>
				<rect x="266.6" y="482.3" class="st1" width="3.4" height="0.4"/>
			</g>
			<g>
				<rect x="266.3" y="481.9" class="st1" width="4.1" height="1.1"/>
			</g>
		</g>
		<g>
			<g>
				<circle class="st1" cx="267.3" cy="479.3" r="1.1"/>
			</g>
			<g>
				<path class="st1" d="M267.3,480.8c-0.8,0-1.5-0.7-1.5-1.5s0.7-1.5,1.5-1.5s1.5,0.7,1.5,1.5S268.1,480.8,267.3,480.8z
					 M267.3,478.5c-0.4,0-0.8,0.4-0.8,0.8s0.4,0.8,0.8,0.8s0.8-0.4,0.8-0.8S267.7,478.5,267.3,478.5z"/>
			</g>
		</g>
		<g>
			<g>
				<path class="st1" d="M266.8,489.4c-2.1,0-3.8-1.7-3.8-3.8c0-1.6,1-3,2.4-3.5l0.2,0.4c-1.3,0.5-2.2,1.8-2.2,3.1
					c0,1.9,1.5,3.4,3.4,3.4c1.2,0,2.3-0.6,2.9-1.6l0.4,0.2C269.3,488.8,268.1,489.4,266.8,489.4z"/>
			</g>
			<g>
				<path class="st1" d="M266.8,489.8c-2.3,0-4.1-1.9-4.1-4.1c0-1.7,1.1-3.3,2.7-3.9l0.3-0.1l0.4,1l-0.3,0.1
					c-1.2,0.4-1.9,1.6-1.9,2.8c0,1.7,1.4,3,3,3c1.1,0,2-0.5,2.6-1.4l0.2-0.3l0.9,0.6l-0.2,0.3C269.6,489,268.3,489.8,266.8,489.8z"
					/>
			</g>
		</g>
	</g>
	<g class="st2">
		<path d="M178.1,81.9c-0.2-0.9-0.3-1.3-0.7-1.8c-0.7-0.8-1.8-1.2-3.2-1.2c-2.2,0-3.7,1.2-3.7,2.9c0,1.1,0.6,1.9,1.9,2.4
			c0.6,0.2,0.6,0.2,3,0.8c3.4,0.7,4.8,2,4.8,4.5c0,3-2.1,4.7-5.7,4.7c-2.4,0-4.2-0.7-5.1-2c-0.6-0.7-0.8-1.4-1-2.8l1.9-0.2
			c0.1,1,0.2,1.5,0.7,2.1c0.7,0.9,2,1.5,3.6,1.5c2.5,0,4.1-1.2,4.1-3.2c0-1-0.4-1.8-1.2-2.3c-0.7-0.4-0.9-0.5-3.5-1
			c-1.3-0.3-2.2-0.6-2.9-1c-1.3-0.7-2-1.9-2-3.4c0-2.7,2.2-4.4,5.5-4.4c2.1,0,3.7,0.7,4.7,2c0.5,0.6,0.7,1.2,0.9,2.3L178.1,81.9z"/>
		<path d="M194.5,82.3c-0.3-0.9-0.6-1.4-1-1.9c-0.9-1-2.1-1.5-3.7-1.5c-3.5,0-5.6,2.6-5.6,6.9c0,4.2,2.2,6.9,5.6,6.9
			c1.7,0,3.1-0.6,4-1.8c0.4-0.6,0.7-1.2,0.9-2.1l1.8,0.4c-0.4,1.3-0.6,1.9-1.1,2.5c-1.2,1.6-3.1,2.5-5.5,2.5c-2,0-3.8-0.6-5-1.9
			c-1.5-1.5-2.3-3.8-2.3-6.5c0-2.7,0.9-5.1,2.4-6.6c1.2-1.2,2.9-1.8,4.9-1.8c2,0,3.6,0.6,4.8,1.7c0.7,0.7,1.2,1.4,1.7,2.7
			L194.5,82.3z"/>
		<path d="M209.8,93.9c-0.1-0.6-0.4-1.5-1.3-3.6c-1.2-2.9-2.1-3.7-3.8-3.7h-3.9v5c0,1.1,0,1.6,0.2,2.4h-2c0.1-0.8,0.2-1.3,0.2-2.4
			V80.1c0-0.9,0-1.6-0.2-2.4c0.7,0,1.3,0.1,2.3,0.1h4.7c3.1,0,4.8,1.4,4.8,4.1c0,1.4-0.4,2.4-1.3,3.1c-0.6,0.6-1.2,0.8-2.3,1.1
			c0.9,0.3,1.4,0.8,2.2,2.3c0.5,1,1,2.1,1.7,3.6c0.4,0.8,0.7,1.5,1,2H209.8z M205.9,85c1,0,1.8-0.3,2.4-0.9c0.6-0.5,0.8-1.2,0.8-2.2
			c0-1.8-1.1-2.8-3.1-2.8h-5.2V85H205.9z"/>
		<path d="M225.5,94c-0.7-0.1-1.3-0.1-2.4-0.1h-6.2c-1,0-1.6,0-2.3,0.1c0.1-0.8,0.2-1.4,0.2-2.5V80c0-0.9,0-1.5-0.2-2.4
			c0.7,0,1.3,0.1,2.3,0.1h6.1c0.9,0,1.7,0,2.4-0.1v1.8c-0.7-0.1-1.3-0.1-2.4-0.1h-6.6v5.5h5.6c0.9,0,1.6,0,2.4-0.1v1.8
			c-0.7-0.1-1.3-0.1-2.4-0.1h-5.6v6.3h6.8c1,0,1.6,0,2.4-0.1V94z"/>
		<path d="M239.2,94c-0.7-0.1-1.3-0.1-2.4-0.1h-6.2c-1,0-1.6,0-2.3,0.1c0.1-0.8,0.2-1.4,0.2-2.5V80c0-0.9,0-1.5-0.2-2.4
			c0.7,0,1.3,0.1,2.3,0.1h6.1c0.9,0,1.7,0,2.4-0.1v1.8c-0.7-0.1-1.3-0.1-2.4-0.1h-6.6v5.5h5.6c0.9,0,1.6,0,2.4-0.1v1.8
			c-0.7-0.1-1.3-0.1-2.4-0.1h-5.6v6.3h6.8c1,0,1.6,0,2.4-0.1V94z"/>
		<path d="M244.2,77.7c0.2,0.5,0.5,1,1.1,1.9l6.7,10.1c0.2,0.4,0.9,1.4,1.4,2.3c-0.1-1.7-0.1-2.6-0.1-2.8v-9c0-1,0-1.7-0.2-2.4h2
			c-0.1,0.8-0.2,1.4-0.2,2.4v11.4c0,1.1,0,1.7,0.2,2.4h-2.3c-0.3-0.6-0.5-1-1.1-1.9l-6.8-10.3c-0.2-0.3-0.9-1.5-1.2-2
			c0.1,1,0.1,2,0.1,2.6v9.1c0,1.1,0,1.8,0.2,2.5h-2c0.1-0.7,0.2-1.4,0.2-2.5V80.1c0-1,0-1.6-0.2-2.4H244.2z"/>
		<path d="M260.2,77.6c0.6,0.1,1,0.1,1.8,0.1h1.3c0.7,0,1.1,0,1.8-0.1c-0.1,1.3-0.2,2.4-0.2,3.5v10.4c0,1,0,1.6,0.2,2.4h-2
			c0.1-0.7,0.2-1.4,0.2-2.4V79.1H262c-0.7,0-1.2,0-1.9,0.1V77.6z"/>
	</g>
	<rect x="408.5" y="161" class="st1" width="3" height="30.3"/>
	<rect x="408.6" y="292.3" class="st1" width="3" height="30.3"/>
	<rect x="49.7" y="511.3" class="st1" width="30.3" height="3"/>
	<rect x="204.9" y="511.3" class="st1" width="30.3" height="3"/>
	<rect x="358.2" y="511.3" class="st1" width="30.3" height="3"/>
	<g>
		<g>
			<rect y="424.7" class="st3" width="15.2" height="15.2"/>
		</g>
		<g>
			<circle class="st4" cx="7.6" cy="428" r="1.2"/>
			<polygon class="st4" points="10.3,438.3 4.8,438.3 7.6,430 7.6,430 			"/>
		</g>
	</g>
	<g>
		<g>
			<rect y="443.8" class="st5" width="15.2" height="15.2"/>
		</g>
		<g>
			<circle class="st4" cx="7.6" cy="447" r="1.2"/>
			<polygon class="st4" points="4.8,449.1 10.3,449.1 7.6,457.4 7.6,457.4 			"/>
		</g>
	</g>
</g>
</svg>
