<?xml version="1.0" encoding="utf-8"?>
<!-- Generator: Adobe Illustrator 21.1.0, SVG Export Plug-In . SVG Version: 6.00 Build 0)  -->
<svg version="1.1" id="書き出し" xmlns="http://www.w3.org/2000/svg" xmlns:xlink="http://www.w3.org/1999/xlink" x="0px"
	 y="0px" viewBox="0 0 415 572" style="enable-background:new 0 0 415 572;" xml:space="preserve">
<style type="text/css">
	.st0{fill:#EEEEEF;}
	.st1{enable-background:new    ;}
	.st2{fill:#9E9E9F;}
	.st3{fill:#E3007F;}
	.st4{fill:#FFFFFF;}
	.st5{fill:#0081CC;}
</style>
<g>
	<g>
		<rect x="28.6" class="st0" width="386.1" height="572"/>
	</g>
	<g class="st1">
		<path d="M200.8,107.5c-0.8-1-1.9-2.1-3.2-3.1c-0.7,0.8-1.2,1.3-1.9,1.8c-0.7,0.5-1.2,0.8-2,1.2c-0.2-0.3-0.2-0.4-0.5-0.7
			c0.8-0.3,1.3-0.6,2-1.2c1.6-1.2,2.8-2.8,3.6-4.5c0-0.1,0-0.1,0-0.1c0,0,0,0,0-0.1c-0.1,0-0.1,0-0.2,0l-3.3,0c-0.5,0-0.7,0-1,0.1
			l0-0.8c0.3,0,0.5,0.1,0.8,0.1c0,0,0.1,0,0.3,0l3.6,0c0.4,0,0.5,0,0.6-0.1l0.4,0.4c-0.1,0.1-0.2,0.2-0.3,0.5c-0.6,1.2-1,2-1.7,2.8
			c1.3,1,2.2,1.8,3.3,3L200.8,107.5z"/>
		<path d="M206.5,99.4c-0.1,0.1-0.1,0.1-0.2,0.4c-0.3,0.5-0.4,0.7-0.5,0.9c0.1,0,0.1,0,3-0.1c0.4,0,0.4,0,0.5-0.1l0.4,0.4
			c-0.1,0.1-0.1,0.1-0.2,0.5c-0.4,1.4-1.2,2.8-2,3.8c-0.9,1.1-2,1.8-3.5,2.5c-0.2-0.3-0.2-0.4-0.5-0.6c1.5-0.6,2.6-1.4,3.5-2.5
			c0.8-0.9,1.4-2.1,1.7-3.4l-3.4,0.1c-0.6,1-1.4,1.9-2.4,2.6c-0.2-0.2-0.3-0.3-0.6-0.5c1.1-0.7,1.8-1.5,2.5-2.7
			c0.4-0.7,0.6-1.1,0.6-1.5L206.5,99.4z"/>
		<path d="M212.9,99.6c0,0.2,0,0.4,0,0.8v2.7c0,0.5,0,0.6,0,0.8H212c0-0.2,0-0.4,0-0.8v-2.7c0-0.4,0-0.6,0-0.8H212.9z M217.3,99.6
			c0,0.2,0,0.4,0,0.9v1.2c0,1.6-0.1,2.5-0.2,3.1c-0.3,0.9-0.9,1.7-1.9,2.2c-0.5,0.3-1,0.5-1.8,0.7c-0.1-0.3-0.2-0.4-0.4-0.7
			c0.9-0.2,1.4-0.4,1.9-0.7c0.9-0.5,1.4-1.2,1.6-2.1c0.1-0.6,0.1-1,0.1-2.6v-1.1c0-0.5,0-0.7,0-0.9H217.3z"/>
		<path d="M219.6,103.1c0.3,0.1,0.6,0.1,1.2,0.1h5.8c0.7,0,0.9,0,1.2-0.1v0.8c-0.3,0-0.6,0-1.2,0h-5.8c-0.7,0-0.9,0-1.2,0V103.1z"/>
	</g>
	<g class="st1">
		<path d="M233.6,106.5c0.8,0,2-0.3,2.9-0.8c1.9-0.9,3.3-2.3,4.1-4.5c0.2,0.3,0.3,0.4,0.6,0.6c-0.8,1.7-1.7,2.9-3.1,3.8
			c-1,0.7-2.1,1.1-3.7,1.5c-0.3,0.1-0.4,0.1-0.6,0.2L233.6,106.5z M234.2,100.3c1.1,0.7,1.7,1.2,2.4,1.9l-0.5,0.6
			c-0.7-0.8-1.5-1.4-2.4-2L234.2,100.3z"/>
	</g>
	<g class="st1">
		<path d="M247.1,106.8c-0.6,0-0.8,0-1.1,0.1c0.1-0.8,0.1-0.9,0.3-1.3c0.2-0.6,0.7-1.2,1.3-1.7c0.4-0.3,0.4-0.3,1.5-1.1
			c1-0.7,1.3-1.1,1.3-1.7c0-0.8-0.6-1.3-1.7-1.3c-0.7,0-1.2,0.2-1.5,0.7c-0.2,0.3-0.3,0.5-0.4,1l-0.8-0.1c0.2-0.7,0.3-1.1,0.6-1.4
			c0.5-0.5,1.1-0.8,2-0.8c1.5,0,2.5,0.8,2.5,1.9c0,0.5-0.2,1-0.6,1.4c-0.3,0.3-0.6,0.5-1.7,1.3c-0.8,0.5-1.1,0.8-1.4,1.2
			c-0.3,0.4-0.5,0.7-0.6,1.2h3.2c0.5,0,0.8,0,1.2-0.1v0.8c-0.4,0-0.7-0.1-1.2-0.1H247.1z"/>
	</g>
	<g class="st1">
		<path d="M179.6,78.9c-0.2-0.9-0.3-1.3-0.8-1.8c-0.7-0.8-1.8-1.2-3.2-1.2c-2.2,0-3.8,1.2-3.8,2.9c0,1.1,0.6,1.9,1.9,2.4
			c0.6,0.2,0.6,0.2,3.1,0.8c3.4,0.7,4.8,2,4.8,4.5c0,3-2.1,4.7-5.8,4.7c-2.4,0-4.2-0.7-5.2-2c-0.6-0.8-0.8-1.4-1-2.8l1.9-0.2
			c0.1,1,0.2,1.5,0.7,2.1c0.7,0.9,2,1.5,3.6,1.5c2.6,0,4.1-1.2,4.1-3.2c0-1.1-0.4-1.8-1.2-2.3c-0.7-0.4-0.9-0.5-3.5-1.1
			c-1.4-0.3-2.2-0.6-2.9-1c-1.3-0.8-2-1.9-2-3.4c0-2.7,2.2-4.4,5.5-4.4c2.1,0,3.8,0.7,4.7,2c0.5,0.6,0.7,1.2,0.9,2.3L179.6,78.9z"/>
		<path d="M196.1,79.3c-0.3-0.9-0.6-1.4-1-1.9c-0.9-1-2.1-1.5-3.7-1.5c-3.5,0-5.7,2.7-5.7,6.9c0,4.2,2.2,7,5.7,7
			c1.7,0,3.1-0.6,4-1.8c0.5-0.6,0.7-1.2,0.9-2.1l1.8,0.4c-0.4,1.3-0.6,1.9-1.2,2.6c-1.2,1.6-3.2,2.5-5.6,2.5c-2.1,0-3.8-0.6-5-1.9
			c-1.5-1.5-2.3-3.8-2.3-6.5c0-2.8,0.9-5.1,2.4-6.7c1.2-1.2,2.9-1.8,4.9-1.8c2,0,3.6,0.6,4.8,1.7c0.8,0.7,1.2,1.4,1.7,2.7
			L196.1,79.3z"/>
		<path d="M211.6,91c-0.1-0.6-0.4-1.5-1.3-3.7c-1.2-2.9-2.1-3.8-3.8-3.8h-4v5c0,1.1,0,1.7,0.2,2.4h-2c0.1-0.8,0.2-1.4,0.2-2.4V77.1
			c0-0.9,0-1.6-0.2-2.5c0.8,0,1.4,0.1,2.3,0.1h4.7c3.1,0,4.8,1.5,4.8,4.1c0,1.4-0.4,2.4-1.3,3.2c-0.6,0.6-1.2,0.8-2.3,1.1
			c0.9,0.3,1.4,0.8,2.2,2.4c0.5,1,1,2.1,1.7,3.6c0.4,0.8,0.7,1.5,1,2H211.6z M207.7,82.1c1,0,1.8-0.3,2.4-0.9
			c0.6-0.5,0.8-1.2,0.8-2.2c0-1.8-1.1-2.8-3.1-2.8h-5.2v5.9H207.7z"/>
		<path d="M227.4,91.2c-0.7-0.1-1.3-0.2-2.4-0.2h-6.3c-1,0-1.6,0-2.4,0.1c0.1-0.8,0.2-1.5,0.2-2.6V77.1c0-0.9,0-1.5-0.2-2.4
			c0.8,0,1.3,0.1,2.4,0.1h6.1c0.9,0,1.7,0,2.4-0.2v1.8c-0.8-0.1-1.3-0.2-2.4-0.2h-6.6v5.5h5.6c0.9,0,1.6,0,2.4-0.2v1.8
			c-0.7-0.1-1.3-0.2-2.4-0.2h-5.6v6.3h6.8c1,0,1.6,0,2.4-0.1V91.2z"/>
		<path d="M241.2,91.2c-0.7-0.1-1.3-0.2-2.4-0.2h-6.3c-1,0-1.6,0-2.4,0.1c0.1-0.8,0.2-1.5,0.2-2.6V77.1c0-0.9,0-1.5-0.2-2.4
			c0.8,0,1.3,0.1,2.4,0.1h6.1c0.9,0,1.7,0,2.4-0.2v1.8c-0.8-0.1-1.3-0.2-2.4-0.2H232v5.5h5.6c0.9,0,1.6,0,2.4-0.2v1.8
			c-0.7-0.1-1.3-0.2-2.4-0.2H232v6.3h6.8c1,0,1.6,0,2.4-0.1V91.2z"/>
		<path d="M246.2,74.7c0.2,0.5,0.5,1,1.1,1.9l6.8,10.1c0.2,0.4,0.9,1.4,1.4,2.3c-0.1-1.7-0.1-2.7-0.1-2.9v-9.1c0-1.1,0-1.7-0.2-2.5
			h2c-0.1,0.8-0.2,1.4-0.2,2.5v11.4c0,1.1,0,1.7,0.2,2.4h-2.3c-0.3-0.6-0.5-1.1-1.1-1.9l-6.9-10.3c-0.2-0.3-0.9-1.5-1.2-2.1
			c0.1,1,0.1,2.1,0.1,2.6v9.2c0,1.1,0,1.8,0.2,2.6h-2c0.1-0.7,0.2-1.4,0.2-2.6V77.1c0-1,0-1.6-0.2-2.4H246.2z"/>
		<path d="M262.5,91c-1.4,0-1.7,0-2.4,0.1c0.2-1.7,0.3-2,0.6-2.8c0.5-1.4,1.4-2.5,2.8-3.7c0.8-0.6,0.8-0.7,3.3-2.4
			c2.1-1.4,2.8-2.4,2.8-3.7c0-1.6-1.4-2.7-3.6-2.7c-1.4,0-2.5,0.5-3.1,1.4c-0.4,0.6-0.6,1.1-0.8,2.2l-1.8-0.3
			c0.3-1.5,0.6-2.3,1.4-3.1c1-1.1,2.4-1.7,4.3-1.7c3.2,0,5.3,1.6,5.3,4.2c0,1.1-0.4,2.1-1.3,3c-0.6,0.7-1.2,1.1-3.6,2.8
			c-1.7,1.1-2.4,1.7-3.1,2.6c-0.7,0.9-1,1.5-1.2,2.5h6.8c1.1,0,1.8,0,2.6-0.1v1.8c-0.9-0.1-1.6-0.1-2.6-0.1H262.5z"/>
	</g>
	<g>
		<g class="st1">
			<path d="M60.5,143.4c0.3,0,0.5,0.1,1,0.1h0.7c0.4,0,0.6,0,1-0.1c-0.1,0.7-0.1,1.3-0.1,1.9v5.6c0,0.5,0,0.9,0.1,1.3H62
				c0.1-0.4,0.1-0.8,0.1-1.3v-6.6h-0.6c-0.4,0-0.7,0-1,0.1V143.4z"/>
		</g>
	</g>
	<g>
		<g class="st1">
			<path d="M80.3,152.2c-0.7,0-0.9,0-1.3,0.1c0.1-0.9,0.2-1.1,0.3-1.5c0.3-0.7,0.8-1.3,1.5-2c0.4-0.3,0.4-0.4,1.8-1.3
				c1.1-0.8,1.5-1.3,1.5-2c0-0.9-0.7-1.4-1.9-1.4c-0.8,0-1.3,0.3-1.7,0.7c-0.2,0.3-0.3,0.6-0.4,1.2l-1-0.2c0.2-0.8,0.3-1.2,0.7-1.6
				c0.5-0.6,1.3-0.9,2.3-0.9c1.7,0,2.8,0.9,2.8,2.2c0,0.6-0.2,1.1-0.7,1.6c-0.3,0.4-0.6,0.6-1.9,1.5c-0.9,0.6-1.3,0.9-1.6,1.4
				c-0.4,0.5-0.5,0.8-0.7,1.3h3.7c0.6,0,1,0,1.4-0.1v1c-0.5,0-0.8-0.1-1.4-0.1H80.3z"/>
		</g>
	</g>
	<g>
		<g class="st1">
			<path d="M99.6,150.1c0.2,0.6,0.3,0.8,0.7,1.1c0.4,0.3,0.9,0.4,1.5,0.4c1.3,0,2.2-0.7,2.2-1.8c0-1.1-0.8-1.8-2.3-1.8
				c-0.3,0-0.6,0-0.9,0.1v-0.9c0.3,0,0.5,0.1,0.8,0.1c0.8,0,1.3-0.2,1.7-0.5c0.3-0.3,0.5-0.7,0.5-1.1c0-1-0.7-1.6-1.8-1.6
				c-0.7,0-1.2,0.2-1.5,0.6c-0.2,0.2-0.2,0.4-0.4,0.8l-0.9-0.2c0.2-0.6,0.3-0.8,0.6-1.1c0.5-0.5,1.3-0.8,2.3-0.8
				c1.7,0,2.7,0.9,2.7,2.2c0,0.7-0.3,1.3-0.8,1.7c-0.3,0.2-0.5,0.3-1.1,0.4c0.7,0.1,1,0.2,1.4,0.5c0.5,0.4,0.8,1,0.8,1.7
				c0,1.5-1.2,2.5-3.1,2.5c-1.2,0-2-0.3-2.6-0.9c-0.2-0.3-0.4-0.5-0.6-1.1L99.6,150.1z"/>
		</g>
	</g>
	<g>
		<g class="st1">
			<path d="M118.2,149.2c0.2-0.3,0.5-0.6,0.7-0.9l2.9-3.6c0.4-0.5,0.6-0.8,0.9-1.2h0.9c-0.1,0.7-0.1,1-0.1,1.9v3.8h0.4
				c0.5,0,0.8,0,1.2-0.1v0.9c-0.4-0.1-0.7-0.1-1.2-0.1h-0.4v1c0,0.5,0,0.8,0.1,1.2h-1c0.1-0.4,0.1-0.7,0.1-1.2v-1h-3.1
				c-0.6,0-1,0-1.4,0V149.2z M122.6,146.3c0-0.6,0-1,0.1-1.6c-0.2,0.3-0.5,0.7-0.9,1.1l-2.6,3.3h3.4V146.3z"/>
		</g>
	</g>
	<g>
		<g class="st1">
			<path d="M139.6,146.8c0,0.2,0,0.2-0.1,0.5c0.5-0.5,1.2-0.8,2-0.8c0.8,0,1.5,0.3,2.1,0.8c0.5,0.5,0.8,1.2,0.8,2c0,1.8-1.2,3-3.1,3
				c-0.9,0-1.6-0.3-2.2-0.8c-0.3-0.3-0.4-0.5-0.7-1.1l0.9-0.3c0.1,0.3,0.2,0.5,0.4,0.7c0.4,0.4,1,0.7,1.6,0.7c1.3,0,2.1-0.9,2.1-2.2
				c0-1.3-0.8-2.1-2-2.1c-0.6,0-1.1,0.2-1.5,0.5c-0.3,0.2-0.4,0.4-0.5,0.7l-0.9-0.1c0.1-0.4,0.1-0.7,0.2-1.2l0.3-2.6
				c0-0.3,0-0.5,0-0.7c0-0.2,0-0.2,0-0.5c0.4,0,0.5,0.1,1.2,0.1h2.4c0.6,0,0.9,0,1.3-0.1v1c-0.4-0.1-0.8-0.1-1.3-0.1h-2.7
				L139.6,146.8z"/>
		</g>
	</g>
	<g>
		<g class="st1">
			<path d="M163.1,145.4c-0.1-0.4-0.2-0.5-0.4-0.7c-0.3-0.4-0.8-0.6-1.4-0.6c-0.9,0-1.6,0.5-2,1.4c-0.3,0.7-0.4,1.2-0.5,2.5
				c0.2-0.4,0.3-0.5,0.6-0.7c0.5-0.5,1.1-0.7,1.9-0.7c1.8,0,2.9,1.1,2.9,2.9c0,1.8-1.2,2.9-3,2.9c-0.8,0-1.6-0.3-2.1-0.7
				c-0.7-0.7-1.2-2-1.2-3.6c0-1.4,0.3-2.7,0.9-3.5c0.6-0.8,1.4-1.2,2.4-1.2c0.7,0,1.3,0.2,1.7,0.5c0.4,0.3,0.6,0.6,1,1.3
				L163.1,145.4z M161.3,147.3c-0.6,0-1.2,0.3-1.6,0.7c-0.4,0.4-0.6,0.9-0.6,1.5c0,1.2,0.9,2.2,2.2,2.2c0.7,0,1.4-0.4,1.8-0.9
				c0.2-0.3,0.3-0.8,0.3-1.2C163.3,148.1,162.6,147.3,161.3,147.3z"/>
		</g>
	</g>
	<g>
		<g class="st1">
			<path d="M183.9,144.3c-0.2,0.2-0.4,0.4-0.8,1.1c-1,1.6-1.5,2.6-2,4c-0.3,1-0.4,1.5-0.6,2.9h-1.1c0.4-2.1,0.7-3.1,1.4-4.6
				c0.5-1.1,1-1.9,2.1-3.3h-3.7c-0.5,0-0.9,0-1.3,0.1v-1c0.4,0.1,0.8,0.1,1.3,0.1h3.4c0.7,0,0.9,0,1.3-0.1V144.3z"/>
		</g>
	</g>
	<g>
		<g class="st1">
			<path d="M202.9,148.1c0.6,0.4,0.9,1,0.9,1.8c0,1.6-1.1,2.4-3.2,2.4c-2.1,0-3.2-0.9-3.2-2.4c0-0.8,0.3-1.5,1-1.9
				c0.4-0.2,0.6-0.3,1-0.4c-1-0.2-1.7-1-1.7-2.1c0-1.4,1.1-2.3,2.8-2.3c1.8,0,2.8,0.9,2.8,2.3c0,1.1-0.6,1.9-1.7,2.1
				C202.2,147.7,202.5,147.8,202.9,148.1z M198.3,149.9c0,1.1,0.8,1.7,2.3,1.7c0.8,0,1.5-0.2,1.8-0.6c0.3-0.3,0.4-0.7,0.4-1.1
				c0-1.1-0.9-1.8-2.3-1.8C199.2,148.1,198.3,148.8,198.3,149.9z M198.7,145.6c0,1,0.7,1.6,1.9,1.6s1.9-0.6,1.9-1.6
				c0-1-0.8-1.6-1.9-1.6C199.4,144.1,198.7,144.7,198.7,145.6z"/>
		</g>
	</g>
	<g>
		<g class="st1">
			<path d="M237.9,150.3c0.1,0.4,0.2,0.5,0.4,0.7c0.3,0.4,0.8,0.5,1.4,0.5c0.8,0,1.4-0.3,1.8-1.1c0.2-0.4,0.4-0.9,0.5-1.5
				c0-0.3,0.1-0.8,0.1-1.3c-0.2,0.3-0.3,0.4-0.5,0.6c-0.6,0.5-1.2,0.8-2.1,0.8c-0.8,0-1.6-0.3-2.1-0.8c-0.5-0.5-0.8-1.2-0.8-2.1
				c0-1.8,1.2-3,3.1-3c1.3,0,2.3,0.7,2.8,1.9c0.2,0.6,0.3,1.4,0.3,2.4c0,1.6-0.3,2.9-0.9,3.7c-0.6,0.7-1.3,1.1-2.4,1.1
				c-0.8,0-1.4-0.2-1.9-0.6c-0.3-0.3-0.5-0.5-0.8-1.1L237.9,150.3z M242,146.3c0-1.2-0.9-2.2-2.1-2.2c-0.8,0-1.4,0.4-1.8,1
				c-0.2,0.3-0.3,0.8-0.3,1.2c0,1.3,0.8,2.1,2,2.1C241,148.4,242,147.5,242,146.3z"/>
		</g>
	</g>
	<g>
		<g class="st1">
			<path d="M254,143.4c0.3,0,0.5,0.1,1,0.1h0.7c0.4,0,0.6,0,1-0.1c-0.1,0.7-0.1,1.3-0.1,1.9v5.6c0,0.5,0,0.9,0.1,1.3h-1.1
				c0.1-0.4,0.1-0.8,0.1-1.3v-6.6H255c-0.4,0-0.7,0-1,0.1V143.4z"/>
			<path d="M261.4,151.5c-0.3-0.3-0.5-0.7-0.7-1.1c-0.3-0.8-0.4-1.7-0.4-2.6c0-1.2,0.3-2.4,0.7-3.1c0.5-0.9,1.4-1.4,2.6-1.4
				c0.8,0,1.6,0.3,2.1,0.8c0.3,0.3,0.5,0.7,0.7,1.1c0.3,0.8,0.4,1.7,0.4,2.7c0,1.4-0.3,2.6-0.8,3.3c-0.6,0.8-1.4,1.2-2.4,1.2
				C262.6,152.4,261.9,152.1,261.4,151.5z M262,144.7c-0.2,0.3-0.4,0.5-0.5,0.8c-0.2,0.7-0.4,1.5-0.4,2.3c0,1.1,0.2,2.2,0.5,2.7
				c0.4,0.7,1,1,1.8,1c0.6,0,1.1-0.2,1.4-0.5c0.3-0.3,0.4-0.6,0.5-0.9c0.2-0.7,0.4-1.5,0.4-2.3c0-1-0.2-2.1-0.5-2.7
				c-0.4-0.7-1-1-1.8-1C262.9,144.1,262.4,144.3,262,144.7z"/>
		</g>
	</g>
	<g>
		<g class="st1">
			<path d="M273.8,143.4c0.3,0,0.5,0.1,1,0.1h0.7c0.4,0,0.6,0,1-0.1c-0.1,0.7-0.1,1.3-0.1,1.9v5.6c0,0.5,0,0.9,0.1,1.3h-1.1
				c0.1-0.4,0.1-0.8,0.1-1.3v-6.6h-0.6c-0.4,0-0.7,0-1,0.1V143.4z"/>
			<path d="M281.3,143.4c0.3,0,0.5,0.1,0.9,0.1h0.7c0.4,0,0.6,0,0.9-0.1c-0.1,0.7-0.1,1.3-0.1,1.9v5.6c0,0.5,0,0.9,0.1,1.3h-1.1
				c0.1-0.4,0.1-0.8,0.1-1.3v-6.6h-0.6c-0.4,0-0.7,0-1,0.1V143.4z"/>
		</g>
	</g>
	<g>
		<g class="st1">
			<path d="M294.1,143.4c0.3,0,0.5,0.1,1,0.1h0.7c0.4,0,0.6,0,1-0.1c-0.1,0.7-0.1,1.3-0.1,1.9v5.6c0,0.5,0,0.9,0.1,1.3h-1.1
				c0.1-0.4,0.1-0.8,0.1-1.3v-6.6h-0.6c-0.4,0-0.7,0-1,0.1V143.4z"/>
			<path d="M301.7,152.2c-0.7,0-0.9,0-1.3,0.1c0.1-0.9,0.2-1.1,0.3-1.5c0.3-0.7,0.8-1.3,1.5-2c0.4-0.3,0.4-0.4,1.8-1.3
				c1.1-0.8,1.5-1.3,1.5-2c0-0.9-0.7-1.4-1.9-1.4c-0.8,0-1.3,0.3-1.7,0.7c-0.2,0.3-0.3,0.6-0.4,1.2l-1-0.2c0.2-0.8,0.3-1.2,0.7-1.6
				c0.5-0.6,1.3-0.9,2.3-0.9c1.7,0,2.8,0.9,2.8,2.2c0,0.6-0.2,1.1-0.7,1.6c-0.3,0.4-0.6,0.6-1.9,1.5c-0.9,0.6-1.3,0.9-1.6,1.4
				c-0.4,0.5-0.5,0.8-0.7,1.3h3.7c0.6,0,1,0,1.4-0.1v1c-0.5,0-0.8-0.1-1.4-0.1H301.7z"/>
		</g>
	</g>
	<g>
		<g class="st1">
			<path d="M313.7,143.4c0.3,0,0.5,0.1,1,0.1h0.7c0.4,0,0.6,0,1-0.1c-0.1,0.7-0.1,1.3-0.1,1.9v5.6c0,0.5,0,0.9,0.1,1.3h-1.1
				c0.1-0.4,0.1-0.8,0.1-1.3v-6.6h-0.6c-0.4,0-0.7,0-1,0.1V143.4z"/>
			<path d="M320.9,150.1c0.2,0.6,0.3,0.8,0.7,1.1c0.4,0.3,0.9,0.4,1.5,0.4c1.3,0,2.2-0.7,2.2-1.8c0-1.1-0.8-1.8-2.3-1.8
				c-0.3,0-0.6,0-0.9,0.1v-0.9c0.3,0,0.5,0.1,0.8,0.1c0.8,0,1.3-0.2,1.7-0.5c0.3-0.3,0.5-0.7,0.5-1.1c0-1-0.7-1.6-1.8-1.6
				c-0.7,0-1.2,0.2-1.5,0.6c-0.2,0.2-0.2,0.4-0.4,0.8l-1-0.2c0.2-0.6,0.3-0.8,0.6-1.1c0.5-0.5,1.3-0.8,2.3-0.8
				c1.7,0,2.7,0.9,2.7,2.2c0,0.7-0.3,1.3-0.8,1.7c-0.3,0.2-0.5,0.3-1.1,0.4c0.7,0.1,1,0.2,1.4,0.5c0.5,0.4,0.8,1,0.8,1.7
				c0,1.5-1.2,2.5-3.1,2.5c-1.2,0-2-0.3-2.6-0.9c-0.2-0.3-0.4-0.5-0.6-1.1L320.9,150.1z"/>
		</g>
	</g>
	<g>
		<g class="st1">
			<path d="M333.3,143.4c0.3,0,0.5,0.1,1,0.1h0.7c0.4,0,0.6,0,1-0.1c-0.1,0.7-0.1,1.3-0.1,1.9v5.6c0,0.5,0,0.9,0.1,1.3h-1.1
				c0.1-0.4,0.1-0.8,0.1-1.3v-6.6h-0.6c-0.4,0-0.7,0-1,0.1V143.4z"/>
			<path d="M339.4,149.2c0.2-0.3,0.5-0.6,0.7-0.9l2.9-3.6c0.4-0.5,0.6-0.8,0.9-1.2h0.9c-0.1,0.7-0.1,1-0.1,1.9v3.8h0.4
				c0.5,0,0.8,0,1.2-0.1v0.9c-0.4-0.1-0.7-0.1-1.2-0.1h-0.4v1c0,0.5,0,0.8,0.1,1.2h-1c0.1-0.4,0.1-0.7,0.1-1.2v-1h-3.1
				c-0.6,0-1,0-1.4,0V149.2z M343.8,146.3c0-0.6,0-1,0.1-1.6c-0.2,0.3-0.5,0.7-0.9,1.1l-2.6,3.3h3.4V146.3z"/>
		</g>
	</g>
	<g>
		<g class="st1">
			<path d="M353,143.4c0.3,0,0.5,0.1,1,0.1h0.7c0.4,0,0.6,0,1-0.1c-0.1,0.7-0.1,1.3-0.1,1.9v5.6c0,0.5,0,0.9,0.1,1.3h-1.1
				c0.1-0.4,0.1-0.8,0.1-1.3v-6.6H354c-0.4,0-0.7,0-1,0.1V143.4z"/>
			<path d="M360.7,146.8c0,0.2,0,0.2-0.1,0.5c0.5-0.5,1.2-0.8,2-0.8c0.8,0,1.5,0.3,2.1,0.8c0.5,0.5,0.8,1.2,0.8,2c0,1.8-1.2,3-3.1,3
				c-0.9,0-1.6-0.3-2.2-0.8c-0.3-0.3-0.4-0.5-0.7-1.1l0.9-0.3c0.1,0.3,0.2,0.5,0.4,0.7c0.4,0.4,1,0.7,1.6,0.7c1.3,0,2.1-0.9,2.1-2.2
				c0-1.3-0.8-2.1-2-2.1c-0.6,0-1.1,0.2-1.5,0.5c-0.3,0.2-0.4,0.4-0.5,0.7l-0.9-0.1c0.1-0.4,0.1-0.7,0.2-1.2l0.3-2.6
				c0-0.3,0-0.5,0-0.7c0-0.2,0-0.2,0-0.5c0.4,0,0.5,0.1,1.2,0.1h2.4c0.6,0,0.9,0,1.3-0.1v1c-0.4-0.1-0.8-0.1-1.3-0.1h-2.7
				L360.7,146.8z"/>
		</g>
	</g>
	<g>
		<g class="st1">
			<path d="M372.6,143.4c0.3,0,0.5,0.1,1,0.1h0.7c0.4,0,0.6,0,1-0.1c-0.1,0.7-0.1,1.3-0.1,1.9v5.6c0,0.5,0,0.9,0.1,1.3h-1.1
				c0.1-0.4,0.1-0.8,0.1-1.3v-6.6h-0.6c-0.4,0-0.7,0-1,0.1V143.4z"/>
			<path d="M384.1,145.4c-0.1-0.4-0.2-0.5-0.4-0.7c-0.3-0.4-0.8-0.6-1.4-0.6c-0.9,0-1.6,0.5-2,1.4c-0.3,0.7-0.4,1.2-0.5,2.5
				c0.2-0.4,0.3-0.5,0.6-0.7c0.5-0.5,1.1-0.7,1.9-0.7c1.8,0,2.9,1.1,2.9,2.9c0,1.8-1.2,2.9-3,2.9c-0.8,0-1.6-0.3-2.1-0.7
				c-0.7-0.7-1.2-2-1.2-3.6c0-1.4,0.3-2.7,0.9-3.5c0.6-0.8,1.4-1.2,2.4-1.2c0.7,0,1.3,0.2,1.7,0.5c0.4,0.3,0.6,0.6,1,1.3
				L384.1,145.4z M382.2,147.3c-0.6,0-1.2,0.3-1.6,0.7c-0.4,0.4-0.6,0.9-0.6,1.5c0,1.2,0.9,2.2,2.2,2.2c0.7,0,1.4-0.4,1.8-0.9
				c0.2-0.3,0.3-0.8,0.3-1.2C384.3,148.1,383.5,147.3,382.2,147.3z"/>
		</g>
	</g>
	<g>
		<g class="st1">
			<path d="M223.9,175.8c-0.1-0.4-0.2-0.8-0.4-1.2l-0.6-1.5h-4l-0.6,1.5c-0.2,0.4-0.3,0.8-0.4,1.2h-1.2c0.2-0.4,0.3-0.5,0.6-1.3
				l2.6-6.3c0.2-0.5,0.3-0.8,0.4-1.1h1.2c0,0.2,0.1,0.4,0.4,1.1l2.6,6.3c0.3,0.7,0.4,1,0.6,1.3H223.9z M221.2,168.6
				c0-0.1,0-0.1-0.3-0.7c-0.1,0.2-0.1,0.3-0.1,0.4c-0.1,0.2-0.1,0.3-0.1,0.4l-1.5,3.8h3.4L221.2,168.6z"/>
		</g>
	</g>
	<g>
		<g class="st1">
			<path d="M219,208.8c-0.5,0-0.9,0-1.3,0c0.1-0.5,0.1-0.8,0.1-1.4v-6.1c0-0.5,0-0.8-0.1-1.2c0.4,0,0.6,0,1.2,0h2.4
				c1.7,0,2.6,0.8,2.6,2.1c0,0.7-0.2,1.2-0.6,1.5c-0.2,0.2-0.4,0.3-0.9,0.5c0.5,0.1,0.8,0.2,1.1,0.5c0.5,0.4,0.7,1,0.7,1.7
				c0,1.5-1,2.4-2.8,2.4H219z M221.4,203.9c1.1,0,1.7-0.6,1.7-1.5c0-0.9-0.6-1.4-1.7-1.4h-2.7v3H221.4z M218.7,208.1h2.8
				c1.2,0,1.9-0.6,1.9-1.7c0-1.1-0.7-1.7-1.9-1.7h-2.7V208.1z"/>
		</g>
	</g>
	<g>
		<g class="st1">
			<path d="M223.7,235.6c-0.2-0.5-0.3-0.7-0.5-1c-0.5-0.5-1.1-0.8-2-0.8c-1.9,0-3,1.4-3,3.7c0,2.3,1.2,3.7,3,3.7
				c0.9,0,1.7-0.3,2.1-1c0.2-0.3,0.4-0.6,0.5-1.1l1,0.2c-0.2,0.7-0.3,1-0.6,1.4c-0.6,0.9-1.7,1.3-3,1.3c-1.1,0-2-0.3-2.7-1
				c-0.8-0.8-1.2-2-1.2-3.5c0-1.5,0.5-2.7,1.3-3.6c0.7-0.6,1.5-1,2.6-1c1.1,0,1.9,0.3,2.6,0.9c0.4,0.4,0.6,0.7,0.9,1.4L223.7,235.6z
				"/>
		</g>
	</g>
	<g>
		<g class="st1">
			<path d="M217.6,267.5c0-0.5,0-0.8-0.1-1.3c0.4,0,0.7,0,1.3,0h1.9c2.6,0,4,1.6,4,4.3c0,1.4-0.4,2.6-1.2,3.4c-0.7,0.7-1.6,1-2.8,1
				h-1.9c-0.5,0-0.9,0-1.3,0c0.1-0.4,0.1-0.8,0.1-1.4V267.5z M220.6,274.1c0.9,0,1.6-0.3,2.1-0.8c0.6-0.6,1-1.6,1-2.8
				c0-1.2-0.3-2.1-0.9-2.7c-0.5-0.5-1.2-0.8-2.2-0.8h-2.2v7.1H220.6z"/>
		</g>
	</g>
	<g>
		<g class="st1">
			<path d="M224,308c-0.4-0.1-0.7-0.1-1.3-0.1h-3.4c-0.5,0-0.9,0-1.3,0c0.1-0.4,0.1-0.8,0.1-1.4v-6.1c0-0.5,0-0.8-0.1-1.3
				c0.4,0,0.7,0,1.3,0h3.3c0.5,0,0.9,0,1.3-0.1v1c-0.4-0.1-0.7-0.1-1.3-0.1h-3.5v2.9h3c0.5,0,0.8,0,1.3-0.1v1
				c-0.4-0.1-0.7-0.1-1.3-0.1h-3v3.4h3.6c0.5,0,0.8,0,1.3-0.1V308z"/>
		</g>
	</g>
	<g>
		<g class="st1">
			<path d="M219.4,339.6c0,0.6,0,0.9,0.1,1.3h-1.1c0.1-0.4,0.1-0.7,0.1-1.3v-6.1c0-0.5,0-0.9-0.1-1.3c0.4,0,0.7,0,1.3,0h3
				c0.6,0,0.9,0,1.3-0.1v1c-0.4-0.1-0.7-0.1-1.3-0.1h-3.3v3h2.7c0.5,0,0.9,0,1.3-0.1v1c-0.4-0.1-0.7-0.1-1.3-0.1h-2.7V339.6z"/>
		</g>
	</g>
	<g>
		<g class="st1">
			<path d="M222.9,370.4c-0.6,0-0.9,0-1.2,0.1v-0.9c0.3,0.1,0.6,0.1,1.2,0.1h0.3c0.5,0,0.9,0,1.2,0c-0.1,0.5-0.1,0.8-0.1,1.3v1.1
				c0,0.5,0,0.8,0.1,1.3c-0.7,0.4-1,0.6-1.6,0.7c-0.5,0.1-1.1,0.2-1.7,0.2c-1.1,0-1.9-0.3-2.6-0.8c-0.9-0.8-1.4-2.1-1.4-3.7
				c0-2.8,1.6-4.5,4-4.5c1,0,1.8,0.3,2.4,0.8c0.4,0.4,0.6,0.7,0.8,1.3l-0.9,0.3c-0.4-1.1-1.2-1.6-2.4-1.6c-1.9,0-3,1.4-3,3.7
				c0,1.2,0.3,2.2,1,2.9c0.5,0.5,1.2,0.8,2.1,0.8c0.9,0,1.6-0.2,2.3-0.6v-2.3H222.9z"/>
		</g>
	</g>
	<g>
		<g class="st1">
			<path d="M224.5,398.3c-0.1,0.4-0.1,0.7-0.1,1.3v6.2c0,0.6,0,0.8,0.1,1.3h-1.1c0.1-0.4,0.1-0.7,0.1-1.3v-2.9h-5.2v2.9
				c0,0.6,0,0.9,0.1,1.3h-1.1c0.1-0.4,0.1-0.7,0.1-1.3v-6.1c0-0.5,0-0.9-0.1-1.3h1.1c-0.1,0.4-0.1,0.7-0.1,1.3v2.4h5.2v-2.4
				c0-0.5,0-0.9-0.1-1.3H224.5z"/>
		</g>
	</g>
	<g>
		<g class="st1">
			<path d="M221.5,431.3c-0.1,0.4-0.1,0.8-0.1,1.3v6.1c0,0.5,0,0.9,0.1,1.3h-1.1c0.1-0.4,0.1-0.7,0.1-1.3v-6.1c0-0.6,0-0.9-0.1-1.3
				H221.5z"/>
		</g>
	</g>
	<g>
		<g class="st1">
			<path d="M223,464.4c-0.1,0.4-0.1,0.7-0.1,1.3v5.1c0,0.8-0.1,1.3-0.5,1.7c-0.4,0.5-1,0.7-1.8,0.7c-0.8,0-1.5-0.2-1.9-0.7
				c-0.2-0.2-0.3-0.4-0.6-0.9l0.9-0.4c0.1,0.4,0.2,0.5,0.4,0.7c0.3,0.3,0.7,0.4,1.2,0.4c1,0,1.4-0.5,1.4-1.6v-5.1
				c0-0.5,0-0.9-0.1-1.3H223z"/>
		</g>
	</g>
	<g>
		<g class="st1">
			<path d="M223.7,504.9c0.7,0.8,0.8,1,1.1,1.2h-1.3c-0.2-0.3-0.4-0.6-0.7-1l-2.7-3.5l-1.3,1.3v1.9c0,0.6,0,0.9,0.1,1.3h-1.1
				c0.1-0.4,0.1-0.8,0.1-1.3v-6.1c0-0.5,0-0.9-0.1-1.3h1.1c-0.1,0.4-0.1,0.7-0.1,1.3v3.2l3.5-3.5c0.4-0.4,0.6-0.7,0.8-0.9h1.3
				c-0.2,0.2-0.2,0.2-0.3,0.3c-0.2,0.2-0.4,0.3-0.5,0.5c-0.2,0.2-0.3,0.4-0.4,0.4l-2.5,2.5L223.7,504.9z"/>
		</g>
	</g>
	<g>
		<g class="st1">
			<path d="M219.6,539.1c-0.5,0-0.8,0-1.2,0c0.1-0.4,0.1-0.8,0.1-1.4v-6c0-0.6,0-0.9-0.1-1.3h1.1c-0.1,0.4-0.1,0.7-0.1,1.3v6.5h3.6
				c0.6,0,0.9,0,1.3-0.1v1c-0.4-0.1-0.7-0.1-1.3-0.1H219.6z"/>
		</g>
	</g>
	<path class="st2" d="M246.6,181h-10.3c-1.1,0-2-0.9-2-2v-13.9c0-1.1,0.9-2,2-2h10.3c1.1,0,2,0.9,2,2V179
		C248.6,180.1,247.7,181,246.6,181z"/>
	<path class="st2" d="M266.3,181H256c-1.1,0-2-0.9-2-2v-13.9c0-1.1,0.9-2,2-2h10.3c1.1,0,2,0.9,2,2V179
		C268.3,180.1,267.4,181,266.3,181z"/>
	<path class="st2" d="M285.9,181h-10.3c-1.1,0-2-0.9-2-2v-13.9c0-1.1,0.9-2,2-2h10.3c1.1,0,2,0.9,2,2V179
		C287.9,180.1,287,181,285.9,181z"/>
	<path class="st2" d="M305.6,181h-10.3c-1.1,0-2-0.9-2-2v-13.9c0-1.1,0.9-2,2-2h10.3c1.1,0,2,0.9,2,2V179
		C307.6,180.1,306.7,181,305.6,181z"/>
	<path class="st2" d="M325.2,181h-10.3c-1.1,0-2-0.9-2-2v-13.9c0-1.1,0.9-2,2-2h10.3c1.1,0,2,0.9,2,2V179
		C327.2,180.1,326.3,181,325.2,181z"/>
	<path class="st2" d="M344.9,181h-10.3c-1.1,0-2-0.9-2-2v-13.9c0-1.1,0.9-2,2-2h10.3c1.1,0,2,0.9,2,2V179
		C346.9,180.1,346,181,344.9,181z"/>
	<path class="st2" d="M364.5,181h-10.3c-1.1,0-2-0.9-2-2v-13.9c0-1.1,0.9-2,2-2h10.3c1.1,0,2,0.9,2,2V179
		C366.5,180.1,365.6,181,364.5,181z"/>
	<path class="st2" d="M246.6,214h-10.3c-1.1,0-2-0.9-2-2v-13.9c0-1.1,0.9-2,2-2h10.3c1.1,0,2,0.9,2,2V212
		C248.6,213.1,247.7,214,246.6,214z"/>
	<path class="st2" d="M266.3,214H256c-1.1,0-2-0.9-2-2v-13.9c0-1.1,0.9-2,2-2h10.3c1.1,0,2,0.9,2,2V212
		C268.3,213.1,267.4,214,266.3,214z"/>
	<path class="st2" d="M285.9,214h-10.3c-1.1,0-2-0.9-2-2v-13.9c0-1.1,0.9-2,2-2h10.3c1.1,0,2,0.9,2,2V212
		C287.9,213.1,287,214,285.9,214z"/>
	<path class="st2" d="M305.6,214h-10.3c-1.1,0-2-0.9-2-2v-13.9c0-1.1,0.9-2,2-2h10.3c1.1,0,2,0.9,2,2V212
		C307.6,213.1,306.7,214,305.6,214z"/>
	<path class="st2" d="M325.2,214h-10.3c-1.1,0-2-0.9-2-2v-13.9c0-1.1,0.9-2,2-2h10.3c1.1,0,2,0.9,2,2V212
		C327.2,213.1,326.3,214,325.2,214z"/>
	<path class="st2" d="M344.9,214h-10.3c-1.1,0-2-0.9-2-2v-13.9c0-1.1,0.9-2,2-2h10.3c1.1,0,2,0.9,2,2V212
		C346.9,213.1,346,214,344.9,214z"/>
	<path class="st2" d="M364.5,214h-10.3c-1.1,0-2-0.9-2-2v-13.9c0-1.1,0.9-2,2-2h10.3c1.1,0,2,0.9,2,2V212
		C366.5,213.1,365.6,214,364.5,214z"/>
	<path class="st2" d="M246.6,247.1h-10.3c-1.1,0-2-0.9-2-2v-13.9c0-1.1,0.9-2,2-2h10.3c1.1,0,2,0.9,2,2v13.9
		C248.6,246.2,247.7,247.1,246.6,247.1z"/>
	<path class="st2" d="M266.3,247.1H256c-1.1,0-2-0.9-2-2v-13.9c0-1.1,0.9-2,2-2h10.3c1.1,0,2,0.9,2,2v13.9
		C268.3,246.2,267.4,247.1,266.3,247.1z"/>
	<path class="st2" d="M285.9,247.1h-10.3c-1.1,0-2-0.9-2-2v-13.9c0-1.1,0.9-2,2-2h10.3c1.1,0,2,0.9,2,2v13.9
		C287.9,246.2,287,247.1,285.9,247.1z"/>
	<path class="st2" d="M305.6,247.1h-10.3c-1.1,0-2-0.9-2-2v-13.9c0-1.1,0.9-2,2-2h10.3c1.1,0,2,0.9,2,2v13.9
		C307.6,246.2,306.7,247.1,305.6,247.1z"/>
	<path class="st2" d="M325.2,247.1h-10.3c-1.1,0-2-0.9-2-2v-13.9c0-1.1,0.9-2,2-2h10.3c1.1,0,2,0.9,2,2v13.9
		C327.2,246.2,326.3,247.1,325.2,247.1z"/>
	<path class="st2" d="M344.9,247.1h-10.3c-1.1,0-2-0.9-2-2v-13.9c0-1.1,0.9-2,2-2h10.3c1.1,0,2,0.9,2,2v13.9
		C346.9,246.2,346,247.1,344.9,247.1z"/>
	<path class="st2" d="M364.5,247.1h-10.3c-1.1,0-2-0.9-2-2v-13.9c0-1.1,0.9-2,2-2h10.3c1.1,0,2,0.9,2,2v13.9
		C366.5,246.2,365.6,247.1,364.5,247.1z"/>
	<path class="st2" d="M246.6,280.1h-10.3c-1.1,0-2-0.9-2-2v-13.9c0-1.1,0.9-2,2-2h10.3c1.1,0,2,0.9,2,2v13.9
		C248.6,279.2,247.7,280.1,246.6,280.1z"/>
	<path class="st2" d="M266.3,280.1H256c-1.1,0-2-0.9-2-2v-13.9c0-1.1,0.9-2,2-2h10.3c1.1,0,2,0.9,2,2v13.9
		C268.3,279.2,267.4,280.1,266.3,280.1z"/>
	<path class="st2" d="M285.9,280.1h-10.3c-1.1,0-2-0.9-2-2v-13.9c0-1.1,0.9-2,2-2h10.3c1.1,0,2,0.9,2,2v13.9
		C287.9,279.2,287,280.1,285.9,280.1z"/>
	<path class="st2" d="M305.6,280.1h-10.3c-1.1,0-2-0.9-2-2v-13.9c0-1.1,0.9-2,2-2h10.3c1.1,0,2,0.9,2,2v13.9
		C307.6,279.2,306.7,280.1,305.6,280.1z"/>
	<path class="st2" d="M325.2,280.1h-10.3c-1.1,0-2-0.9-2-2v-13.9c0-1.1,0.9-2,2-2h10.3c1.1,0,2,0.9,2,2v13.9
		C327.2,279.2,326.3,280.1,325.2,280.1z"/>
	<path class="st2" d="M344.9,280.1h-10.3c-1.1,0-2-0.9-2-2v-13.9c0-1.1,0.9-2,2-2h10.3c1.1,0,2,0.9,2,2v13.9
		C346.9,279.2,346,280.1,344.9,280.1z"/>
	<path class="st2" d="M364.5,280.1h-10.3c-1.1,0-2-0.9-2-2v-13.9c0-1.1,0.9-2,2-2h10.3c1.1,0,2,0.9,2,2v13.9
		C366.5,279.2,365.6,280.1,364.5,280.1z"/>
	<path class="st2" d="M246.6,313.2h-10.3c-1.1,0-2-0.9-2-2v-13.9c0-1.1,0.9-2,2-2h10.3c1.1,0,2,0.9,2,2v13.9
		C248.6,312.3,247.7,313.2,246.6,313.2z"/>
	<path class="st2" d="M266.3,313.2H256c-1.1,0-2-0.9-2-2v-13.9c0-1.1,0.9-2,2-2h10.3c1.1,0,2,0.9,2,2v13.9
		C268.3,312.3,267.4,313.2,266.3,313.2z"/>
	<path class="st2" d="M285.9,313.2h-10.3c-1.1,0-2-0.9-2-2v-13.9c0-1.1,0.9-2,2-2h10.3c1.1,0,2,0.9,2,2v13.9
		C287.9,312.3,287,313.2,285.9,313.2z"/>
	<path class="st2" d="M305.6,313.2h-10.3c-1.1,0-2-0.9-2-2v-13.9c0-1.1,0.9-2,2-2h10.3c1.1,0,2,0.9,2,2v13.9
		C307.6,312.3,306.7,313.2,305.6,313.2z"/>
	<path class="st2" d="M325.2,313.2h-10.3c-1.1,0-2-0.9-2-2v-13.9c0-1.1,0.9-2,2-2h10.3c1.1,0,2,0.9,2,2v13.9
		C327.2,312.3,326.3,313.2,325.2,313.2z"/>
	<path class="st2" d="M344.9,313.2h-10.3c-1.1,0-2-0.9-2-2v-13.9c0-1.1,0.9-2,2-2h10.3c1.1,0,2,0.9,2,2v13.9
		C346.9,312.3,346,313.2,344.9,313.2z"/>
	<path class="st2" d="M364.5,313.2h-10.3c-1.1,0-2-0.9-2-2v-13.9c0-1.1,0.9-2,2-2h10.3c1.1,0,2,0.9,2,2v13.9
		C366.5,312.3,365.6,313.2,364.5,313.2z"/>
	<path class="st2" d="M246.6,346.2h-10.3c-1.1,0-2-0.9-2-2v-13.9c0-1.1,0.9-2,2-2h10.3c1.1,0,2,0.9,2,2v13.9
		C248.6,345.3,247.7,346.2,246.6,346.2z"/>
	<path class="st2" d="M266.3,346.2H256c-1.1,0-2-0.9-2-2v-13.9c0-1.1,0.9-2,2-2h10.3c1.1,0,2,0.9,2,2v13.9
		C268.3,345.3,267.4,346.2,266.3,346.2z"/>
	<path class="st2" d="M285.9,346.2h-10.3c-1.1,0-2-0.9-2-2v-13.9c0-1.1,0.9-2,2-2h10.3c1.1,0,2,0.9,2,2v13.9
		C287.9,345.3,287,346.2,285.9,346.2z"/>
	<path class="st2" d="M305.6,346.2h-10.3c-1.1,0-2-0.9-2-2v-13.9c0-1.1,0.9-2,2-2h10.3c1.1,0,2,0.9,2,2v13.9
		C307.6,345.3,306.7,346.2,305.6,346.2z"/>
	<path class="st2" d="M325.2,346.2h-10.3c-1.1,0-2-0.9-2-2v-13.9c0-1.1,0.9-2,2-2h10.3c1.1,0,2,0.9,2,2v13.9
		C327.2,345.3,326.3,346.2,325.2,346.2z"/>
	<path class="st2" d="M344.9,346.2h-10.3c-1.1,0-2-0.9-2-2v-13.9c0-1.1,0.9-2,2-2h10.3c1.1,0,2,0.9,2,2v13.9
		C346.9,345.3,346,346.2,344.9,346.2z"/>
	<path class="st2" d="M364.5,346.2h-10.3c-1.1,0-2-0.9-2-2v-13.9c0-1.1,0.9-2,2-2h10.3c1.1,0,2,0.9,2,2v13.9
		C366.5,345.3,365.6,346.2,364.5,346.2z"/>
	<path class="st2" d="M246.6,379.3h-10.3c-1.1,0-2-0.9-2-2v-13.9c0-1.1,0.9-2,2-2h10.3c1.1,0,2,0.9,2,2v13.9
		C248.6,378.4,247.7,379.3,246.6,379.3z"/>
	<path class="st2" d="M266.3,379.3H256c-1.1,0-2-0.9-2-2v-13.9c0-1.1,0.9-2,2-2h10.3c1.1,0,2,0.9,2,2v13.9
		C268.3,378.4,267.4,379.3,266.3,379.3z"/>
	<path class="st2" d="M285.9,379.3h-10.3c-1.1,0-2-0.9-2-2v-13.9c0-1.1,0.9-2,2-2h10.3c1.1,0,2,0.9,2,2v13.9
		C287.9,378.4,287,379.3,285.9,379.3z"/>
	<path class="st2" d="M305.6,379.3h-10.3c-1.1,0-2-0.9-2-2v-13.9c0-1.1,0.9-2,2-2h10.3c1.1,0,2,0.9,2,2v13.9
		C307.6,378.4,306.7,379.3,305.6,379.3z"/>
	<path class="st2" d="M325.2,379.3h-10.3c-1.1,0-2-0.9-2-2v-13.9c0-1.1,0.9-2,2-2h10.3c1.1,0,2,0.9,2,2v13.9
		C327.2,378.4,326.3,379.3,325.2,379.3z"/>
	<path class="st2" d="M344.9,379.3h-10.3c-1.1,0-2-0.9-2-2v-13.9c0-1.1,0.9-2,2-2h10.3c1.1,0,2,0.9,2,2v13.9
		C346.9,378.4,346,379.3,344.9,379.3z"/>
	<path class="st2" d="M364.5,379.3h-10.3c-1.1,0-2-0.9-2-2v-13.9c0-1.1,0.9-2,2-2h10.3c1.1,0,2,0.9,2,2v13.9
		C366.5,378.4,365.6,379.3,364.5,379.3z"/>
	<path class="st2" d="M246.6,412.3h-10.3c-1.1,0-2-0.9-2-2v-13.9c0-1.1,0.9-2,2-2h10.3c1.1,0,2,0.9,2,2v13.9
		C248.6,411.4,247.7,412.3,246.6,412.3z"/>
	<path class="st2" d="M266.3,412.3H256c-1.1,0-2-0.9-2-2v-13.9c0-1.1,0.9-2,2-2h10.3c1.1,0,2,0.9,2,2v13.9
		C268.3,411.4,267.4,412.3,266.3,412.3z"/>
	<path class="st2" d="M285.9,412.3h-10.3c-1.1,0-2-0.9-2-2v-13.9c0-1.1,0.9-2,2-2h10.3c1.1,0,2,0.9,2,2v13.9
		C287.9,411.4,287,412.3,285.9,412.3z"/>
	<path class="st2" d="M305.6,412.3h-10.3c-1.1,0-2-0.9-2-2v-13.9c0-1.1,0.9-2,2-2h10.3c1.1,0,2,0.9,2,2v13.9
		C307.6,411.4,306.7,412.3,305.6,412.3z"/>
	<path class="st2" d="M325.2,412.3h-10.3c-1.1,0-2-0.9-2-2v-13.9c0-1.1,0.9-2,2-2h10.3c1.1,0,2,0.9,2,2v13.9
		C327.2,411.4,326.3,412.3,325.2,412.3z"/>
	<path class="st2" d="M344.9,412.3h-10.3c-1.1,0-2-0.9-2-2v-13.9c0-1.1,0.9-2,2-2h10.3c1.1,0,2,0.9,2,2v13.9
		C346.9,411.4,346,412.3,344.9,412.3z"/>
	<path class="st2" d="M364.5,412.3h-10.3c-1.1,0-2-0.9-2-2v-13.9c0-1.1,0.9-2,2-2h10.3c1.1,0,2,0.9,2,2v13.9
		C366.5,411.4,365.6,412.3,364.5,412.3z"/>
	<path class="st2" d="M246.6,445.4h-10.3c-1.1,0-2-0.9-2-2v-13.9c0-1.1,0.9-2,2-2h10.3c1.1,0,2,0.9,2,2v13.9
		C248.6,444.5,247.7,445.4,246.6,445.4z"/>
	<path class="st2" d="M266.3,445.4H256c-1.1,0-2-0.9-2-2v-13.9c0-1.1,0.9-2,2-2h10.3c1.1,0,2,0.9,2,2v13.9
		C268.3,444.5,267.4,445.4,266.3,445.4z"/>
	<path class="st2" d="M285.9,445.4h-10.3c-1.1,0-2-0.9-2-2v-13.9c0-1.1,0.9-2,2-2h10.3c1.1,0,2,0.9,2,2v13.9
		C287.9,444.5,287,445.4,285.9,445.4z"/>
	<path class="st2" d="M305.6,445.4h-10.3c-1.1,0-2-0.9-2-2v-13.9c0-1.1,0.9-2,2-2h10.3c1.1,0,2,0.9,2,2v13.9
		C307.6,444.5,306.7,445.4,305.6,445.4z"/>
	<path class="st2" d="M325.2,445.4h-10.3c-1.1,0-2-0.9-2-2v-13.9c0-1.1,0.9-2,2-2h10.3c1.1,0,2,0.9,2,2v13.9
		C327.2,444.5,326.3,445.4,325.2,445.4z"/>
	<path class="st2" d="M344.9,445.4h-10.3c-1.1,0-2-0.9-2-2v-13.9c0-1.1,0.9-2,2-2h10.3c1.1,0,2,0.9,2,2v13.9
		C346.9,444.5,346,445.4,344.9,445.4z"/>
	<path class="st2" d="M364.5,445.4h-10.3c-1.1,0-2-0.9-2-2v-13.9c0-1.1,0.9-2,2-2h10.3c1.1,0,2,0.9,2,2v13.9
		C366.5,444.5,365.6,445.4,364.5,445.4z"/>
	<path class="st2" d="M246.6,478.4h-10.3c-1.1,0-2-0.9-2-2v-13.9c0-1.1,0.9-2,2-2h10.3c1.1,0,2,0.9,2,2v13.9
		C248.6,477.5,247.7,478.4,246.6,478.4z"/>
	<path class="st2" d="M266.3,478.4H256c-1.1,0-2-0.9-2-2v-13.9c0-1.1,0.9-2,2-2h10.3c1.1,0,2,0.9,2,2v13.9
		C268.3,477.5,267.4,478.4,266.3,478.4z"/>
	<path class="st2" d="M285.9,478.4h-10.3c-1.1,0-2-0.9-2-2v-13.9c0-1.1,0.9-2,2-2h10.3c1.1,0,2,0.9,2,2v13.9
		C287.9,477.5,287,478.4,285.9,478.4z"/>
	<path class="st2" d="M305.6,478.4h-10.3c-1.1,0-2-0.9-2-2v-13.9c0-1.1,0.9-2,2-2h10.3c1.1,0,2,0.9,2,2v13.9
		C307.6,477.5,306.7,478.4,305.6,478.4z"/>
	<path class="st2" d="M325.2,478.4h-10.3c-1.1,0-2-0.9-2-2v-13.9c0-1.1,0.9-2,2-2h10.3c1.1,0,2,0.9,2,2v13.9
		C327.2,477.5,326.3,478.4,325.2,478.4z"/>
	<path class="st2" d="M344.9,478.4h-10.3c-1.1,0-2-0.9-2-2v-13.9c0-1.1,0.9-2,2-2h10.3c1.1,0,2,0.9,2,2v13.9
		C346.9,477.5,346,478.4,344.9,478.4z"/>
	<path class="st2" d="M364.5,478.4h-10.3c-1.1,0-2-0.9-2-2v-13.9c0-1.1,0.9-2,2-2h10.3c1.1,0,2,0.9,2,2v13.9
		C366.5,477.5,365.6,478.4,364.5,478.4z"/>
	<path class="st2" d="M246.6,511.5h-10.3c-1.1,0-2-0.9-2-2v-13.9c0-1.1,0.9-2,2-2h10.3c1.1,0,2,0.9,2,2v13.9
		C248.6,510.6,247.7,511.5,246.6,511.5z"/>
	<path class="st2" d="M266.3,511.5H256c-1.1,0-2-0.9-2-2v-13.9c0-1.1,0.9-2,2-2h10.3c1.1,0,2,0.9,2,2v13.9
		C268.3,510.6,267.4,511.5,266.3,511.5z"/>
	<path class="st2" d="M285.9,511.5h-10.3c-1.1,0-2-0.9-2-2v-13.9c0-1.1,0.9-2,2-2h10.3c1.1,0,2,0.9,2,2v13.9
		C287.9,510.6,287,511.5,285.9,511.5z"/>
	<path class="st2" d="M305.6,511.5h-10.3c-1.1,0-2-0.9-2-2v-13.9c0-1.1,0.9-2,2-2h10.3c1.1,0,2,0.9,2,2v13.9
		C307.6,510.6,306.7,511.5,305.6,511.5z"/>
	<path class="st2" d="M325.2,511.5h-10.3c-1.1,0-2-0.9-2-2v-13.9c0-1.1,0.9-2,2-2h10.3c1.1,0,2,0.9,2,2v13.9
		C327.2,510.6,326.3,511.5,325.2,511.5z"/>
	<path class="st2" d="M344.9,511.5h-10.3c-1.1,0-2-0.9-2-2v-13.9c0-1.1,0.9-2,2-2h10.3c1.1,0,2,0.9,2,2v13.9
		C346.9,510.6,346,511.5,344.9,511.5z"/>
	<path class="st2" d="M364.5,511.5h-10.3c-1.1,0-2-0.9-2-2v-13.9c0-1.1,0.9-2,2-2h10.3c1.1,0,2,0.9,2,2v13.9
		C366.5,510.6,365.6,511.5,364.5,511.5z"/>
	<path class="st2" d="M305.6,544.5h-10.3c-1.1,0-2-0.9-2-2v-13.9c0-1.1,0.9-2,2-2h10.3c1.1,0,2,0.9,2,2v13.9
		C307.6,543.6,306.7,544.5,305.6,544.5z"/>
	<path class="st2" d="M325.2,544.5h-10.3c-1.1,0-2-0.9-2-2v-13.9c0-1.1,0.9-2,2-2h10.3c1.1,0,2,0.9,2,2v13.9
		C327.2,543.6,326.3,544.5,325.2,544.5z"/>
	<path class="st2" d="M344.9,544.5h-10.3c-1.1,0-2-0.9-2-2v-13.9c0-1.1,0.9-2,2-2h10.3c1.1,0,2,0.9,2,2v13.9
		C346.9,543.6,346,544.5,344.9,544.5z"/>
	<path class="st2" d="M364.5,544.5h-10.3c-1.1,0-2-0.9-2-2v-13.9c0-1.1,0.9-2,2-2h10.3c1.1,0,2,0.9,2,2v13.9
		C366.5,543.6,365.6,544.5,364.5,544.5z"/>
	<path class="st2" d="M384.2,181h-10.3c-1.1,0-2-0.9-2-2v-13.9c0-1.1,0.9-2,2-2h10.3c1.1,0,2,0.9,2,2V179
		C386.2,180.1,385.3,181,384.2,181z"/>
	<path class="st2" d="M384.2,214h-10.3c-1.1,0-2-0.9-2-2v-13.9c0-1.1,0.9-2,2-2h10.3c1.1,0,2,0.9,2,2V212
		C386.2,213.1,385.3,214,384.2,214z"/>
	<path class="st2" d="M384.2,247.1h-10.3c-1.1,0-2-0.9-2-2v-13.9c0-1.1,0.9-2,2-2h10.3c1.1,0,2,0.9,2,2v13.9
		C386.2,246.2,385.3,247.1,384.2,247.1z"/>
	<path class="st2" d="M384.2,280.1h-10.3c-1.1,0-2-0.9-2-2v-13.9c0-1.1,0.9-2,2-2h10.3c1.1,0,2,0.9,2,2v13.9
		C386.2,279.2,385.3,280.1,384.2,280.1z"/>
	<path class="st2" d="M384.2,313.2h-10.3c-1.1,0-2-0.9-2-2v-13.9c0-1.1,0.9-2,2-2h10.3c1.1,0,2,0.9,2,2v13.9
		C386.2,312.3,385.3,313.2,384.2,313.2z"/>
	<path class="st2" d="M384.2,346.2h-10.3c-1.1,0-2-0.9-2-2v-13.9c0-1.1,0.9-2,2-2h10.3c1.1,0,2,0.9,2,2v13.9
		C386.2,345.3,385.3,346.2,384.2,346.2z"/>
	<path class="st2" d="M384.2,379.3h-10.3c-1.1,0-2-0.9-2-2v-13.9c0-1.1,0.9-2,2-2h10.3c1.1,0,2,0.9,2,2v13.9
		C386.2,378.4,385.3,379.3,384.2,379.3z"/>
	<path class="st2" d="M384.2,412.3h-10.3c-1.1,0-2-0.9-2-2v-13.9c0-1.1,0.9-2,2-2h10.3c1.1,0,2,0.9,2,2v13.9
		C386.2,411.4,385.3,412.3,384.2,412.3z"/>
	<path class="st2" d="M384.2,445.4h-10.3c-1.1,0-2-0.9-2-2v-13.9c0-1.1,0.9-2,2-2h10.3c1.1,0,2,0.9,2,2v13.9
		C386.2,444.5,385.3,445.4,384.2,445.4z"/>
	<path class="st2" d="M384.2,478.4h-10.3c-1.1,0-2-0.9-2-2v-13.9c0-1.1,0.9-2,2-2h10.3c1.1,0,2,0.9,2,2v13.9
		C386.2,477.5,385.3,478.4,384.2,478.4z"/>
	<path class="st2" d="M384.2,511.5h-10.3c-1.1,0-2-0.9-2-2v-13.9c0-1.1,0.9-2,2-2h10.3c1.1,0,2,0.9,2,2v13.9
		C386.2,510.6,385.3,511.5,384.2,511.5z"/>
	<path class="st2" d="M384.2,544.5h-10.3c-1.1,0-2-0.9-2-2v-13.9c0-1.1,0.9-2,2-2h10.3c1.1,0,2,0.9,2,2v13.9
		C386.2,543.6,385.3,544.5,384.2,544.5z"/>
	<path class="st2" d="M68.4,181H58.1c-1.1,0-2-0.9-2-2v-13.9c0-1.1,0.9-2,2-2h10.3c1.1,0,2,0.9,2,2V179
		C70.4,180.1,69.5,181,68.4,181z"/>
	<path class="st2" d="M88.1,181H77.8c-1.1,0-2-0.9-2-2v-13.9c0-1.1,0.9-2,2-2h10.3c1.1,0,2,0.9,2,2V179
		C90.1,180.1,89.2,181,88.1,181z"/>
	<path class="st2" d="M107.7,181H97.4c-1.1,0-2-0.9-2-2v-13.9c0-1.1,0.9-2,2-2h10.3c1.1,0,2,0.9,2,2V179
		C109.7,180.1,108.8,181,107.7,181z"/>
	<path class="st2" d="M127.4,181h-10.3c-1.1,0-2-0.9-2-2v-13.9c0-1.1,0.9-2,2-2h10.3c1.1,0,2,0.9,2,2V179
		C129.4,180.1,128.5,181,127.4,181z"/>
	<path class="st2" d="M147,181h-10.3c-1.1,0-2-0.9-2-2v-13.9c0-1.1,0.9-2,2-2H147c1.1,0,2,0.9,2,2V179C149,180.1,148.1,181,147,181z
		"/>
	<path class="st2" d="M166.7,181h-10.3c-1.1,0-2-0.9-2-2v-13.9c0-1.1,0.9-2,2-2h10.3c1.1,0,2,0.9,2,2V179
		C168.7,180.1,167.8,181,166.7,181z"/>
	<path class="st2" d="M186.3,181H176c-1.1,0-2-0.9-2-2v-13.9c0-1.1,0.9-2,2-2h10.3c1.1,0,2,0.9,2,2V179
		C188.3,180.1,187.4,181,186.3,181z"/>
	<path class="st2" d="M206,181h-10.3c-1.1,0-2-0.9-2-2v-13.9c0-1.1,0.9-2,2-2H206c1.1,0,2,0.9,2,2V179C208,180.1,207.1,181,206,181z
		"/>
	<path class="st2" d="M68.4,214H58.1c-1.1,0-2-0.9-2-2v-13.9c0-1.1,0.9-2,2-2h10.3c1.1,0,2,0.9,2,2V212
		C70.4,213.1,69.5,214,68.4,214z"/>
	<path class="st2" d="M88.1,214H77.8c-1.1,0-2-0.9-2-2v-13.9c0-1.1,0.9-2,2-2h10.3c1.1,0,2,0.9,2,2V212
		C90.1,213.1,89.2,214,88.1,214z"/>
	<path class="st2" d="M107.7,214H97.4c-1.1,0-2-0.9-2-2v-13.9c0-1.1,0.9-2,2-2h10.3c1.1,0,2,0.9,2,2V212
		C109.7,213.1,108.8,214,107.7,214z"/>
	<path class="st2" d="M127.4,214h-10.3c-1.1,0-2-0.9-2-2v-13.9c0-1.1,0.9-2,2-2h10.3c1.1,0,2,0.9,2,2V212
		C129.4,213.1,128.5,214,127.4,214z"/>
	<path class="st2" d="M147,214h-10.3c-1.1,0-2-0.9-2-2v-13.9c0-1.1,0.9-2,2-2H147c1.1,0,2,0.9,2,2V212C149,213.1,148.1,214,147,214z
		"/>
	<path class="st2" d="M166.7,214h-10.3c-1.1,0-2-0.9-2-2v-13.9c0-1.1,0.9-2,2-2h10.3c1.1,0,2,0.9,2,2V212
		C168.7,213.1,167.8,214,166.7,214z"/>
	<path class="st2" d="M186.3,214H176c-1.1,0-2-0.9-2-2v-13.9c0-1.1,0.9-2,2-2h10.3c1.1,0,2,0.9,2,2V212
		C188.3,213.1,187.4,214,186.3,214z"/>
	<path class="st2" d="M206,214h-10.3c-1.1,0-2-0.9-2-2v-13.9c0-1.1,0.9-2,2-2H206c1.1,0,2,0.9,2,2V212C208,213.1,207.1,214,206,214z
		"/>
	<path class="st2" d="M68.4,247.1H58.1c-1.1,0-2-0.9-2-2v-13.9c0-1.1,0.9-2,2-2h10.3c1.1,0,2,0.9,2,2v13.9
		C70.4,246.2,69.5,247.1,68.4,247.1z"/>
	<path class="st2" d="M88.1,247.1H77.8c-1.1,0-2-0.9-2-2v-13.9c0-1.1,0.9-2,2-2h10.3c1.1,0,2,0.9,2,2v13.9
		C90.1,246.2,89.2,247.1,88.1,247.1z"/>
	<path class="st2" d="M107.7,247.1H97.4c-1.1,0-2-0.9-2-2v-13.9c0-1.1,0.9-2,2-2h10.3c1.1,0,2,0.9,2,2v13.9
		C109.7,246.2,108.8,247.1,107.7,247.1z"/>
	<path class="st2" d="M127.4,247.1h-10.3c-1.1,0-2-0.9-2-2v-13.9c0-1.1,0.9-2,2-2h10.3c1.1,0,2,0.9,2,2v13.9
		C129.4,246.2,128.5,247.1,127.4,247.1z"/>
	<path class="st2" d="M147,247.1h-10.3c-1.1,0-2-0.9-2-2v-13.9c0-1.1,0.9-2,2-2H147c1.1,0,2,0.9,2,2v13.9
		C149,246.2,148.1,247.1,147,247.1z"/>
	<path class="st2" d="M166.7,247.1h-10.3c-1.1,0-2-0.9-2-2v-13.9c0-1.1,0.9-2,2-2h10.3c1.1,0,2,0.9,2,2v13.9
		C168.7,246.2,167.8,247.1,166.7,247.1z"/>
	<path class="st2" d="M186.3,247.1H176c-1.1,0-2-0.9-2-2v-13.9c0-1.1,0.9-2,2-2h10.3c1.1,0,2,0.9,2,2v13.9
		C188.3,246.2,187.4,247.1,186.3,247.1z"/>
	<path class="st2" d="M206,247.1h-10.3c-1.1,0-2-0.9-2-2v-13.9c0-1.1,0.9-2,2-2H206c1.1,0,2,0.9,2,2v13.9
		C208,246.2,207.1,247.1,206,247.1z"/>
	<path class="st2" d="M68.4,280.1H58.1c-1.1,0-2-0.9-2-2v-13.9c0-1.1,0.9-2,2-2h10.3c1.1,0,2,0.9,2,2v13.9
		C70.4,279.2,69.5,280.1,68.4,280.1z"/>
	<path class="st2" d="M88.1,280.1H77.8c-1.1,0-2-0.9-2-2v-13.9c0-1.1,0.9-2,2-2h10.3c1.1,0,2,0.9,2,2v13.9
		C90.1,279.2,89.2,280.1,88.1,280.1z"/>
	<path class="st2" d="M107.7,280.1H97.4c-1.1,0-2-0.9-2-2v-13.9c0-1.1,0.9-2,2-2h10.3c1.1,0,2,0.9,2,2v13.9
		C109.7,279.2,108.8,280.1,107.7,280.1z"/>
	<path class="st2" d="M127.4,280.1h-10.3c-1.1,0-2-0.9-2-2v-13.9c0-1.1,0.9-2,2-2h10.3c1.1,0,2,0.9,2,2v13.9
		C129.4,279.2,128.5,280.1,127.4,280.1z"/>
	<path class="st2" d="M147,280.1h-10.3c-1.1,0-2-0.9-2-2v-13.9c0-1.1,0.9-2,2-2H147c1.1,0,2,0.9,2,2v13.9
		C149,279.2,148.1,280.1,147,280.1z"/>
	<path class="st2" d="M166.7,280.1h-10.3c-1.1,0-2-0.9-2-2v-13.9c0-1.1,0.9-2,2-2h10.3c1.1,0,2,0.9,2,2v13.9
		C168.7,279.2,167.8,280.1,166.7,280.1z"/>
	<path class="st2" d="M186.3,280.1H176c-1.1,0-2-0.9-2-2v-13.9c0-1.1,0.9-2,2-2h10.3c1.1,0,2,0.9,2,2v13.9
		C188.3,279.2,187.4,280.1,186.3,280.1z"/>
	<path class="st2" d="M206,280.1h-10.3c-1.1,0-2-0.9-2-2v-13.9c0-1.1,0.9-2,2-2H206c1.1,0,2,0.9,2,2v13.9
		C208,279.2,207.1,280.1,206,280.1z"/>
	<path class="st2" d="M68.4,313.2H58.1c-1.1,0-2-0.9-2-2v-13.9c0-1.1,0.9-2,2-2h10.3c1.1,0,2,0.9,2,2v13.9
		C70.4,312.3,69.5,313.2,68.4,313.2z"/>
	<path class="st2" d="M88.1,313.2H77.8c-1.1,0-2-0.9-2-2v-13.9c0-1.1,0.9-2,2-2h10.3c1.1,0,2,0.9,2,2v13.9
		C90.1,312.3,89.2,313.2,88.1,313.2z"/>
	<path class="st2" d="M107.7,313.2H97.4c-1.1,0-2-0.9-2-2v-13.9c0-1.1,0.9-2,2-2h10.3c1.1,0,2,0.9,2,2v13.9
		C109.7,312.3,108.8,313.2,107.7,313.2z"/>
	<path class="st2" d="M127.4,313.2h-10.3c-1.1,0-2-0.9-2-2v-13.9c0-1.1,0.9-2,2-2h10.3c1.1,0,2,0.9,2,2v13.9
		C129.4,312.3,128.5,313.2,127.4,313.2z"/>
	<path class="st2" d="M147,313.2h-10.3c-1.1,0-2-0.9-2-2v-13.9c0-1.1,0.9-2,2-2H147c1.1,0,2,0.9,2,2v13.9
		C149,312.3,148.1,313.2,147,313.2z"/>
	<path class="st2" d="M166.7,313.2h-10.3c-1.1,0-2-0.9-2-2v-13.9c0-1.1,0.9-2,2-2h10.3c1.1,0,2,0.9,2,2v13.9
		C168.7,312.3,167.8,313.2,166.7,313.2z"/>
	<path class="st2" d="M186.3,313.2H176c-1.1,0-2-0.9-2-2v-13.9c0-1.1,0.9-2,2-2h10.3c1.1,0,2,0.9,2,2v13.9
		C188.3,312.3,187.4,313.2,186.3,313.2z"/>
	<path class="st2" d="M206,313.2h-10.3c-1.1,0-2-0.9-2-2v-13.9c0-1.1,0.9-2,2-2H206c1.1,0,2,0.9,2,2v13.9
		C208,312.3,207.1,313.2,206,313.2z"/>
	<path class="st2" d="M68.4,346.2H58.1c-1.1,0-2-0.9-2-2v-13.9c0-1.1,0.9-2,2-2h10.3c1.1,0,2,0.9,2,2v13.9
		C70.4,345.3,69.5,346.2,68.4,346.2z"/>
	<path class="st2" d="M88.1,346.2H77.8c-1.1,0-2-0.9-2-2v-13.9c0-1.1,0.9-2,2-2h10.3c1.1,0,2,0.9,2,2v13.9
		C90.1,345.3,89.2,346.2,88.1,346.2z"/>
	<path class="st2" d="M107.7,346.2H97.4c-1.1,0-2-0.9-2-2v-13.9c0-1.1,0.9-2,2-2h10.3c1.1,0,2,0.9,2,2v13.9
		C109.7,345.3,108.8,346.2,107.7,346.2z"/>
	<path class="st2" d="M127.4,346.2h-10.3c-1.1,0-2-0.9-2-2v-13.9c0-1.1,0.9-2,2-2h10.3c1.1,0,2,0.9,2,2v13.9
		C129.4,345.3,128.5,346.2,127.4,346.2z"/>
	<path class="st2" d="M147,346.2h-10.3c-1.1,0-2-0.9-2-2v-13.9c0-1.1,0.9-2,2-2H147c1.1,0,2,0.9,2,2v13.9
		C149,345.3,148.1,346.2,147,346.2z"/>
	<path class="st2" d="M166.7,346.2h-10.3c-1.1,0-2-0.9-2-2v-13.9c0-1.1,0.9-2,2-2h10.3c1.1,0,2,0.9,2,2v13.9
		C168.7,345.3,167.8,346.2,166.7,346.2z"/>
	<path class="st2" d="M186.3,346.2H176c-1.1,0-2-0.9-2-2v-13.9c0-1.1,0.9-2,2-2h10.3c1.1,0,2,0.9,2,2v13.9
		C188.3,345.3,187.4,346.2,186.3,346.2z"/>
	<path class="st2" d="M206,346.2h-10.3c-1.1,0-2-0.9-2-2v-13.9c0-1.1,0.9-2,2-2H206c1.1,0,2,0.9,2,2v13.9
		C208,345.3,207.1,346.2,206,346.2z"/>
	<path class="st2" d="M68.4,379.3H58.1c-1.1,0-2-0.9-2-2v-13.9c0-1.1,0.9-2,2-2h10.3c1.1,0,2,0.9,2,2v13.9
		C70.4,378.4,69.5,379.3,68.4,379.3z"/>
	<path class="st2" d="M88.1,379.3H77.8c-1.1,0-2-0.9-2-2v-13.9c0-1.1,0.9-2,2-2h10.3c1.1,0,2,0.9,2,2v13.9
		C90.1,378.4,89.2,379.3,88.1,379.3z"/>
	<path class="st2" d="M107.7,379.3H97.4c-1.1,0-2-0.9-2-2v-13.9c0-1.1,0.9-2,2-2h10.3c1.1,0,2,0.9,2,2v13.9
		C109.7,378.4,108.8,379.3,107.7,379.3z"/>
	<path class="st2" d="M127.4,379.3h-10.3c-1.1,0-2-0.9-2-2v-13.9c0-1.1,0.9-2,2-2h10.3c1.1,0,2,0.9,2,2v13.9
		C129.4,378.4,128.5,379.3,127.4,379.3z"/>
	<path class="st2" d="M147,379.3h-10.3c-1.1,0-2-0.9-2-2v-13.9c0-1.1,0.9-2,2-2H147c1.1,0,2,0.9,2,2v13.9
		C149,378.4,148.1,379.3,147,379.3z"/>
	<path class="st2" d="M166.7,379.3h-10.3c-1.1,0-2-0.9-2-2v-13.9c0-1.1,0.9-2,2-2h10.3c1.1,0,2,0.9,2,2v13.9
		C168.7,378.4,167.8,379.3,166.7,379.3z"/>
	<path class="st2" d="M186.3,379.3H176c-1.1,0-2-0.9-2-2v-13.9c0-1.1,0.9-2,2-2h10.3c1.1,0,2,0.9,2,2v13.9
		C188.3,378.4,187.4,379.3,186.3,379.3z"/>
	<path class="st2" d="M206,379.3h-10.3c-1.1,0-2-0.9-2-2v-13.9c0-1.1,0.9-2,2-2H206c1.1,0,2,0.9,2,2v13.9
		C208,378.4,207.1,379.3,206,379.3z"/>
	<path class="st2" d="M68.4,412.3H58.1c-1.1,0-2-0.9-2-2v-13.9c0-1.1,0.9-2,2-2h10.3c1.1,0,2,0.9,2,2v13.9
		C70.4,411.4,69.5,412.3,68.4,412.3z"/>
	<path class="st2" d="M88.1,412.3H77.8c-1.1,0-2-0.9-2-2v-13.9c0-1.1,0.9-2,2-2h10.3c1.1,0,2,0.9,2,2v13.9
		C90.1,411.4,89.2,412.3,88.1,412.3z"/>
	<path class="st2" d="M107.7,412.3H97.4c-1.1,0-2-0.9-2-2v-13.9c0-1.1,0.9-2,2-2h10.3c1.1,0,2,0.9,2,2v13.9
		C109.7,411.4,108.8,412.3,107.7,412.3z"/>
	<path class="st2" d="M127.4,412.3h-10.3c-1.1,0-2-0.9-2-2v-13.9c0-1.1,0.9-2,2-2h10.3c1.1,0,2,0.9,2,2v13.9
		C129.4,411.4,128.5,412.3,127.4,412.3z"/>
	<path class="st2" d="M147,412.3h-10.3c-1.1,0-2-0.9-2-2v-13.9c0-1.1,0.9-2,2-2H147c1.1,0,2,0.9,2,2v13.9
		C149,411.4,148.1,412.3,147,412.3z"/>
	<path class="st2" d="M166.7,412.3h-10.3c-1.1,0-2-0.9-2-2v-13.9c0-1.1,0.9-2,2-2h10.3c1.1,0,2,0.9,2,2v13.9
		C168.7,411.4,167.8,412.3,166.7,412.3z"/>
	<path class="st2" d="M186.3,412.3H176c-1.1,0-2-0.9-2-2v-13.9c0-1.1,0.9-2,2-2h10.3c1.1,0,2,0.9,2,2v13.9
		C188.3,411.4,187.4,412.3,186.3,412.3z"/>
	<path class="st2" d="M206,412.3h-10.3c-1.1,0-2-0.9-2-2v-13.9c0-1.1,0.9-2,2-2H206c1.1,0,2,0.9,2,2v13.9
		C208,411.4,207.1,412.3,206,412.3z"/>
	<path class="st2" d="M68.4,445.4H58.1c-1.1,0-2-0.9-2-2v-13.9c0-1.1,0.9-2,2-2h10.3c1.1,0,2,0.9,2,2v13.9
		C70.4,444.5,69.5,445.4,68.4,445.4z"/>
	<path class="st2" d="M88.1,445.4H77.8c-1.1,0-2-0.9-2-2v-13.9c0-1.1,0.9-2,2-2h10.3c1.1,0,2,0.9,2,2v13.9
		C90.1,444.5,89.2,445.4,88.1,445.4z"/>
	<path class="st2" d="M107.7,445.4H97.4c-1.1,0-2-0.9-2-2v-13.9c0-1.1,0.9-2,2-2h10.3c1.1,0,2,0.9,2,2v13.9
		C109.7,444.5,108.8,445.4,107.7,445.4z"/>
	<path class="st2" d="M127.4,445.4h-10.3c-1.1,0-2-0.9-2-2v-13.9c0-1.1,0.9-2,2-2h10.3c1.1,0,2,0.9,2,2v13.9
		C129.4,444.5,128.5,445.4,127.4,445.4z"/>
	<path class="st2" d="M147,445.4h-10.3c-1.1,0-2-0.9-2-2v-13.9c0-1.1,0.9-2,2-2H147c1.1,0,2,0.9,2,2v13.9
		C149,444.5,148.1,445.4,147,445.4z"/>
	<path class="st2" d="M166.7,445.4h-10.3c-1.1,0-2-0.9-2-2v-13.9c0-1.1,0.9-2,2-2h10.3c1.1,0,2,0.9,2,2v13.9
		C168.7,444.5,167.8,445.4,166.7,445.4z"/>
	<path class="st2" d="M186.3,445.4H176c-1.1,0-2-0.9-2-2v-13.9c0-1.1,0.9-2,2-2h10.3c1.1,0,2,0.9,2,2v13.9
		C188.3,444.5,187.4,445.4,186.3,445.4z"/>
	<path class="st2" d="M206,445.4h-10.3c-1.1,0-2-0.9-2-2v-13.9c0-1.1,0.9-2,2-2H206c1.1,0,2,0.9,2,2v13.9
		C208,444.5,207.1,445.4,206,445.4z"/>
	<path class="st2" d="M68.4,478.4H58.1c-1.1,0-2-0.9-2-2v-13.9c0-1.1,0.9-2,2-2h10.3c1.1,0,2,0.9,2,2v13.9
		C70.4,477.5,69.5,478.4,68.4,478.4z"/>
	<path class="st2" d="M88.1,478.4H77.8c-1.1,0-2-0.9-2-2v-13.9c0-1.1,0.9-2,2-2h10.3c1.1,0,2,0.9,2,2v13.9
		C90.1,477.5,89.2,478.4,88.1,478.4z"/>
	<path class="st2" d="M107.7,478.4H97.4c-1.1,0-2-0.9-2-2v-13.9c0-1.1,0.9-2,2-2h10.3c1.1,0,2,0.9,2,2v13.9
		C109.7,477.5,108.8,478.4,107.7,478.4z"/>
	<path class="st2" d="M127.4,478.4h-10.3c-1.1,0-2-0.9-2-2v-13.9c0-1.1,0.9-2,2-2h10.3c1.1,0,2,0.9,2,2v13.9
		C129.4,477.5,128.5,478.4,127.4,478.4z"/>
	<path class="st2" d="M147,478.4h-10.3c-1.1,0-2-0.9-2-2v-13.9c0-1.1,0.9-2,2-2H147c1.1,0,2,0.9,2,2v13.9
		C149,477.5,148.1,478.4,147,478.4z"/>
	<path class="st2" d="M166.7,478.4h-10.3c-1.1,0-2-0.9-2-2v-13.9c0-1.1,0.9-2,2-2h10.3c1.1,0,2,0.9,2,2v13.9
		C168.7,477.5,167.8,478.4,166.7,478.4z"/>
	<path class="st2" d="M186.3,478.4H176c-1.1,0-2-0.9-2-2v-13.9c0-1.1,0.9-2,2-2h10.3c1.1,0,2,0.9,2,2v13.9
		C188.3,477.5,187.4,478.4,186.3,478.4z"/>
	<path class="st2" d="M206,478.4h-10.3c-1.1,0-2-0.9-2-2v-13.9c0-1.1,0.9-2,2-2H206c1.1,0,2,0.9,2,2v13.9
		C208,477.5,207.1,478.4,206,478.4z"/>
	<path class="st2" d="M68.4,511.5H58.1c-1.1,0-2-0.9-2-2v-13.9c0-1.1,0.9-2,2-2h10.3c1.1,0,2,0.9,2,2v13.9
		C70.4,510.6,69.5,511.5,68.4,511.5z"/>
	<path class="st2" d="M88.1,511.5H77.8c-1.1,0-2-0.9-2-2v-13.9c0-1.1,0.9-2,2-2h10.3c1.1,0,2,0.9,2,2v13.9
		C90.1,510.6,89.2,511.5,88.1,511.5z"/>
	<path class="st2" d="M107.7,511.5H97.4c-1.1,0-2-0.9-2-2v-13.9c0-1.1,0.9-2,2-2h10.3c1.1,0,2,0.9,2,2v13.9
		C109.7,510.6,108.8,511.5,107.7,511.5z"/>
	<path class="st2" d="M127.4,511.5h-10.3c-1.1,0-2-0.9-2-2v-13.9c0-1.1,0.9-2,2-2h10.3c1.1,0,2,0.9,2,2v13.9
		C129.4,510.6,128.5,511.5,127.4,511.5z"/>
	<path class="st2" d="M147,511.5h-10.3c-1.1,0-2-0.9-2-2v-13.9c0-1.1,0.9-2,2-2H147c1.1,0,2,0.9,2,2v13.9
		C149,510.6,148.1,511.5,147,511.5z"/>
	<path class="st2" d="M166.7,511.5h-10.3c-1.1,0-2-0.9-2-2v-13.9c0-1.1,0.9-2,2-2h10.3c1.1,0,2,0.9,2,2v13.9
		C168.7,510.6,167.8,511.5,166.7,511.5z"/>
	<path class="st2" d="M186.3,511.5H176c-1.1,0-2-0.9-2-2v-13.9c0-1.1,0.9-2,2-2h10.3c1.1,0,2,0.9,2,2v13.9
		C188.3,510.6,187.4,511.5,186.3,511.5z"/>
	<path class="st2" d="M206,511.5h-10.3c-1.1,0-2-0.9-2-2v-13.9c0-1.1,0.9-2,2-2H206c1.1,0,2,0.9,2,2v13.9
		C208,510.6,207.1,511.5,206,511.5z"/>
	<path class="st2" d="M68.4,544.5H58.1c-1.1,0-2-0.9-2-2v-13.9c0-1.1,0.9-2,2-2h10.3c1.1,0,2,0.9,2,2v13.9
		C70.4,543.6,69.5,544.5,68.4,544.5z"/>
	<path class="st2" d="M88.1,544.5H77.8c-1.1,0-2-0.9-2-2v-13.9c0-1.1,0.9-2,2-2h10.3c1.1,0,2,0.9,2,2v13.9
		C90.1,543.6,89.2,544.5,88.1,544.5z"/>
	<path class="st2" d="M107.7,544.5H97.4c-1.1,0-2-0.9-2-2v-13.9c0-1.1,0.9-2,2-2h10.3c1.1,0,2,0.9,2,2v13.9
		C109.7,543.6,108.8,544.5,107.7,544.5z"/>
	<path class="st2" d="M127.4,544.5h-10.3c-1.1,0-2-0.9-2-2v-13.9c0-1.1,0.9-2,2-2h10.3c1.1,0,2,0.9,2,2v13.9
		C129.4,543.6,128.5,544.5,127.4,544.5z"/>
	<path class="st2" d="M147,544.5h-10.3c-1.1,0-2-0.9-2-2v-13.9c0-1.1,0.9-2,2-2H147c1.1,0,2,0.9,2,2v13.9
		C149,543.6,148.1,544.5,147,544.5z"/>
	<path class="st2" d="M166.7,544.5h-10.3c-1.1,0-2-0.9-2-2v-13.9c0-1.1,0.9-2,2-2h10.3c1.1,0,2,0.9,2,2v13.9
		C168.7,543.6,167.8,544.5,166.7,544.5z"/>
	<path class="st2" d="M186.3,544.5H176c-1.1,0-2-0.9-2-2v-13.9c0-1.1,0.9-2,2-2h10.3c1.1,0,2,0.9,2,2v13.9
		C188.3,543.6,187.4,544.5,186.3,544.5z"/>
	<path class="st2" d="M206,544.5h-10.3c-1.1,0-2-0.9-2-2v-13.9c0-1.1,0.9-2,2-2H206c1.1,0,2,0.9,2,2v13.9
		C208,543.6,207.1,544.5,206,544.5z"/>
	<g>
		<g>
			<g>
				<polygon class="st2" points="256.5,541.6 254.6,536.8 249.5,536.8 249.5,531 250.1,531 250.1,536.3 255,536.3 256.8,540.9 
					258.3,540.3 258.5,540.8 				"/>
			</g>
			<g>
				<polygon class="st2" points="256.2,542.2 254.3,537.2 249.1,537.2 249.1,530.6 250.5,530.6 250.5,535.8 255.3,535.8 257,540.4 
					258.6,539.8 259.1,541.1 				"/>
			</g>
		</g>
		<g>
			<g>
				<rect x="249.8" y="534" class="st2" width="4.3" height="0.5"/>
			</g>
			<g>
				<rect x="249.3" y="533.6" class="st2" width="5.1" height="1.4"/>
			</g>
		</g>
		<g>
			<g>
				<circle class="st2" cx="250.6" cy="530.3" r="1.4"/>
			</g>
			<g>
				<path class="st2" d="M250.6,532.2c-1,0-1.9-0.8-1.9-1.9c0-1,0.8-1.9,1.9-1.9c1,0,1.9,0.8,1.9,1.9
					C252.5,531.3,251.6,532.2,250.6,532.2z M250.6,529.3c-0.6,0-1,0.5-1,1c0,0.6,0.5,1,1,1c0.6,0,1-0.5,1-1
					C251.6,529.7,251.2,529.3,250.6,529.3z"/>
			</g>
		</g>
		<g>
			<g>
				<path class="st2" d="M250,543c-2.6,0-4.8-2.1-4.8-4.8c0-2,1.2-3.8,3.1-4.5l0.2,0.5c-1.6,0.6-2.7,2.2-2.7,4
					c0,2.3,1.9,4.2,4.2,4.2c1.5,0,2.8-0.8,3.6-2l0.5,0.3C253.2,542.1,251.7,543,250,543z"/>
			</g>
			<g>
				<path class="st2" d="M250,543.4c-2.9,0-5.2-2.3-5.2-5.2c0-2.1,1.3-4.1,3.3-4.9l0.4-0.2l0.5,1.3l-0.4,0.2c-1.5,0.6-2.4,2-2.4,3.6
					c0,2.1,1.7,3.8,3.8,3.8c1.3,0,2.5-0.7,3.2-1.8l0.2-0.4l1.2,0.7l-0.2,0.4C253.5,542.5,251.8,543.4,250,543.4z"/>
			</g>
		</g>
	</g>
	<g>
		<g>
			<g>
				<polygon class="st2" points="277.5,541.6 275.7,536.8 270.6,536.8 270.6,531 271.2,531 271.2,536.3 276.1,536.3 277.9,540.9 
					279.4,540.3 279.6,540.8 				"/>
			</g>
			<g>
				<polygon class="st2" points="277.3,542.2 275.4,537.2 270.2,537.2 270.2,530.6 271.6,530.6 271.6,535.8 276.4,535.8 
					278.1,540.4 279.7,539.8 280.2,541.1 				"/>
			</g>
		</g>
		<g>
			<g>
				<rect x="270.8" y="534" class="st2" width="4.3" height="0.5"/>
			</g>
			<g>
				<rect x="270.4" y="533.6" class="st2" width="5.1" height="1.4"/>
			</g>
		</g>
		<g>
			<g>
				<circle class="st2" cx="271.7" cy="530.3" r="1.4"/>
			</g>
			<g>
				<path class="st2" d="M271.7,532.2c-1,0-1.9-0.8-1.9-1.9c0-1,0.8-1.9,1.9-1.9c1.1,0,1.9,0.8,1.9,1.9
					C273.6,531.3,272.7,532.2,271.7,532.2z M271.7,529.3c-0.6,0-1,0.5-1,1c0,0.6,0.5,1,1,1c0.6,0,1-0.5,1-1
					C272.7,529.7,272.3,529.3,271.7,529.3z"/>
			</g>
		</g>
		<g>
			<g>
				<path class="st2" d="M271.1,543c-2.6,0-4.8-2.1-4.8-4.8c0-2,1.2-3.8,3.1-4.5l0.2,0.5c-1.6,0.6-2.7,2.2-2.7,4
					c0,2.3,1.9,4.2,4.2,4.2c1.5,0,2.8-0.8,3.6-2l0.5,0.3C274.3,542.1,272.8,543,271.1,543z"/>
			</g>
			<g>
				<path class="st2" d="M271.1,543.4c-2.9,0-5.2-2.3-5.2-5.2c0-2.1,1.3-4.1,3.3-4.9l0.4-0.2l0.5,1.3l-0.4,0.2
					c-1.5,0.6-2.4,2-2.4,3.6c0,2.1,1.7,3.8,3.8,3.8c1.3,0,2.5-0.7,3.2-1.8l0.2-0.4l1.2,0.7l-0.2,0.4
					C274.6,542.5,272.9,543.4,271.1,543.4z"/>
			</g>
		</g>
	</g>
	<rect x="28.8" y="163.1" class="st2" width="3.1" height="30.5"/>
	<rect x="411.9" y="163.1" class="st2" width="3.1" height="30.5"/>
	<g>
		<g>
			<rect y="462.1" class="st3" width="15.3" height="15.3"/>
		</g>
		<g>
			<circle class="st4" cx="7.7" cy="465.4" r="1.2"/>
			<polygon class="st4" points="10.5,475.8 4.9,475.8 7.7,467.4 7.7,467.4 			"/>
		</g>
	</g>
	<g>
		<g>
			<rect y="481.4" class="st5" width="15.3" height="15.3"/>
		</g>
		<g>
			<circle class="st4" cx="7.7" cy="484.6" r="1.2"/>
			<polygon class="st4" points="4.9,486.6 10.5,486.6 7.7,495 7.7,495 			"/>
		</g>
	</g>
	<rect x="56.2" y="568.9" class="st2" width="30.5" height="3.1"/>
	<rect x="206.5" y="568.9" class="st2" width="30.5" height="3.1"/>
	<rect x="355.6" y="568.8" class="st2" width="30.5" height="3.1"/>
</g>
</svg>
