<?xml version="1.0" encoding="utf-8"?>
<!-- Generator: Adobe Illustrator 21.1.0, SVG Export Plug-In . SVG Version: 6.00 Build 0)  -->
<svg version="1.1" id="レイヤー_2" xmlns="http://www.w3.org/2000/svg" xmlns:xlink="http://www.w3.org/1999/xlink" x="0px"
	 y="0px" viewBox="0 0 17 17" style="enable-background:new 0 0 17 17;" xml:space="preserve">
<style type="text/css">
	.st0{fill:none;stroke:#595757;stroke-linecap:round;stroke-miterlimit:2;}
</style>
<g>
	<polyline class="st0" points="6.6,16.5 0.5,16.5 0.5,0.5 16.5,0.5 16.5,16.5 10.4,16.5 	"/>
	<g>
		<g>
			<path class="st0" d="M2.5,7.9L2.1,8.1c0,0,0,0,0,0c6.1-3.5,6.4-7.6,6.4-7.6"/>
			<path class="st0" d="M1.2,8c2.7-2.9,3.2-7.5,3.2-7.5"/>
			<rect x="0.5" y="8.1" class="st0" width="2.7" height="2.5"/>
			<path class="st0" d="M6.6,16.5c0,0-0.2-3.1-4.4-5.9"/>
			<path class="st0" d="M3.6,16.5c0,0-0.2-2.7-2.7-5.9"/>
		</g>
		<g>
			<path class="st0" d="M14.5,7.9l0.4,0.2l0,0C8.8,4.6,8.5,0.5,8.5,0.5"/>
			<path class="st0" d="M15.8,8c-2.7-2.9-3.2-7.5-3.2-7.5"/>
			
				<rect x="13.8" y="8.1" transform="matrix(-1 -4.506452e-11 4.506452e-11 -1 30.2552 18.6865)" class="st0" width="2.7" height="2.5"/>
			<path class="st0" d="M10.4,16.5c0,0,0.2-3.1,4.4-5.9"/>
			<path class="st0" d="M13.4,16.5c0,0,0.2-2.7,2.7-5.9"/>
		</g>
	</g>
</g>
</svg>
