<?xml version="1.0" encoding="utf-8"?>
<!-- Generator: Adobe Illustrator 21.1.0, SVG Export Plug-In . SVG Version: 6.00 Build 0)  -->
<svg version="1.1" id="レイヤー_2" xmlns="http://www.w3.org/2000/svg" xmlns:xlink="http://www.w3.org/1999/xlink" x="0px"
	 y="0px" viewBox="0 0 17 17" style="enable-background:new 0 0 17 17;" xml:space="preserve">
<style type="text/css">
	.st0{fill:none;stroke:#595757;stroke-linecap:square;stroke-miterlimit:10;}
</style>
<g>
	<line class="st0" x1="14" y1="12.8" x2="3" y2="12.8"/>
	<line class="st0" x1="14" y1="4.1" x2="3" y2="4.1"/>
	<line class="st0" x1="16.5" y1="0.5" x2="0.5" y2="0.5"/>
	<line class="st0" x1="16.5" y1="16.5" x2="0.5" y2="16.5"/>
	<line class="st0" x1="3" y1="0.5" x2="3" y2="16.5"/>
	<line class="st0" x1="0.5" y1="0.5" x2="0.5" y2="16.5"/>
	<g>
		<line class="st0" x1="3" y1="5.5" x2="0.5" y2="5.5"/>
		<line class="st0" x1="3" y1="2.5" x2="0.5" y2="2.5"/>
		<line class="st0" x1="3" y1="8.5" x2="0.5" y2="8.5"/>
	</g>
	<line class="st0" x1="3" y1="14.5" x2="0.5" y2="14.5"/>
	<line class="st0" x1="3" y1="11.5" x2="0.5" y2="11.5"/>
	<line class="st0" x1="16.5" y1="0.5" x2="16.5" y2="16.5"/>
	<line class="st0" x1="14" y1="0.5" x2="14" y2="16.5"/>
	<g>
		<line class="st0" x1="16.5" y1="5.5" x2="14" y2="5.5"/>
		<line class="st0" x1="16.5" y1="2.5" x2="14" y2="2.5"/>
		<line class="st0" x1="16.5" y1="8.5" x2="14" y2="8.5"/>
	</g>
	<line class="st0" x1="16.5" y1="14.5" x2="14" y2="14.5"/>
	<line class="st0" x1="16.5" y1="11.5" x2="14" y2="11.5"/>
</g>
</svg>
