<?xml version="1.0" encoding="utf-8"?>
<!-- Generator: Adobe Illustrator 21.1.0, SVG Export Plug-In . SVG Version: 6.00 Build 0)  -->
<svg version="1.1" id="レイヤー_2" xmlns="http://www.w3.org/2000/svg" xmlns:xlink="http://www.w3.org/1999/xlink" x="0px"
	 y="0px" viewBox="0 0 17 17" style="enable-background:new 0 0 17 17;" xml:space="preserve">
<style type="text/css">
	.st0{fill:none;stroke:#595757;stroke-linecap:square;stroke-miterlimit:10;}
	.st1{fill:#595757;}
</style>
<g>
	<line class="st0" x1="8.5" y1="12.2" x2="2.6" y2="12.2"/>
	<line class="st0" x1="11.8" y1="4.9" x2="2.6" y2="4.9"/>
	<path class="st1" d="M13.5,15.5V16h-1.1v-0.3c-0.3,0-0.7-0.1-1-0.2V16H3.1v-1.8v-1v-1.7v-1V8.8v-1V6.3v-1V3.8v-1V1h8.2v1.8v1v1.5v1
		v1.5c0.3-0.1,0.7-0.2,1-0.2V6.3h1.1v1.5c0.4,0.1,0.7,0.2,1,0.4V7.8V6.3v-1V3.8v-1V1V0h-1h-1.1h-1H3.1h-1H1H0v1v1.8v1v1.5v1v1.5v1
		v1.7v1v1.7v1V16v1h1h1.1h1h8.2h1h1.1h1v-1v-0.9C14.1,15.3,13.8,15.4,13.5,15.5z M12.3,1h1.1v1.8h-1.1V1z M12.3,3.8h1.1v1.5h-1.1
		V3.8z M2.1,16H1v-1.8h1.1V16z M2.1,13.2H1v-1.7h1.1V13.2z M2.1,10.5H1V8.8h1.1V10.5z M2.1,7.8H1V6.3h1.1V7.8z M2.1,5.3H1V3.8h1.1
		V5.3z M2.1,2.8H1V1h1.1V2.8z"/>
	<g>
		<ellipse class="st0" cx="12.5" cy="11.7" rx="4" ry="4"/>
		<polyline class="st0" points="12.5,9.5 12.5,11.7 14.2,11.7 		"/>
	</g>
</g>
</svg>
